<svg width="10" height="13" viewBox="0 0 10 13" fill="none" xmlns="http://www.w3.org/2000/svg">
<path d="M3.52941 10.4C3.20588 10.4 2.92902 10.2728 2.69882 10.0184C2.46824 9.76365 2.35294 9.4575 2.35294 9.1V1.3C2.35294 0.9425 2.46824 0.63635 2.69882 0.38155C2.92902 0.127183 3.20588 0 3.52941 0H8.82353C9.14706 0 9.42412 0.127183 9.65471 0.38155C9.8849 0.63635 10 0.9425 10 1.3V9.1C10 9.4575 9.8849 9.76365 9.65471 10.0184C9.42412 10.2728 9.14706 10.4 8.82353 10.4H3.52941ZM1.17647 13C0.852941 13 0.575882 12.8728 0.345294 12.6184C0.115098 12.3636 0 12.0575 0 11.7V3.25C0 3.06583 0.0564707 2.91135 0.169412 2.78655C0.281961 2.66218 0.421569 2.6 0.588235 2.6C0.754902 2.6 0.894706 2.66218 1.00765 2.78655C1.1202 2.91135 1.17647 3.06583 1.17647 3.25V11.7H7.05882C7.22549 11.7 7.36529 11.7624 7.47824 11.8872C7.59079 12.0116 7.64706 12.1658 7.64706 12.35C7.64706 12.5342 7.59079 12.6884 7.47824 12.8128C7.36529 12.9376 7.22549 13 7.05882 13H1.17647Z" fill="#C1C1C1"/>
</svg>
