<svg width="21" height="15" viewBox="0 0 21 15" fill="none" xmlns="http://www.w3.org/2000/svg">
<path d="M20.845 7.80906L17.6142 3.68403C17.462 3.48993 17.2192 3.37512 16.9608 3.37512H13.7303V0.750217C13.7303 0.336055 13.3685 0.000170858 12.9225 0.000170858L0.807718 0C0.361711 0 0 0.335906 0 0.750046V12.3751C0 12.7893 0.361735 13.1252 0.807718 13.1252H2.45961C2.65281 14.1878 3.64787 15 4.84621 15C6.04455 15 7.0396 14.1874 7.23281 13.1252H14.171C14.3642 14.1878 15.3593 15 16.5576 15C17.7558 15 18.751 14.1874 18.9442 13.1252H20.1923C20.6383 13.1252 21 12.7893 21 12.3751L20.9998 8.25029C20.9994 8.09156 20.9455 7.93728 20.8451 7.80913L20.845 7.80906ZM18.3118 7.1251H16.1533V4.87523H16.5496L18.3118 7.1251ZM12.1154 1.5002V8.25009H1.61572V1.5002H12.1154ZM4.84649 13.5001C4.40104 13.5001 4.03878 13.1637 4.03878 12.7501C4.03878 12.3365 4.40106 12.0001 4.84649 12.0001C5.29194 12.0001 5.65421 12.3365 5.65421 12.7501C5.65403 13.1637 5.29174 13.5001 4.84649 13.5001ZM6.94148 11.6252C6.52179 10.9537 5.74074 10.5 4.84616 10.5C3.95178 10.5 3.17053 10.9537 2.75085 11.6252H1.61544V9.75035H12.1151V11.6252H6.94148ZM16.5575 13.5001C16.1121 13.5001 15.7498 13.1637 15.7498 12.7501C15.7498 12.3365 16.1121 12.0001 16.5575 12.0001C17.003 12.0001 17.3652 12.3365 17.3652 12.7501C17.3652 13.1637 17.0029 13.5001 16.5575 13.5001ZM18.6526 11.6252C18.2329 10.9537 17.4519 10.5 16.5573 10.5C15.6629 10.5 14.8817 10.9537 14.462 11.6252H13.7304L13.7306 4.87527H14.5383V7.87519C14.5383 8.28935 14.9001 8.62524 15.3461 8.62524H19.3844V11.6252H18.6526Z" fill="#FF6600"/>
</svg>
