<svg width="18" height="18" viewBox="0 0 18 18" fill="none" xmlns="http://www.w3.org/2000/svg">
<path d="M4.50045 0.251886C5.63912 1.08206 6.50102 2.24845 7.2349 3.32019L7.8101 4.16568C7.98872 4.42669 8.07045 4.74192 8.04114 5.05681C8.01183 5.37171 7.87334 5.66645 7.64962 5.89003L6.42709 7.1123L6.55602 7.38632C6.87157 8.0254 7.41611 8.94571 8.23563 9.76596C8.80153 10.3232 9.43949 10.8022 10.1325 11.1901L10.4634 11.3677L10.7582 11.5137L10.8898 11.5741L12.1115 10.3519C12.336 10.1277 12.6321 9.98947 12.9481 9.9613C13.2641 9.93313 13.58 10.0168 13.8407 10.1977L14.7549 10.8314C15.7935 11.5615 16.878 12.3935 17.721 13.4733C17.8667 13.6607 17.9594 13.8838 17.9894 14.1193C18.0194 14.3548 17.9855 14.594 17.8914 14.8119C17.1368 16.5723 15.2273 18.0713 13.2411 17.9974L12.9707 17.983L12.7606 17.9649L12.528 17.9379L12.2747 17.9036L11.9997 17.8577L11.7058 17.8L11.3938 17.7306L11.0638 17.6458L10.7167 17.5467L10.3543 17.4295C8.69002 16.8652 6.57765 15.7565 4.41029 13.5896C2.24383 11.4236 1.1349 9.31167 0.570521 7.64772L0.453317 7.28536L0.354145 6.93833L0.269398 6.60843L0.199076 6.29655C0.178764 6.19887 0.15983 6.10091 0.142277 6.0027L0.0971989 5.72778L0.0611362 5.47449L0.0349909 5.24193L0.0169594 5.03191L0.00253447 4.7615C-0.0704924 2.78206 1.44504 0.859417 3.19768 0.108566C3.40863 0.0174967 3.63963 -0.0171762 3.86803 0.00794982C4.09642 0.0330758 4.31435 0.117137 4.50045 0.251886ZM3.6647 1.88158C2.69822 2.38636 1.76239 3.54012 1.80476 4.69479L1.8228 4.99045L1.84263 5.17523L1.86878 5.38255L1.90484 5.6106L1.95082 5.86028L2.00942 6.12889L2.08155 6.41733L2.1681 6.7229L2.27087 7.0456C2.30874 7.15556 2.34841 7.26824 2.39168 7.38361L2.53053 7.73696L2.6892 8.10382C3.25538 9.34953 4.17859 10.808 5.68691 12.3151C7.19433 13.8222 8.65306 14.7461 9.89902 15.3122L10.266 15.4708L10.6194 15.6096C10.7348 15.6529 10.8475 15.6925 10.9575 15.7304L11.2802 15.8332L11.5868 15.9197L11.8744 15.9918L12.143 16.0504L12.3928 16.0964L12.6218 16.1324L12.8291 16.1595L13.013 16.1775L13.3087 16.1955C14.4483 16.2379 15.6113 15.3077 16.1144 14.354C15.4725 13.6013 14.6755 12.9839 13.7965 12.3619L13.1221 11.8923L12.9508 12.0717L12.5848 12.471L12.391 12.6747C11.8626 13.2128 11.246 13.6698 10.5067 13.3715L10.3029 13.2859L10.0541 13.1741L9.91525 13.1083L9.61052 12.956L9.27604 12.7757C8.42959 12.3047 7.65103 11.721 6.96172 11.0405C6.28111 10.3513 5.69727 9.57295 5.22621 8.72667L5.04589 8.39316L4.89263 8.08759L4.71592 7.7L4.62937 7.49448C4.34898 6.80132 4.73485 6.21633 5.22801 5.70975L5.42996 5.51145L5.93213 5.04904L6.11245 4.87777L5.68601 4.25312C5.05221 3.33371 4.43283 2.50444 3.66379 1.88068L3.6647 1.88158ZM11.8356 3.49235L11.9402 3.50407C12.5964 3.6198 13.1992 3.94029 13.6621 4.41958C14.1249 4.89888 14.4242 5.51238 14.5168 6.17216C14.5499 6.40037 14.4942 6.63256 14.3612 6.82097C14.2283 7.00939 14.0281 7.13968 13.802 7.18506C13.5759 7.23044 13.3409 7.18745 13.1456 7.06493C12.9502 6.94241 12.8092 6.74969 12.7516 6.5264L12.7308 6.42274C12.6946 6.16414 12.5842 5.92157 12.413 5.72434C12.2418 5.52711 12.0171 5.38367 11.7662 5.31134L11.6264 5.27979C11.4 5.23967 11.1975 5.1146 11.0603 4.93015C10.9231 4.7457 10.8616 4.51581 10.8883 4.2875C10.915 4.05919 11.028 3.84971 11.2041 3.70191C11.3801 3.5541 11.6061 3.47914 11.8356 3.49235ZM11.8419 0.752152C13.2766 0.752152 14.6525 1.32195 15.6669 2.3362C16.6814 3.35045 17.2513 4.72607 17.2513 6.16044C17.251 6.39018 17.163 6.61116 17.0053 6.77822C16.8476 6.94528 16.632 7.04581 16.4026 7.05927C16.1732 7.07274 15.9473 6.99812 15.7711 6.85066C15.5949 6.7032 15.4816 6.49404 15.4545 6.2659L15.4482 6.16044C15.4485 5.24501 15.1004 4.36377 14.4745 3.69564C13.8486 3.0275 12.9918 2.62256 12.0781 2.56303L11.8419 2.55491C11.6028 2.55491 11.3735 2.45995 11.2044 2.29091C11.0353 2.12186 10.9403 1.89259 10.9403 1.65353C10.9403 1.41447 11.0353 1.1852 11.2044 1.01616C11.3735 0.847119 11.6028 0.752152 11.8419 0.752152Z" fill="#FF6600"/>
</svg>
