<svg width="13" height="23" viewBox="0 0 13 23" fill="none" xmlns="http://www.w3.org/2000/svg">
<path fill-rule="evenodd" clip-rule="evenodd" d="M7.8 1.27778C7.8 0.93889 7.66304 0.613882 7.41924 0.374252C7.17544 0.134623 6.84478 0 6.5 0C6.15522 0 5.82456 0.134623 5.58076 0.374252C5.33696 0.613882 5.2 0.93889 5.2 1.27778V2.55556C3.82087 2.55556 2.49823 3.09405 1.52304 4.05257C0.547855 5.01108 0 6.31112 0 7.66667C0 9.02222 0.547855 10.3222 1.52304 11.2808C2.49823 12.2393 3.82087 12.7778 5.2 12.7778V17.8889C4.66224 17.889 4.13766 17.7252 3.69848 17.4202C3.25929 17.1152 2.92707 16.6839 2.74755 16.1856C2.62824 15.872 2.38844 15.6169 2.07975 15.4753C1.77105 15.3336 1.41813 15.3168 1.09691 15.4283C0.775689 15.5398 0.511842 15.7708 0.362134 16.0716C0.212427 16.3724 0.188823 16.7189 0.2964 17.0366C0.655075 18.0332 1.31919 18.896 2.19735 19.5063C3.0755 20.1166 4.12451 20.4443 5.2 20.4444V21.7222C5.2 22.0611 5.33696 22.3861 5.58076 22.6257C5.82456 22.8654 6.15522 23 6.5 23C6.84478 23 7.17544 22.8654 7.41924 22.6257C7.66304 22.3861 7.8 22.0611 7.8 21.7222V20.4444C9.17913 20.4444 10.5018 19.906 11.477 18.9474C12.4521 17.9889 13 16.6889 13 15.3333C13 13.9778 12.4521 12.6778 11.477 11.7192C10.5018 10.7607 9.17913 10.2222 7.8 10.2222V5.11111C8.33776 5.11103 8.86234 5.27478 9.30152 5.5798C9.74071 5.88482 10.0729 6.31614 10.2524 6.81439C10.3718 7.12803 10.6116 7.3831 10.9203 7.52474C11.2289 7.66637 11.5819 7.68324 11.9031 7.57171C12.2243 7.46019 12.4882 7.22919 12.6379 6.92841C12.7876 6.62763 12.8112 6.2811 12.7036 5.96339C12.3449 4.96681 11.6808 4.10399 10.8027 3.49371C9.9245 2.88342 8.87549 2.55567 7.8 2.55556V1.27778ZM5.2 5.11111C4.51044 5.11111 3.84912 5.38036 3.36152 5.85962C2.87393 6.33888 2.6 6.98889 2.6 7.66667C2.6 8.34444 2.87393 8.99446 3.36152 9.47372C3.84912 9.95298 4.51044 10.2222 5.2 10.2222V5.11111ZM7.8 12.7778V17.8889C8.48956 17.8889 9.15088 17.6196 9.63848 17.1404C10.1261 16.6611 10.4 16.0111 10.4 15.3333C10.4 14.6556 10.1261 14.0055 9.63848 13.5263C9.15088 13.047 8.48956 12.7778 7.8 12.7778Z" fill="#FF6600"/>
</svg>
