<svg width="19" height="19" viewBox="0 0 19 19" fill="none" xmlns="http://www.w3.org/2000/svg">
<path d="M16.0147 18.9698H12.7576C12.5417 18.9698 12.3346 18.884 12.1819 18.7313C12.0291 18.5786 11.9434 18.3715 11.9434 18.1555C11.9434 17.9396 12.0291 17.7325 12.1819 17.5798C12.3346 17.427 12.5417 17.3413 12.7576 17.3413H16.0147C16.3371 17.3693 16.6579 17.2722 16.9106 17.07C17.1633 16.8679 17.3285 16.5762 17.3719 16.2556V2.71685C17.3285 2.39618 17.1633 2.10453 16.9106 1.90239C16.6579 1.70024 16.3371 1.60311 16.0147 1.63114H12.7576C12.5417 1.63114 12.3346 1.54535 12.1819 1.39265C12.0291 1.23994 11.9434 1.03283 11.9434 0.816867C11.9434 0.600907 12.0291 0.393792 12.1819 0.241086C12.3346 0.0883794 12.5417 0.0025896 12.7576 0.0025896H16.0147C16.3912 -0.0134245 16.7672 0.0449545 17.1211 0.174386C17.475 0.303817 17.7999 0.50176 18.0772 0.756889C18.3545 1.01202 18.5788 1.31932 18.7372 1.66122C18.8956 2.00313 18.9851 2.37291 19.0004 2.74942V16.223C18.9851 16.5995 18.8956 16.9693 18.7372 17.3112C18.5788 17.6531 18.3545 17.9604 18.0772 18.2155C17.7999 18.4706 17.475 18.6686 17.1211 18.798C16.7672 18.9274 16.3912 18.9858 16.0147 18.9698Z" fill="white"/>
<path d="M8.41317 14.6269C8.30618 14.6274 8.20018 14.6065 8.10136 14.5655C8.00255 14.5245 7.91293 14.4641 7.83775 14.388C7.68526 14.2353 7.59961 14.0284 7.59961 13.8126C7.59961 13.5968 7.68526 13.3898 7.83775 13.2372L11.6051 9.46978L7.83775 5.70239C7.69391 5.54804 7.61561 5.34387 7.61933 5.13292C7.62305 4.92197 7.70851 4.72069 7.8577 4.5715C8.00689 4.42231 8.20816 4.33686 8.41912 4.33313C8.63007 4.32941 8.83423 4.40772 8.98859 4.55155L13.3314 8.89436C13.4839 9.04704 13.5695 9.254 13.5695 9.46978C13.5695 9.68557 13.4839 9.89253 13.3314 10.0452L8.98859 14.388C8.91341 14.4641 8.82379 14.5245 8.72498 14.5655C8.62616 14.6065 8.52016 14.6274 8.41317 14.6269Z" fill="white"/>
<path d="M12.757 10.2848H0.814277C0.598317 10.2848 0.391202 10.199 0.238496 10.0463C0.0857895 9.8936 0 9.68649 0 9.47053C0 9.25457 0.0857895 9.04745 0.238496 8.89475C0.391202 8.74204 0.598317 8.65625 0.814277 8.65625H12.757C12.973 8.65625 13.1801 8.74204 13.3328 8.89475C13.4855 9.04745 13.5713 9.25457 13.5713 9.47053C13.5713 9.68649 13.4855 9.8936 13.3328 10.0463C13.1801 10.199 12.973 10.2848 12.757 10.2848Z" fill="white"/>
</svg>
