<svg width="400" height="297" viewBox="0 0 400 297" fill="none" xmlns="http://www.w3.org/2000/svg">
<path d="M400 154.812L349.679 113L336 189L400 154.812Z" fill="#A74808" fill-opacity="0.25"/>
<path fill-rule="evenodd" clip-rule="evenodd" d="M32.166 149.113C41.1266 107.833 63.2599 72.6799 98.6425 43.6539C134.025 14.5513 172.318 0 213.598 0C254.188 0 285.971 14.4747 309.1 43.5007C332.153 72.5267 339.198 107.603 330.238 148.883C321.43 189.473 299.144 224.243 263.455 253.346C227.766 282.448 189.626 296.923 149.036 296.923H107.526L126.213 211.147C136.399 219.342 149.342 223.477 165.042 223.477C185.338 223.477 204.407 216.125 222.252 201.421C240.173 186.716 251.278 169.255 255.72 148.959C260.315 127.975 256.792 110.36 245.228 95.962C233.663 81.6404 217.733 74.518 197.438 74.518C176.454 74.518 157.231 81.717 139.769 96.0386C122.307 110.437 111.279 128.128 106.761 149.036C106.378 150.797 106.071 152.482 105.842 154.167L74.5945 297H0L32.166 149.113Z" fill="#A74808" fill-opacity="0.25"/>
<path fill-rule="evenodd" clip-rule="evenodd" d="M216.439 130.808C221.646 144.517 215.902 162.591 201.504 174.462C184.502 188.477 161.833 188.477 150.881 174.462C139.929 160.524 144.907 137.854 161.909 123.839C170.257 117.023 179.907 113.5 188.944 113.347C181.132 120.546 179.065 131.421 184.426 138.237C190.016 145.36 201.581 145.36 210.312 138.237C212.916 136.093 214.983 133.489 216.439 130.808Z" fill="#A74808" fill-opacity="0.25"/>
</svg>
