<svg width="9" height="23" viewBox="0 0 9 23" fill="none" xmlns="http://www.w3.org/2000/svg">
<path d="M6.75 2.3C6.75 3.56979 5.74219 4.6 4.5 4.6C3.25781 4.6 2.25 3.56979 2.25 2.3C2.25 1.03021 3.25781 0 4.5 0C5.74219 0 6.75 1.03021 6.75 2.3ZM0 9.2C0 8.35187 0.670312 7.66667 1.5 7.66667H4.5C5.32969 7.66667 6 8.35187 6 9.2V19.9333H7.5C8.32969 19.9333 9 20.6185 9 21.4667C9 22.3148 8.32969 23 7.5 23H1.5C0.670312 23 0 22.3148 0 21.4667C0 20.6185 0.670312 19.9333 1.5 19.9333H3V10.7333H1.5C0.670312 10.7333 0 10.0481 0 9.2Z" fill="#FF6600"/>
</svg>
