<svg width="15" height="18" viewBox="0 0 15 18" fill="none" xmlns="http://www.w3.org/2000/svg">
<path d="M7.5 9C8.01562 9 8.45719 8.8236 8.82469 8.4708C9.19156 8.1186 9.375 7.695 9.375 7.2C9.375 6.705 9.19156 6.2811 8.82469 5.9283C8.45719 5.5761 8.01562 5.4 7.5 5.4C6.98438 5.4 6.54313 5.5761 6.17625 5.9283C5.80875 6.2811 5.625 6.705 5.625 7.2C5.625 7.695 5.80875 8.1186 6.17625 8.4708C6.54313 8.8236 6.98438 9 7.5 9ZM7.5 15.615C9.40625 13.935 10.8203 12.4086 11.7422 11.0358C12.6641 9.6636 13.125 8.445 13.125 7.38C13.125 5.745 12.5819 4.4061 11.4956 3.3633C10.41 2.3211 9.07812 1.8 7.5 1.8C5.92188 1.8 4.58969 2.3211 3.50344 3.3633C2.41781 4.4061 1.875 5.745 1.875 7.38C1.875 8.445 2.33594 9.6636 3.25781 11.0358C4.17969 12.4086 5.59375 13.935 7.5 15.615ZM7.5 18C4.98438 15.945 3.10562 14.0361 1.86375 12.2733C0.62125 10.5111 0 8.88 0 7.38C0 5.13 0.754063 3.3375 2.26219 2.0025C3.76969 0.6675 5.51562 0 7.5 0C9.48438 0 11.2303 0.6675 12.7378 2.0025C14.2459 3.3375 15 5.13 15 7.38C15 8.88 14.3791 10.5111 13.1372 12.2733C11.8947 14.0361 10.0156 15.945 7.5 18Z" fill="#FF6600"/>
</svg>
