<svg width="10" height="20" viewBox="0 0 10 20" fill="none" xmlns="http://www.w3.org/2000/svg">
<path d="M0.845 4.77895C0.0774804 4.42105 -0.248715 3.37895 0.211796 2.62105C1.14241 1.10526 2.69664 0 4.74975 0C7.00434 0 8.54898 1.12632 9.33568 2.53684C10.0073 3.74737 10.4006 6.01053 9.36446 7.69474C8.21319 9.5579 7.10988 10.1263 6.51505 11.3263C6.37114 11.6105 6.28479 11.8421 6.22723 12.3158C6.14088 13.0842 5.56524 13.6842 4.85529 13.6842C4.02061 13.6842 3.33944 12.8947 3.43538 11.9789C3.49294 11.4421 3.60807 10.8842 3.8767 10.3579C4.61544 8.89474 6.03535 8.03158 6.86043 6.73684C7.73349 5.37895 7.24419 2.84211 4.76894 2.84211C3.64645 2.84211 2.9173 3.48421 2.46638 4.25263C2.13059 4.85263 1.43023 5.04211 0.845 4.77895ZM6.67815 17.8947C6.67815 19.0526 5.81469 20 4.75935 20C3.70401 20 2.84055 19.0526 2.84055 17.8947C2.84055 16.7368 3.70401 15.7895 4.75935 15.7895C5.81469 15.7895 6.67815 16.7368 6.67815 17.8947Z" fill="#FF6600"/>
</svg>
