<svg width="17" height="17" viewBox="0 0 17 17" fill="none" xmlns="http://www.w3.org/2000/svg">
<path d="M1.88889 3.77778C2.38985 3.77778 2.8703 3.57877 3.22453 3.22453C3.57877 2.8703 3.77778 2.38985 3.77778 1.88889C3.77778 1.38792 3.57877 0.907478 3.22453 0.553243C2.8703 0.199007 2.38985 0 1.88889 0C1.38792 0 0.907478 0.199007 0.553243 0.553243C0.199007 0.907478 0 1.38792 0 1.88889C0 2.38985 0.199007 2.8703 0.553243 3.22453C0.907478 3.57877 1.38792 3.77778 1.88889 3.77778ZM8.5 3.77778C9.00096 3.77778 9.48141 3.57877 9.83565 3.22453C10.1899 2.8703 10.3889 2.38985 10.3889 1.88889C10.3889 1.38792 10.1899 0.907478 9.83565 0.553243C9.48141 0.199007 9.00096 0 8.5 0C7.99904 0 7.51859 0.199007 7.16435 0.553243C6.81012 0.907478 6.61111 1.38792 6.61111 1.88889C6.61111 2.38985 6.81012 2.8703 7.16435 3.22453C7.51859 3.57877 7.99904 3.77778 8.5 3.77778ZM15.1111 3.77778C15.6121 3.77778 16.0925 3.57877 16.4468 3.22453C16.801 2.8703 17 2.38985 17 1.88889C17 1.38792 16.801 0.907478 16.4468 0.553243C16.0925 0.199007 15.6121 0 15.1111 0C14.6101 0 14.1297 0.199007 13.7755 0.553243C13.4212 0.907478 13.2222 1.38792 13.2222 1.88889C13.2222 2.38985 13.4212 2.8703 13.7755 3.22453C14.1297 3.57877 14.6101 3.77778 15.1111 3.77778ZM1.88889 10.3889C2.38985 10.3889 2.8703 10.1899 3.22453 9.83565C3.57877 9.48141 3.77778 9.00096 3.77778 8.5C3.77778 7.99904 3.57877 7.51859 3.22453 7.16435C2.8703 6.81012 2.38985 6.61111 1.88889 6.61111C1.38792 6.61111 0.907478 6.81012 0.553243 7.16435C0.199007 7.51859 0 7.99904 0 8.5C0 9.00096 0.199007 9.48141 0.553243 9.83565C0.907478 10.1899 1.38792 10.3889 1.88889 10.3889ZM8.5 10.3889C9.00096 10.3889 9.48141 10.1899 9.83565 9.83565C10.1899 9.48141 10.3889 9.00096 10.3889 8.5C10.3889 7.99904 10.1899 7.51859 9.83565 7.16435C9.48141 6.81012 9.00096 6.61111 8.5 6.61111C7.99904 6.61111 7.51859 6.81012 7.16435 7.16435C6.81012 7.51859 6.61111 7.99904 6.61111 8.5C6.61111 9.00096 6.81012 9.48141 7.16435 9.83565C7.51859 10.1899 7.99904 10.3889 8.5 10.3889ZM15.1111 10.3889C15.6121 10.3889 16.0925 10.1899 16.4468 9.83565C16.801 9.48141 17 9.00096 17 8.5C17 7.99904 16.801 7.51859 16.4468 7.16435C16.0925 6.81012 15.6121 6.61111 15.1111 6.61111C14.6101 6.61111 14.1297 6.81012 13.7755 7.16435C13.4212 7.51859 13.2222 7.99904 13.2222 8.5C13.2222 9.00096 13.4212 9.48141 13.7755 9.83565C14.1297 10.1899 14.6101 10.3889 15.1111 10.3889ZM1.88889 17C2.38985 17 2.8703 16.801 3.22453 16.4468C3.57877 16.0925 3.77778 15.6121 3.77778 15.1111C3.77778 14.6101 3.57877 14.1297 3.22453 13.7755C2.8703 13.4212 2.38985 13.2222 1.88889 13.2222C1.38792 13.2222 0.907478 13.4212 0.553243 13.7755C0.199007 14.1297 0 14.6101 0 15.1111C0 15.6121 0.199007 16.0925 0.553243 16.4468C0.907478 16.801 1.38792 17 1.88889 17ZM8.5 17C9.00096 17 9.48141 16.801 9.83565 16.4468C10.1899 16.0925 10.3889 15.6121 10.3889 15.1111C10.3889 14.6101 10.1899 14.1297 9.83565 13.7755C9.48141 13.4212 9.00096 13.2222 8.5 13.2222C7.99904 13.2222 7.51859 13.4212 7.16435 13.7755C6.81012 14.1297 6.61111 14.6101 6.61111 15.1111C6.61111 15.6121 6.81012 16.0925 7.16435 16.4468C7.51859 16.801 7.99904 17 8.5 17ZM15.1111 17C15.6121 17 16.0925 16.801 16.4468 16.4468C16.801 16.0925 17 15.6121 17 15.1111C17 14.6101 16.801 14.1297 16.4468 13.7755C16.0925 13.4212 15.6121 13.2222 15.1111 13.2222C14.6101 13.2222 14.1297 13.4212 13.7755 13.7755C13.4212 14.1297 13.2222 14.6101 13.2222 15.1111C13.2222 15.6121 13.4212 16.0925 13.7755 16.4468C14.1297 16.801 14.6101 17 15.1111 17Z" fill="white"/>
</svg>
