<svg width="21" height="20" viewBox="0 0 21 20" fill="none" xmlns="http://www.w3.org/2000/svg">
<path d="M20.8591 18.7499C19.3708 16.1864 16.9885 14.2624 14.1691 13.3468C15.5205 12.5432 16.5707 11.3183 17.1584 9.86011C17.746 8.40193 17.8386 6.79116 17.4219 5.27527C17.0052 3.75937 16.1022 2.4222 14.8517 1.46918C13.6012 0.516158 12.0723 0 10.5 0C8.92766 0 7.39881 0.516158 6.14831 1.46918C4.89782 2.4222 3.99485 3.75937 3.57812 5.27527C3.1614 6.79116 3.25398 8.40193 3.84163 9.86011C4.42928 11.3183 5.4795 12.5432 6.83094 13.3468C4.01145 14.2624 1.6292 16.1864 0.1409 18.7499C0.0784761 18.8404 0.035457 18.9429 0.0145464 19.0509C-0.00636421 19.1588 -0.00471435 19.27 0.0193922 19.3773C0.0434988 19.4846 0.0895411 19.5857 0.154626 19.6744C0.219711 19.7631 0.302431 19.8373 0.39759 19.8924C0.492748 19.9476 0.598288 19.9825 0.707576 19.9949C0.816865 20.0073 0.927541 19.997 1.03265 19.9646C1.13776 19.9322 1.23503 19.8784 1.31834 19.8066C1.40166 19.7348 1.46923 19.6465 1.5168 19.5474C2.42846 17.9723 3.73835 16.6646 5.31507 15.7555C6.89179 14.8464 8.6799 14.3678 10.5 14.3678C12.3201 14.3678 14.1082 14.8464 15.6849 15.7555C17.2616 16.6646 18.5715 17.9723 19.4832 19.5474C19.5308 19.6465 19.5983 19.7348 19.6817 19.8066C19.765 19.8784 19.8622 19.9322 19.9673 19.9646C20.0725 19.997 20.1831 20.0073 20.2924 19.9949C20.4017 19.9825 20.5072 19.9476 20.6024 19.8924C20.6976 19.8373 20.7803 19.7631 20.8454 19.6744C20.9105 19.5857 20.9565 19.4846 20.9806 19.3773C21.0047 19.27 21.0064 19.1588 20.9855 19.0509C20.9645 18.9429 20.9215 18.8404 20.8591 18.7499ZM4.91665 7.18604C4.91665 6.08191 5.24411 5.00259 5.85762 4.08454C6.47112 3.1665 7.34312 2.45097 8.36335 2.02844C9.38357 1.60591 10.5062 1.49536 11.5893 1.71076C12.6723 1.92616 13.6672 2.45785 14.448 3.23858C15.2289 4.01931 15.7606 5.01403 15.9761 6.09694C16.1915 7.17984 16.0809 8.30231 15.6583 9.32238C15.2357 10.3425 14.5201 11.2143 13.6019 11.8278C12.6838 12.4412 11.6043 12.7686 10.5 12.7686C9.0192 12.7686 7.59906 12.1804 6.55198 11.1335C5.5049 10.0866 4.91665 8.66662 4.91665 7.18604Z" fill="black"/>
</svg>
