<svg width="111" height="82" viewBox="0 0 111 82" fill="none" xmlns="http://www.w3.org/2000/svg">
<path fill-rule="evenodd" clip-rule="evenodd" d="M10.4612 40.1548C13.1038 29.3744 19.1637 20.2956 28.661 12.9189C38.1588 5.52212 48.3192 1.96792 59.1622 2.25687C69.8243 2.541 78.0715 6.5656 83.9437 14.3519C89.7958 22.1376 91.401 31.4005 88.7584 42.1809C86.1608 52.7813 80.0633 61.7584 70.4851 69.1531C60.9068 76.5477 50.7872 80.0829 40.1252 79.7988L29.2217 79.5082L34.7307 57.1079C37.3489 59.3317 40.7197 60.5087 44.8437 60.6186C50.1747 60.7606 55.2354 58.9629 60.0256 55.2253C64.8359 51.4883 67.8751 46.9793 69.1839 41.6794C70.5378 36.1995 69.7358 31.5479 66.7989 27.6849C63.8614 23.8421 59.727 21.8597 54.3959 21.7177C48.8839 21.5708 43.7841 23.3272 39.0971 26.9669C34.4097 30.6266 31.389 35.1965 30.0557 40.6568C29.9428 41.1168 29.8505 41.5573 29.7784 41.9982L20.5708 79.2978L0.97683 78.7756L10.4612 40.1548Z" fill="white" fill-opacity="0.2"/>
<path fill-rule="evenodd" clip-rule="evenodd" d="M58.9928 36.6366C60.2648 40.274 58.6295 44.9814 54.7644 47.9988C50.2003 51.5612 44.2457 51.4025 41.467 47.6444C38.6878 43.9065 40.1541 37.9866 44.7182 34.4242C46.9587 32.6923 49.5181 31.8344 51.893 31.8574C49.7907 33.6938 49.1714 36.5359 50.5319 38.3639C51.9505 40.2739 54.9882 40.3548 57.3314 38.5451C58.0304 38 58.5918 37.3305 58.9928 36.6366Z" fill="white" fill-opacity="0.2"/>
<path d="M109.179 45.8911L95.0615 33.5938L90.5603 55.1422L109.179 45.8911Z" fill="white" fill-opacity="0.2"/>
</svg>
