<svg width="36" height="43" viewBox="0 0 36 43" fill="none" xmlns="http://www.w3.org/2000/svg">
<path d="M35.7893 18.763L30.3898 10.4386C30.1647 10.0786 29.7598 9.85352 29.3549 9.85352L6.63155 9.85383C6.22665 9.85383 5.82176 10.0789 5.5967 10.4389L0.197162 18.7633C-0.0727704 19.2134 -0.0727701 19.7532 0.242046 20.2034L16.9809 42.2518C17.2059 42.5669 17.5659 42.7468 17.9708 42.7468C18.3757 42.7468 18.7357 42.5669 18.9607 42.2518L35.6995 20.2034C36.0592 19.7529 36.1044 19.2131 35.7893 18.763L35.7893 18.763ZM22.7852 20.698L18.0157 37.0768L13.2461 20.698H22.7852ZM14.1459 18.1779L18.0156 13.1384L21.8853 18.2231H14.1459V18.1779ZM20.5354 12.3286H27.1948L24.2702 17.2332L20.5354 12.3286ZM11.716 17.2332L8.83623 12.3286H15.4957L11.716 17.2332ZM9.42103 18.1779H3.57136L6.63098 13.4532L9.42103 18.1779ZM10.6809 20.698L14.9556 35.457L3.79634 20.698H10.6809ZM25.3499 20.698H32.2344L21.0752 35.412L25.3499 20.698ZM26.6098 18.1779L29.4447 13.4532L32.5043 18.1779H26.6098Z" fill="black"/>
<path d="M18.0138 6.34471C18.6886 6.34471 19.2737 5.80485 19.2737 5.0848V1.25991C19.2737 0.585087 18.7339 0 18.0138 0C17.339 0 16.7539 0.539865 16.7539 1.25991V5.12964C16.7988 5.80446 17.339 6.34463 18.0138 6.34463V6.34471Z" fill="black"/>
<path d="M11.2204 6.56957C11.4002 7.06455 11.8952 7.37935 12.3902 7.37935C12.5252 7.37935 12.6601 7.33447 12.7951 7.28927C13.425 7.06422 13.785 6.34418 13.56 5.71422L12.2553 2.06956C12.0302 1.43962 11.3102 1.07963 10.6802 1.30466C9.9605 1.5749 9.64537 2.29459 9.87043 2.92454L11.2204 6.56957Z" fill="black"/>
<path d="M23.2346 7.2888C23.3695 7.33368 23.5045 7.37888 23.6395 7.37888C24.1344 7.37888 24.6294 7.06375 24.8093 6.5691L26.114 2.92444C26.3391 2.2945 26.024 1.57445 25.3491 1.34939C24.7192 1.12434 23.9991 1.43947 23.7741 2.11429L22.5145 5.66888C22.2446 6.34402 22.6046 7.01886 23.2345 7.28876L23.2346 7.2888Z" fill="black"/>
</svg>
