<svg width="23" height="31" viewBox="0 0 23 31" fill="none" xmlns="http://www.w3.org/2000/svg">
<path d="M9.51428 29.2982L10.9621 29.9187C11.0863 29.96 11.169 30.0013 11.2931 30.0013C11.4173 30.0013 11.4999 29.96 11.6241 29.9187L13.2788 29.2155C19.1942 26.7335 23 21.0248 23 14.613V6.58779C23 6.29828 22.8345 6.00862 22.545 5.84312L11.7482 0.0931169C11.5001 -0.031039 11.2104 -0.031039 10.9622 0.0931169L0.413669 5.88448C0.165495 6.04998 0 6.29815 0 6.62916V14.8198C0 21.0662 3.72302 26.7748 9.51439 29.2982L9.51428 29.2982ZM1.65457 7.08412L11.3758 1.74779L21.3452 7.08412V14.6129C21.3452 20.3629 17.9117 25.4924 12.6582 27.6848L11.3345 28.264L10.2177 27.7677C5.04679 25.5338 1.69607 20.4044 1.69607 14.7785V7.08423L1.65457 7.08412Z" fill="white"/>
<path d="M9.72087 19.2462L10.3414 18.7083L17.5806 12.8342L16.5464 11.5518L9.92771 16.9295L7.07349 13.5788L5.79102 14.6543L9.18317 18.6255L9.72087 19.2462Z" fill="white"/>
</svg>
