<svg width="154" height="157" viewBox="0 0 154 157" fill="none" xmlns="http://www.w3.org/2000/svg">
<path d="M74.4545 21.5416C80.5549 20.5065 86.66 19.4731 92.7652 18.4396C100.612 23.1151 108.461 27.7859 116.304 32.4596C109.961 33.4265 103.623 34.3951 97.2784 35.3667C89.6736 30.7595 82.0641 26.1506 74.4545 21.5416Z" stroke="white" stroke-width="2" stroke-miterlimit="10"/>
<path d="M97.2838 35.3679L83.5305 72.5387L103.601 69.7022L117.335 32.5833" stroke="white" stroke-width="2" stroke-miterlimit="10"/>
<path d="M73.5764 21.4575L59.4265 58.08C49.2305 52.3589 39.0358 46.6489 28.8382 40.9325C35.275 39.9575 41.7182 38.9796 48.155 38.0047C53.3177 40.734 58.482 43.4585 63.6446 46.1877" stroke="white" stroke-width="2" stroke-miterlimit="10"/>
<path d="M27.832 40.8003L17.3193 69.2128L49.2546 87.1907L35.5048 124.352L59.3204 137.971L79.2789 135.436L88.7706 109.783L105.083 119.127L125.29 116.528L135.566 88.7563L103.601 69.7021" stroke="white" stroke-width="2" stroke-miterlimit="10"/>
<path d="M83.0368 72.7155C93.808 78.9653 104.579 85.2152 115.346 91.4633C122.082 90.5616 128.823 89.6618 135.559 88.7602" stroke="white" stroke-width="2" stroke-miterlimit="10"/>
<path d="M115.35 91.4646L105.082 119.127" stroke="white" stroke-width="2" stroke-miterlimit="10"/>
<path d="M88.7696 109.783C83.5609 106.86 78.3569 103.939 73.1465 101.021C68.6463 113.328 64.1432 125.629 59.643 137.936" stroke="white" stroke-width="2" stroke-miterlimit="10"/>
</svg>
