<svg width="16" height="16" viewBox="0 0 16 16" fill="none" xmlns="http://www.w3.org/2000/svg">
<path d="M15.98 4.47226V3.05449C15.9794 2.58582 15.7929 2.13645 15.4615 1.80504C15.1301 1.47363 14.6808 1.28711 14.2122 1.28642H13.0009V0.426626C13.0009 0.313476 12.956 0.204879 12.8759 0.124939C12.796 0.0449989 12.6875 7.06136e-06 12.5744 7.06136e-06H10.4238C10.1882 7.06136e-06 9.99728 0.190954 9.99728 0.426616V1.28655L5.98281 1.28642V0.426619C5.98281 0.313469 5.93782 0.204872 5.85788 0.124932C5.77794 0.0449919 5.66934 0 5.55619 0H3.4057C3.17017 0 2.97909 0.190947 2.97909 0.426609V1.28654L1.76793 1.28641C1.29926 1.28708 0.849892 1.47361 0.518478 1.80502C0.187063 2.13644 0.00068559 2.58581 0 3.05448V13.6698C0.000669513 14.1385 0.187197 14.5877 0.518615 14.9191C0.850029 15.2505 1.29926 15.4369 1.76793 15.4376H14.2124C14.6811 15.4369 15.1303 15.2505 15.4617 14.9191C15.7932 14.5877 15.9795 14.1385 15.9802 13.6698V4.71498C16.0066 4.63611 16.0066 4.55094 15.9802 4.47208L15.98 4.47226ZM10.8504 0.853372H12.1478V1.59186V1.59172C12.1215 1.67059 12.1215 1.75589 12.1478 1.83462V2.50962L10.8505 2.50975L10.8504 0.853372ZM3.83234 0.853372L5.12975 0.853238V2.50976H3.83247L3.83234 0.853372ZM1.76806 2.13978H2.97922V2.93637C2.97922 3.04952 3.02421 3.15798 3.10415 3.23792C3.18423 3.31799 3.29269 3.36285 3.40584 3.36285H5.55633C5.66948 3.36285 5.77808 3.31799 5.85802 3.23792C5.93796 3.15798 5.98295 3.04952 5.98295 2.93637V2.13978H9.99742V2.93637C9.99742 3.04952 10.0423 3.15798 10.1224 3.23792C10.2023 3.31799 10.3108 3.36285 10.4239 3.36285H12.5745C12.6877 3.36285 12.7961 3.31799 12.8761 3.23792C12.9562 3.15798 13.001 3.04952 13.001 2.93637V2.13978H14.2123C14.4548 2.14005 14.6873 2.23659 14.8588 2.40799C15.0303 2.57952 15.1267 2.81211 15.127 3.0546V4.16762H0.853364V3.0546C0.853632 2.8121 0.950043 2.57952 1.12157 2.40799C1.29297 2.23659 1.52556 2.14005 1.76805 2.13978H1.76806ZM14.2125 14.585H1.76806C1.52556 14.5846 1.29312 14.4881 1.12158 14.3166C0.95005 14.1452 0.853639 13.9126 0.853371 13.6701V5.02107H15.127V13.6701C15.1267 13.9126 15.0303 14.1451 14.8588 14.3166C14.6873 14.4881 14.4548 14.5846 14.2123 14.585H14.2125Z" fill="#FF6600"/>
<path d="M7.30224 6.88281H5.68442C5.44888 6.88281 5.25781 7.07389 5.25781 7.30942C5.25781 7.54509 5.44889 7.73603 5.68442 7.73603H7.30224C7.53791 7.73603 7.72885 7.54508 7.72885 7.30942C7.72885 7.07388 7.5379 6.88281 7.30224 6.88281Z" fill="#FF6600"/>
<path d="M4.15105 6.88281H2.65708C2.42154 6.88281 2.23047 7.07389 2.23047 7.30942C2.23047 7.54509 2.42155 7.73603 2.65708 7.73603H4.15105C4.38672 7.73603 4.57766 7.54508 4.57766 7.30942C4.57766 7.07388 4.38671 6.88281 4.15105 6.88281Z" fill="#FF6600"/>
<path d="M10.3312 6.88281H8.71372C8.47805 6.88281 8.28711 7.07389 8.28711 7.30942C8.28711 7.54509 8.47806 7.73603 8.71372 7.73603H10.3313H10.3312C10.5668 7.73603 10.7578 7.54508 10.7578 7.30942C10.7578 7.07388 10.5668 6.88281 10.3312 6.88281H10.3312Z" fill="#FF6600"/>
<path d="M13.3581 6.88281H11.8641C11.6284 6.88281 11.4375 7.07389 11.4375 7.30942C11.4375 7.54509 11.6284 7.73603 11.8641 7.73603H13.3581C13.5936 7.73603 13.7847 7.54508 13.7847 7.30942C13.7847 7.07388 13.5936 6.88281 13.3581 6.88281Z" fill="#FF6600"/>
<path d="M7.30224 9.35645H5.68442C5.44888 9.35645 5.25781 9.54739 5.25781 9.78292C5.25781 10.0186 5.44889 10.2095 5.68442 10.2095H7.30224C7.53791 10.2095 7.72885 10.0186 7.72885 9.78292C7.72885 9.54738 7.5379 9.35645 7.30224 9.35645Z" fill="#FF6600"/>
<path d="M4.15105 9.35645H2.65708C2.42154 9.35645 2.23047 9.54739 2.23047 9.78292C2.23047 10.0186 2.42155 10.2095 2.65708 10.2095H4.15105C4.38672 10.2095 4.57766 10.0186 4.57766 9.78292C4.57766 9.54738 4.38671 9.35645 4.15105 9.35645Z" fill="#FF6600"/>
<path d="M10.3312 9.35645H8.71372C8.47805 9.35645 8.28711 9.54739 8.28711 9.78292C8.28711 10.0186 8.47806 10.2095 8.71372 10.2095H10.3313H10.3312C10.5668 10.2095 10.7578 10.0186 10.7578 9.78292C10.7578 9.54738 10.5668 9.35645 10.3312 9.35645H10.3312Z" fill="#FF6600"/>
<path d="M13.3581 9.3562H11.8641C11.6284 9.3562 11.4375 9.54715 11.4375 9.78267C11.4375 10.0183 11.6284 10.2093 11.8641 10.2093H13.3581C13.5936 10.2093 13.7847 10.0183 13.7847 9.78267C13.7847 9.54713 13.5936 9.3562 13.3581 9.3562Z" fill="#FF6600"/>
<path d="M7.30224 11.8301H5.68442C5.44888 11.8301 5.25781 12.021 5.25781 12.2567C5.25781 12.4922 5.44889 12.6832 5.68442 12.6832H7.30224C7.53791 12.6832 7.72885 12.4922 7.72885 12.2567C7.72885 12.021 7.5379 11.8301 7.30224 11.8301Z" fill="#FF6600"/>
<path d="M4.15105 11.8301H2.65708C2.42154 11.8301 2.23047 12.021 2.23047 12.2567C2.23047 12.4922 2.42155 12.6832 2.65708 12.6832H4.15105C4.38672 12.6832 4.57766 12.4922 4.57766 12.2567C4.57766 12.021 4.38671 11.8301 4.15105 11.8301Z" fill="#FF6600"/>
<path d="M10.3312 11.8301H8.71372C8.47805 11.8301 8.28711 12.021 8.28711 12.2567C8.28711 12.4922 8.47806 12.6832 8.71372 12.6832H10.3313H10.3312C10.5668 12.6832 10.7578 12.4922 10.7578 12.2567C10.7578 12.021 10.5668 11.8301 10.3312 11.8301H10.3312Z" fill="#FF6600"/>
<path d="M13.3581 11.83H11.8641C11.6284 11.83 11.4375 12.0209 11.4375 12.2566C11.4375 12.4921 11.6284 12.683 11.8641 12.683H13.3581C13.5936 12.683 13.7847 12.4921 13.7847 12.2566C13.7847 12.0209 13.5936 11.83 13.3581 11.83Z" fill="#FF6600"/>
</svg>
