<svg width="16" height="10" viewBox="0 0 16 10" fill="none" xmlns="http://www.w3.org/2000/svg">
<path fill-rule="evenodd" clip-rule="evenodd" d="M0 0.535714C0 0.239847 0.252331 0 0.563598 0H9.17412C9.48539 0 9.73772 0.239847 9.73772 0.535714V0.744048H13.088C13.286 0.744048 13.4694 0.842779 13.5713 1.00414L15.9148 4.71683C15.9431 4.75989 15.9651 4.80704 15.9797 4.85713C15.9942 4.90708 16.0008 4.95816 15.9999 5.00878V9.46429C15.9999 9.76015 15.7476 10 15.4363 10H13.8708C13.5595 10 13.3072 9.76015 13.3072 9.46429C13.3072 9.16842 13.5595 8.92857 13.8708 8.92857H14.8727V5.53571H9.73772V8.92857H10.7397C11.0509 8.92857 11.3033 9.16842 11.3033 9.46429C11.3033 9.76015 11.0509 10 10.7397 10H6.04302C5.73175 10 5.47942 9.76015 5.47942 9.46429C5.47942 9.16842 5.73175 8.92857 6.04302 8.92857H8.61052V1.07143H0.563598C0.252331 1.07143 0 0.831581 0 0.535714ZM9.73772 1.81548V4.46429H14.4409L12.7689 1.81548H9.73772ZM0.782775 3.5119C0.782775 3.21604 1.03511 2.97619 1.34637 2.97619H4.47747C4.78874 2.97619 5.04107 3.21604 5.04107 3.5119C5.04107 3.80777 4.78874 4.04762 4.47747 4.04762H1.34637C1.03511 4.04762 0.782775 3.80777 0.782775 3.5119ZM1.34637 5.95238C1.65764 5.95238 1.90997 6.19223 1.90997 6.4881V8.92857H2.91192C3.22319 8.92857 3.47552 9.16842 3.47552 9.46429C3.47552 9.76015 3.22319 10 2.91192 10H1.34637C1.03511 10 0.782775 9.76015 0.782775 9.46429V6.4881C0.782775 6.19223 1.03511 5.95238 1.34637 5.95238Z" fill="white"/>
</svg>
