<svg width="34" height="23" viewBox="0 0 34 23" fill="none" xmlns="http://www.w3.org/2000/svg">
<path d="M24.1791 8.52746e-05C20.6228 8.52746e-05 17.0419 1.59941 14.3796 4.31189C14.1925 4.50099 14.089 4.75628 14.0915 5.02158C14.094 5.28661 14.2026 5.53995 14.3932 5.72516C14.5842 5.91037 14.8413 6.01187 15.1073 6.00742C15.3736 6.00297 15.6274 5.89312 15.8119 5.70207C18.1177 3.35246 21.231 1.99369 24.1794 1.99369C26.8391 1.99369 28.9612 3.04491 30.3306 4.7093C31.7001 6.37341 32.3313 8.67404 31.8372 11.3163C30.8488 16.6006 25.5692 21.0069 20.2497 21.0069C17.3016 21.0069 14.8702 19.6937 13.5219 17.4737C13.2358 17.0026 12.6208 16.8519 12.1482 17.1369C11.9209 17.2732 11.7574 17.4943 11.6934 17.751C11.6298 18.0076 11.6711 18.2788 11.8082 18.5052C13.5341 21.3473 16.6932 23 20.2492 23C26.6434 23 32.6214 17.9982 33.8027 11.6841C34.3931 8.52714 33.6319 5.57994 31.8741 3.44362C30.1163 1.30758 27.3762 0 24.1791 0L24.1791 8.52746e-05ZM23.2548 3.93429C22.7613 3.92177 22.3323 4.26994 22.2446 4.75385L20.8474 12.2133C20.7687 12.6474 20.9859 13.0812 21.3809 13.2801L25.1463 15.2014C25.3833 15.3237 25.6594 15.3465 25.9131 15.2651C26.1671 15.1836 26.3778 15.0045 26.4984 14.7673C26.7488 14.2776 26.5537 13.6785 26.0627 13.428L22.9538 11.8454L24.2161 5.11389C24.2647 4.8536 24.2069 4.5844 24.0559 4.36637C23.9049 4.14835 23.6729 3.99929 23.4111 3.95174C23.3594 3.942 23.3072 3.93589 23.2547 3.93422L23.2548 3.93429ZM2.51873 6.46103C2.25355 6.46019 1.99868 6.5642 1.81025 6.75024C1.62183 6.93656 1.51547 7.18963 1.51436 7.45382C1.51324 7.71967 1.61876 7.97468 1.80747 8.16267C1.99589 8.35038 2.25215 8.45551 2.51873 8.4544H12.4512C12.7181 8.45551 12.9741 8.35039 13.1625 8.16267C13.3512 7.97468 13.4567 7.71967 13.4556 7.45382C13.4545 7.18963 13.3481 6.93656 13.16 6.75024C12.9716 6.5642 12.7167 6.46019 12.4512 6.46103H2.51873ZM5.33841 10.5061C5.07266 10.5053 4.81751 10.6096 4.62909 10.7962C4.44067 10.9828 4.33459 11.2364 4.33403 11.5009C4.33515 11.7653 4.4415 12.0184 4.62993 12.2047C4.81835 12.3908 5.07321 12.4948 5.33841 12.4937H15.2802C15.8298 12.4917 16.2745 12.0484 16.2767 11.5009C16.2756 10.9528 15.8304 10.5084 15.2802 10.5061L5.33841 10.5061ZM1.00438 14.5454C0.737796 14.5446 0.481541 14.6497 0.293117 14.8374C0.104415 15.0254 -0.00110606 15.2804 8.74429e-06 15.546C0.00112534 15.8105 0.107481 16.0635 0.295904 16.2499C0.484328 16.4359 0.73919 16.5399 1.00438 16.5388H10.9447C11.4944 16.5368 11.9393 16.0936 11.9413 15.546C11.9424 15.2818 11.838 15.0279 11.651 14.8402C11.4642 14.6525 11.2102 14.5466 10.9447 14.5454L1.00438 14.5454Z" fill="white"/>
</svg>
