<svg width="41" height="41" viewBox="0 0 41 41" fill="none" xmlns="http://www.w3.org/2000/svg">
<path fill-rule="evenodd" clip-rule="evenodd" d="M20.5 26.0805C19.0198 26.0805 17.6 25.4921 16.5535 24.4456C15.5069 23.3987 14.9189 21.979 14.9192 20.4988C14.9192 19.0186 15.5075 17.5987 16.5541 16.5522C17.601 15.5057 19.0207 14.9177 20.5009 14.9179C21.9811 14.9179 23.401 15.506 24.4475 16.5528C25.494 17.5997 26.0821 19.0194 26.0818 20.4997C26.08 21.9793 25.4911 23.3979 24.4449 24.4442C23.3983 25.4905 21.9797 26.0791 20.5 26.0805ZM23.847 0H17.154C16.7642 0.00722754 16.389 0.149752 16.0927 0.403297C15.7963 0.656841 15.5974 1.0055 15.5301 1.38941L14.9062 4.93583C14.4124 5.11421 13.9278 5.31485 13.4528 5.53832L10.5026 3.47181V3.47209C10.1788 3.24515 9.78529 3.13963 9.39151 3.17403C8.99746 3.20844 8.62831 3.38046 8.3487 3.66001L3.66148 8.34753C3.38163 8.6268 3.20932 8.99598 3.17463 9.39004C3.14023 9.78379 3.24546 10.1773 3.4724 10.5014L5.53951 13.4516C5.31575 13.9269 5.11482 14.4115 4.93645 14.905L1.39031 15.5289C1.00089 15.5974 0.647917 15.8009 0.393469 16.1039C0.139058 16.4072 -0.000288193 16.7899 4.47514e-07 17.1857V23.814C4.47514e-07 24.2095 0.139347 24.5923 0.393758 24.8952C0.64788 25.1982 1.00087 25.4017 1.39031 25.4702L4.93644 26.0941C5.11482 26.5873 5.31574 27.0719 5.53951 27.5474L3.4724 30.4977C3.24545 30.8215 3.14022 31.2153 3.17462 31.6091C3.20932 32.0031 3.38162 32.3722 3.66147 32.6516L8.34781 37.3391C8.62737 37.6186 8.99655 37.7907 9.39061 37.8251C9.78437 37.8595 10.1779 37.7539 10.5017 37.527L13.4513 35.4605C13.9266 35.6848 14.4112 35.8857 14.905 36.063L15.5289 39.61H15.5292C15.5977 39.9997 15.8015 40.3527 16.1045 40.6068C16.4074 40.8612 16.7905 41.0003 17.186 41H23.8148C24.21 41 24.5928 40.8607 24.8955 40.6065C25.1985 40.3524 25.402 39.9997 25.4708 39.6106L26.0947 36.0636C26.5879 35.8852 27.0724 35.6846 27.548 35.4611L30.4983 37.5276C30.8221 37.7545 31.2153 37.8601 31.6091 37.8257C32.0031 37.7912 32.372 37.6189 32.6516 37.3394L37.3385 32.6522C37.6186 32.3726 37.7909 32.0034 37.8253 31.6097C37.86 31.2156 37.7542 30.8221 37.527 30.4983L35.4611 27.548C35.6854 27.0728 35.8863 26.5882 36.0641 26.0947L39.6103 25.4708H39.61C39.9997 25.402 40.3524 25.1985 40.6068 24.8955C40.8609 24.5922 41.0003 24.2095 41 23.814V17.1857C41 16.7902 40.8607 16.4074 40.6065 16.1045C40.3524 15.8018 39.9994 15.5983 39.61 15.5298L36.0638 14.9059C35.8855 14.4127 35.6845 13.9281 35.4608 13.4525L37.5267 10.5023H37.527C37.7542 10.1785 37.8597 9.78501 37.8253 9.39094C37.7909 8.99689 37.6183 8.62774 37.3385 8.34843L32.6522 3.66062C32.3726 3.38106 32.0034 3.20875 31.6096 3.17435C31.2159 3.13995 30.8224 3.24547 30.4986 3.47241L27.5483 5.53893C27.073 5.31459 26.5885 5.11366 26.095 4.93586L25.4711 1.38974V1.39002C25.4037 1.00581 25.2045 0.657153 24.9082 0.403616C24.6119 0.150072 24.2366 0.00725396 23.8469 3.05619e-05L23.847 0ZM20.5 11.5552C18.1276 11.5552 15.8527 12.4977 14.175 14.175C12.4977 15.8527 11.5552 18.1276 11.5552 20.5C11.5552 22.8724 12.4977 25.1474 14.175 26.825C15.8527 28.5024 18.1276 29.4448 20.5 29.4448C22.8724 29.4448 25.1474 28.5024 26.825 26.825C28.5024 25.1474 29.4449 22.8724 29.4449 20.5C29.4423 18.1285 28.4992 15.8547 26.8221 14.1779C25.1453 12.5008 22.8715 11.5578 20.5 11.5551L20.5 11.5552ZM37.6371 22.4022V18.597L34.4845 18.0416C34.1742 17.9873 33.8857 17.8468 33.6515 17.636C33.4176 17.4253 33.2474 17.1532 33.1609 16.8505C32.888 15.9046 32.5093 14.9927 32.032 14.1319C31.8793 13.8563 31.8073 13.5432 31.8241 13.2287C31.8406 12.9142 31.9455 12.6103 32.1265 12.3524L33.9632 9.72943L31.2727 7.0382L28.6499 8.87602C28.3912 9.057 28.0871 9.16194 27.772 9.17842C27.4568 9.1949 27.1432 9.12262 26.867 8.96969C26.0064 8.49267 25.0943 8.1142 24.1486 7.84162C23.8462 7.75431 23.5742 7.58403 23.3635 7.34986C23.153 7.11569 23.0122 6.82716 22.9576 6.51725L22.4031 3.36286H18.5973L18.0425 6.51554C17.9876 6.82546 17.8471 7.11398 17.6366 7.34816C17.4258 7.58234 17.1538 7.75261 16.8511 7.83992C15.9055 8.11283 14.9936 8.49127 14.1327 8.96769C13.8572 9.12033 13.5441 9.19261 13.2296 9.17613C12.915 9.15965 12.6112 9.055 12.3533 8.87431L9.7303 7.03649L7.03936 9.72772L8.87689 12.3507H8.8766C9.05757 12.6089 9.16223 12.9124 9.17871 13.227C9.19519 13.5418 9.12291 13.8546 8.97026 14.1301C8.49353 14.9911 8.11507 15.9032 7.8419 16.8485C7.75488 17.1512 7.5846 17.4233 7.35072 17.6337C7.11654 17.8445 6.82802 17.985 6.5178 18.0393L3.36341 18.597V22.4025L6.5161 22.9578V22.9576C6.82631 23.0122 7.11483 23.153 7.34901 23.3634C7.58319 23.5742 7.75347 23.8462 7.84049 24.1489C8.11369 25.0943 8.49184 26.0064 8.96855 26.8673C9.1212 27.1428 9.19348 27.4556 9.177 27.7702C9.16051 28.0847 9.05586 28.3883 8.87489 28.6465L7.03765 31.2712L9.7286 33.9625L12.3516 32.1249V32.1252C12.6095 31.9442 12.913 31.8396 13.2279 31.8231C13.5424 31.8066 13.8555 31.8789 14.131 32.0316C14.992 32.5086 15.9038 32.8867 16.8494 33.1596C17.1521 33.2466 17.4242 33.4172 17.6346 33.6514C17.8454 33.8856 17.9859 34.1741 18.0405 34.4843L18.5953 37.6361H22.4011L22.9564 34.484H22.9567C23.0114 34.1738 23.1519 33.8853 23.3626 33.6511C23.5731 33.4169 23.8451 33.2466 24.1478 33.1596C25.0937 32.887 26.0056 32.5085 26.8662 32.031C27.1423 31.878 27.456 31.8057 27.7711 31.8225C28.0862 31.839 28.3904 31.9439 28.6488 32.1252L31.2716 33.9627L33.962 31.2715L32.1254 28.6487L32.1257 28.6484C31.9447 28.3905 31.8397 28.087 31.8233 27.7724C31.8065 27.4576 31.8785 27.1448 32.0311 26.869C32.5084 26.0074 32.8871 25.0948 33.1601 24.1482C33.2471 23.8455 33.4174 23.5735 33.6516 23.3631C33.8857 23.1526 34.1742 23.0121 34.4845 22.9574L37.6371 22.4022Z" fill="#FF6600"/>
</svg>
