<svg width="35" height="35" viewBox="0 0 35 35" fill="none" xmlns="http://www.w3.org/2000/svg">
<path d="M7.15909 11.1364H7.95455V11.9318C7.95455 12.3538 8.12216 12.7584 8.42051 13.0568C8.71887 13.3551 9.12352 13.5227 9.54545 13.5227C9.96739 13.5227 10.372 13.3551 10.6704 13.0568C10.9688 12.7584 11.1364 12.3538 11.1364 11.9318V11.1364H11.9318C12.3538 11.1364 12.7584 10.9688 13.0568 10.6704C13.3551 10.372 13.5227 9.96739 13.5227 9.54545C13.5227 9.12352 13.3551 8.71887 13.0568 8.42051C12.7584 8.12216 12.3538 7.95455 11.9318 7.95455H11.1364V7.15909C11.1364 6.73716 10.9688 6.3325 10.6704 6.03415C10.372 5.7358 9.96739 5.56818 9.54545 5.56818C9.12352 5.56818 8.71887 5.7358 8.42051 6.03415C8.12216 6.3325 7.95455 6.73716 7.95455 7.15909V7.95455H7.15909C6.73716 7.95455 6.3325 8.12216 6.03415 8.42051C5.7358 8.71887 5.56818 9.12352 5.56818 9.54545C5.56818 9.96739 5.7358 10.372 6.03415 10.6704C6.3325 10.9688 6.73716 11.1364 7.15909 11.1364ZM6.17273 28.8273C6.4708 29.1236 6.87402 29.2899 7.29432 29.2899C7.71461 29.2899 8.11783 29.1236 8.41591 28.8273L9.54545 27.6977L10.675 28.8273C10.9731 29.1236 11.3763 29.2899 11.7966 29.2899C12.2169 29.2899 12.6201 29.1236 12.9182 28.8273C13.2145 28.5292 13.3808 28.126 13.3808 27.7057C13.3808 27.2854 13.2145 26.8822 12.9182 26.5841L11.7886 25.4545L12.9182 24.325C13.1788 24.0207 13.315 23.6292 13.2995 23.2288C13.2841 22.8284 13.1181 22.4486 12.8348 22.1652C12.5514 21.8819 12.1716 21.7159 11.7712 21.7005C11.3708 21.685 10.9793 21.8212 10.675 22.0818L9.54545 23.2114L8.41591 22.0818C8.11157 21.8212 7.72008 21.685 7.31969 21.7005C6.91929 21.7159 6.53948 21.8819 6.25615 22.1652C5.97282 22.4486 5.80683 22.8284 5.79137 23.2288C5.7759 23.6292 5.91209 24.0207 6.17273 24.325L7.30227 25.4545L6.17273 26.5841C5.87642 26.8822 5.7101 27.2854 5.7101 27.7057C5.7101 28.126 5.87642 28.5292 6.17273 28.8273ZM30.2273 0H4.77273C3.50692 0 2.29296 0.502839 1.3979 1.3979C0.502839 2.29296 0 3.50692 0 4.77273V30.2273C0 31.4931 0.502839 32.707 1.3979 33.6021C2.29296 34.4972 3.50692 35 4.77273 35H30.2273C31.4931 35 32.707 34.4972 33.6021 33.6021C34.4972 32.707 35 31.4931 35 30.2273V4.77273C35 3.50692 34.4972 2.29296 33.6021 1.3979C32.707 0.502839 31.4931 0 30.2273 0ZM15.9091 31.8182H4.77273C4.35079 31.8182 3.94614 31.6506 3.64778 31.3522C3.34943 31.0539 3.18182 30.6492 3.18182 30.2273V19.0909H15.9091V31.8182ZM15.9091 15.9091H3.18182V4.77273C3.18182 4.35079 3.34943 3.94614 3.64778 3.64778C3.94614 3.34943 4.35079 3.18182 4.77273 3.18182H15.9091V15.9091ZM31.8182 30.2273C31.8182 30.6492 31.6506 31.0539 31.3522 31.3522C31.0539 31.6506 30.6492 31.8182 30.2273 31.8182H19.0909V19.0909H31.8182V30.2273ZM31.8182 15.9091H19.0909V3.18182H30.2273C30.6492 3.18182 31.0539 3.34943 31.3522 3.64778C31.6506 3.94614 31.8182 4.35079 31.8182 4.77273V15.9091ZM23.0682 24.6591H27.8409C28.2628 24.6591 28.6675 24.4915 28.9659 24.1931C29.2642 23.8948 29.4318 23.4901 29.4318 23.0682C29.4318 22.6462 29.2642 22.2416 28.9659 21.9432C28.6675 21.6449 28.2628 21.4773 27.8409 21.4773H23.0682C22.6462 21.4773 22.2416 21.6449 21.9432 21.9432C21.6449 22.2416 21.4773 22.6462 21.4773 23.0682C21.4773 23.4901 21.6449 23.8948 21.9432 24.1931C22.2416 24.4915 22.6462 24.6591 23.0682 24.6591ZM27.8409 7.95455H23.0682C22.6462 7.95455 22.2416 8.12216 21.9432 8.42051C21.6449 8.71887 21.4773 9.12352 21.4773 9.54545C21.4773 9.96739 21.6449 10.372 21.9432 10.6704C22.2416 10.9688 22.6462 11.1364 23.0682 11.1364H27.8409C28.2628 11.1364 28.6675 10.9688 28.9659 10.6704C29.2642 10.372 29.4318 9.96739 29.4318 9.54545C29.4318 9.12352 29.2642 8.71887 28.9659 8.42051C28.6675 8.12216 28.2628 7.95455 27.8409 7.95455ZM23.0682 29.4318H27.8409C28.2628 29.4318 28.6675 29.2642 28.9659 28.9659C29.2642 28.6675 29.4318 28.2628 29.4318 27.8409C29.4318 27.419 29.2642 27.0143 28.9659 26.716C28.6675 26.4176 28.2628 26.25 27.8409 26.25H23.0682C22.6462 26.25 22.2416 26.4176 21.9432 26.716C21.6449 27.0143 21.4773 27.419 21.4773 27.8409C21.4773 28.2628 21.6449 28.6675 21.9432 28.9659C22.2416 29.2642 22.6462 29.4318 23.0682 29.4318Z" fill="#FF6600"/>
</svg>
