<svg width="26" height="24" viewBox="0 0 26 24" fill="none" xmlns="http://www.w3.org/2000/svg">
<path d="M5.19987 5.78837e-05C4.85733 0.0111435 4.55788 0.356597 4.54992 0.648653V7.78384H0.649948C0.298329 7.79221 0.00795096 8.14038 0 8.43244V21.0812C0 22.687 1.3158 24 2.92491 24H23.0751C24.6843 24 26 22.6869 26 21.0812V0.648595C26 0.30902 25.6903 0 25.35 0L5.19987 5.78837e-05ZM5.84982 1.29725H24.7V21.0812C24.7 21.9909 23.9865 22.7028 23.075 22.7028H5.28106C5.60979 22.2309 5.84987 21.6965 5.84987 21.0812L5.84982 1.29725ZM8.4499 3.24332C8.10576 3.24423 7.8079 3.59986 7.79995 3.89192V8.43238C7.79995 8.77195 8.10963 9.08097 8.4499 9.08097H14.95C15.2902 9.08097 15.5999 8.77194 15.5999 8.43238V3.89192C15.5999 3.55234 15.2902 3.24332 14.95 3.24332H8.4499ZM17.55 3.89192C17.1909 3.89192 16.9 4.1824 16.9 4.54052C16.9 4.89887 17.1911 5.18911 17.55 5.18911H22.0999C22.459 5.18911 22.7499 4.89863 22.7499 4.54052C22.7499 4.18216 22.4588 3.89192 22.0999 3.89192H17.55ZM9.09991 4.54052H14.3001V7.78378H9.09991V4.54052ZM17.55 7.13519C17.1909 7.13519 16.9 7.42567 16.9 7.78378C16.9 8.14213 17.1911 8.43238 17.55 8.43238H22.0999C22.459 8.43238 22.7499 8.1419 22.7499 7.78378C22.7499 7.42543 22.4588 7.13519 22.0999 7.13519H17.55ZM1.29984 9.08126H4.54987V21.0814C4.54987 21.991 3.83643 22.703 2.92485 22.703C2.01328 22.703 1.29984 21.991 1.29984 21.0814V9.08126ZM8.4499 11.0273C8.0908 11.0273 7.79995 11.3178 7.79995 11.6759C7.79995 12.0343 8.09104 12.3245 8.4499 12.3245H22.1C22.4591 12.3245 22.75 12.034 22.75 11.6759C22.75 11.3176 22.4589 11.0273 22.1 11.0273H8.4499ZM8.4499 14.595C8.0908 14.595 7.79995 14.8855 7.79995 15.2436C7.79995 15.602 8.09104 15.8922 8.4499 15.8922H22.1C22.4591 15.8922 22.75 15.6018 22.75 15.2436C22.75 14.8853 22.4589 14.595 22.1 14.595H8.4499ZM8.4499 18.1628C8.0908 18.1628 7.79995 18.4532 7.79995 18.8114C7.79995 19.1697 8.09104 19.4599 8.4499 19.4599H22.1C22.4591 19.4599 22.75 19.1695 22.75 18.8114C22.75 18.453 22.4589 18.1628 22.1 18.1628H8.4499Z" fill="white"/>
</svg>
