<svg width="13" height="14" viewBox="0 0 13 14" fill="none" xmlns="http://www.w3.org/2000/svg">
<path d="M1.35417 14C0.981771 14 0.66309 13.863 0.398125 13.5891C0.132708 13.3147 0 12.985 0 12.6V1.4C0 1.015 0.132708 0.6853 0.398125 0.4109C0.66309 0.136967 0.981771 0 1.35417 0H6.21224C6.3928 0 6.565 0.0350001 6.72885 0.105C6.89226 0.175 7.03602 0.274167 7.16016 0.4025L10.444 3.7975C10.5681 3.92583 10.6641 4.07447 10.7318 4.2434C10.7995 4.4128 10.8333 4.59083 10.8333 4.7775V7H9.47917V4.9H6.77083C6.57899 4.9 6.4183 4.8328 6.28875 4.6984C6.15875 4.56447 6.09375 4.39833 6.09375 4.2V1.4H1.35417V12.6H5.41667V14H1.35417ZM1.35417 12.6V1.4V12.6ZM9.68229 8.7675L10.4102 9.52L7.78646 12.215V12.95H8.4974L11.1211 10.255L11.832 10.99L9.1237 13.79C9.05599 13.86 8.9797 13.9125 8.89484 13.9475C8.81043 13.9825 8.72309 14 8.63281 14H7.10938C7.0191 14 6.9401 13.965 6.8724 13.895C6.80469 13.825 6.77083 13.7433 6.77083 13.65V12.075C6.77083 11.9817 6.78776 11.8914 6.82161 11.8041C6.85547 11.7164 6.90625 11.6375 6.97396 11.5675L9.68229 8.7675ZM11.832 10.99L9.68229 8.7675L10.6641 7.7525C10.7882 7.62417 10.9462 7.56 11.138 7.56C11.3299 7.56 11.4878 7.62417 11.612 7.7525L12.8138 8.995C12.9379 9.12333 13 9.28667 13 9.485C13 9.68333 12.9379 9.84667 12.8138 9.975L11.832 10.99Z" fill="white"/>
</svg>
