<svg width="26" height="26" viewBox="0 0 26 26" fill="none" xmlns="http://www.w3.org/2000/svg">
<path d="M25.4972 23.0673L15.4299 13L25.4972 2.93268C26.1676 2.26233 26.1676 1.17314 25.4972 0.502762C24.8269 -0.167587 23.7377 -0.167587 23.0673 0.502762L13 10.5701L2.93268 0.502762C2.26233 -0.167587 1.17314 -0.167587 0.502762 0.502762C-0.167587 1.17311 -0.167587 2.2623 0.502762 2.93268L10.5701 13L0.502762 23.0673C-0.167587 23.7377 -0.167587 24.8269 0.502762 25.4972C1.17311 26.1676 2.2623 26.1676 2.93268 25.4972L13 15.4299L23.0673 25.4972C23.7377 26.1676 24.8269 26.1676 25.4972 25.4972C26.1676 24.8269 26.1676 23.7377 25.4972 23.0673Z" fill="black"/>
</svg>
