<svg width="38" height="29" viewBox="0 0 38 29" fill="none" xmlns="http://www.w3.org/2000/svg">
<path d="M37.7195 15.0975L31.8733 7.12245C31.598 6.7472 31.1585 6.52522 30.6911 6.52522H24.8452V1.45042C24.8452 0.649707 24.1907 0.000330325 23.3836 0.000330325L1.46158 0C0.654525 0 0 0.649419 0 1.45009V23.9253C0 24.726 0.654568 25.3754 1.46158 25.3754H4.45072C4.80032 27.4297 6.60091 29 8.76934 29C10.9378 29 12.7383 27.429 13.0879 25.3754H25.6428C25.9924 27.4297 27.793 29 29.9615 29C32.1296 29 33.9304 27.429 34.2801 25.3754H36.5384C37.3455 25.3754 38 24.726 38 23.9253L37.9997 15.9506C37.999 15.6437 37.9015 15.3454 37.7197 15.0976L37.7195 15.0975ZM33.1356 13.7752H29.2298V9.42544H29.947L33.1356 13.7752ZM21.9231 2.90038V15.9502H2.92368V2.90038H21.9231ZM8.76985 26.1003C7.96379 26.1003 7.30826 25.4499 7.30826 24.6502C7.30826 23.8505 7.96383 23.2001 8.76985 23.2001C9.5759 23.2001 10.2314 23.8505 10.2314 24.6502C10.2311 25.4499 9.57553 26.1003 8.76985 26.1003ZM12.5608 22.4753C11.8013 21.1771 10.388 20.3001 8.76925 20.3001C7.15084 20.3001 5.73715 21.1771 4.97772 22.4753H2.92317V18.8507H21.9226V22.4753H12.5608ZM29.9612 26.1003C29.1551 26.1003 28.4996 25.4499 28.4996 24.6502C28.4996 23.8505 29.1552 23.2001 29.9612 23.2001C30.7673 23.2001 31.4228 23.8505 31.4228 24.6502C31.4228 25.4499 30.7672 26.1003 29.9612 26.1003ZM33.7524 22.4753C32.9929 21.1771 31.5796 20.3001 29.9609 20.3001C28.3424 20.3001 26.9288 21.1771 26.1693 22.4753H24.8456L24.8459 9.42553H26.3075V15.2254C26.3075 16.0261 26.9621 16.6755 27.7691 16.6755H35.0765V22.4753H33.7524Z" fill="black"/>
</svg>
