<svg width="21" height="17" viewBox="0 0 21 17" fill="none" xmlns="http://www.w3.org/2000/svg">
<path d="M2.1 17C1.5225 17 1.0283 16.7921 0.6174 16.3763C0.2058 15.9598 0 15.4594 0 14.875V2.125C0 1.54062 0.2058 1.04054 0.6174 0.62475C1.0283 0.20825 1.5225 0 2.1 0H18.9C19.4775 0 19.972 0.20825 20.3836 0.62475C20.7945 1.04054 21 1.54062 21 2.125V14.875C21 15.4594 20.7945 15.9598 20.3836 16.3763C19.972 16.7921 19.4775 17 18.9 17H2.1ZM10.5 9.37656C10.5875 9.37656 10.6792 9.3631 10.7751 9.33619C10.8717 9.30998 10.9637 9.27031 11.0512 9.21719L18.48 4.51562C18.62 4.42708 18.725 4.31658 18.795 4.18413C18.865 4.05096 18.9 3.90469 18.9 3.74531C18.9 3.39115 18.7512 3.12552 18.4538 2.94844C18.1562 2.77135 17.85 2.78021 17.535 2.975L10.5 7.4375L3.465 2.975C3.15 2.78021 2.84375 2.7756 2.54625 2.96119C2.24875 3.14748 2.1 3.40885 2.1 3.74531C2.1 3.9224 2.135 4.07717 2.205 4.20962C2.275 4.34279 2.38 4.44479 2.52 4.51562L9.94875 9.21719C10.0363 9.27031 10.1283 9.30998 10.2249 9.33619C10.3208 9.3631 10.4125 9.37656 10.5 9.37656Z" fill="black"/>
</svg>
