<svg width="24" height="29" viewBox="0 0 24 29" fill="none" xmlns="http://www.w3.org/2000/svg">
<path d="M1.58667 4.36413C0.626667 4.78957 0 5.74682 0 6.79713V13.0458C0 20.4246 5.12 27.3248 12 29C18.88 27.3248 24 20.4246 24 13.0458V6.79713C24 5.74682 23.3733 4.78957 22.4133 4.36413L13.08 0.229341C12.3867 -0.076447 11.6 -0.076447 10.92 0.229341L1.58667 4.36413ZM12 7.72779C12.7333 7.72779 13.3333 8.32607 13.3333 9.05731C13.3333 9.78854 12.7333 10.3868 12 10.3868C11.2667 10.3868 10.6667 9.78854 10.6667 9.05731C10.6667 8.32607 11.2667 7.72779 12 7.72779ZM12 13.0458C12.7333 13.0458 13.3333 13.6441 13.3333 14.3754V19.6934C13.3333 20.4246 12.7333 21.0229 12 21.0229C11.2667 21.0229 10.6667 20.4246 10.6667 19.6934V14.3754C10.6667 13.6441 11.2667 13.0458 12 13.0458Z" fill="black"/>
</svg>
