<svg width="26" height="26" viewBox="0 0 26 26" fill="none" xmlns="http://www.w3.org/2000/svg">
<path d="M13 26C20.1805 26 26 20.1805 26 13C26 5.81953 20.1805 0 13 0C5.81953 0 0 5.81953 0 13C0 20.1805 5.81953 26 13 26ZM8.62266 8.39414C9.02383 7.26172 10.1004 6.5 11.3039 6.5H14.2645C16.0367 6.5 17.4688 7.93711 17.4688 9.7043C17.4688 10.852 16.8543 11.9133 15.859 12.4871L14.2188 13.4266C14.2086 14.0867 13.6652 14.625 13 14.625C12.3246 14.625 11.7812 14.0816 11.7812 13.4063V12.7207C11.7812 12.284 12.0148 11.8828 12.3957 11.6645L14.6453 10.3746C14.884 10.2375 15.0313 9.98359 15.0313 9.70938C15.0313 9.28281 14.6859 8.94258 14.2645 8.94258H11.3039C11.1313 8.94258 10.9789 9.04922 10.923 9.21172L10.9027 9.27266C10.6793 9.90742 9.97852 10.2375 9.34883 10.0141C8.71914 9.79062 8.38398 9.08984 8.60742 8.46016L8.62773 8.39922L8.62266 8.39414ZM14.625 17.875C14.625 18.7738 13.8988 19.5 13 19.5C12.1012 19.5 11.375 18.7738 11.375 17.875C11.375 16.9762 12.1012 16.25 13 16.25C13.8988 16.25 14.625 16.9762 14.625 17.875Z" fill="black"/>
</svg>
