<svg width="18" height="14" viewBox="0 0 18 14" fill="none" xmlns="http://www.w3.org/2000/svg">
<path d="M16.9122 7.36429L14.3445 3.75799C14.2235 3.5883 14.0305 3.48792 13.8252 3.48792H11.2576V1.19311C11.2576 0.831027 10.9701 0.537381 10.6157 0.537381L0.987166 0.537231C0.632693 0.537231 0.345215 0.830897 0.345215 1.19296V11.3562C0.345215 11.7183 0.632711 12.0119 0.987166 12.0119H2.30004C2.45359 12.9409 3.24444 13.651 4.19684 13.651C5.14925 13.651 5.94008 12.9405 6.09365 12.0119H11.608C11.7615 12.9409 12.5523 13.651 13.5048 13.651C14.457 13.651 15.248 12.9405 15.4016 12.0119H16.3935C16.7479 12.0119 17.0354 11.7182 17.0354 11.3562L17.0353 7.75003C17.035 7.61126 16.9921 7.47638 16.9123 7.36435L16.9122 7.36429ZM14.8989 6.76634H13.1834V4.79939H13.4984L14.8989 6.76634ZM9.97418 1.84878V7.74986H1.62934V1.84878H9.97418ZM4.19707 12.3397C3.84304 12.3397 3.55512 12.0456 3.55512 11.684C3.55512 11.3224 3.84305 11.0283 4.19707 11.0283C4.5511 11.0283 4.83902 11.3224 4.83902 11.684C4.83887 12.0456 4.55094 12.3397 4.19707 12.3397ZM5.8621 10.7005C5.52854 10.1135 4.90779 9.71688 4.19681 9.71688C3.48597 9.71688 2.86506 10.1135 2.53151 10.7005H1.62912V9.06146H9.97395V10.7005H5.8621ZM13.5046 12.3397C13.1506 12.3397 12.8627 12.0456 12.8627 11.684C12.8627 11.3224 13.1506 11.0283 13.5046 11.0283C13.8587 11.0283 14.1466 11.3224 14.1466 11.684C14.1466 12.0456 13.8587 12.3397 13.5046 12.3397ZM15.1698 10.7005C14.8362 10.1135 14.2155 9.71688 13.5045 9.71688C12.7937 9.71688 12.1727 10.1135 11.8392 10.7005H11.2578L11.2579 4.79943H11.8999V7.42211C11.8999 7.78419 12.1874 8.07783 12.5418 8.07783H15.7514V10.7005H15.1698Z" fill="white"/>
</svg>
