<svg width="13" height="23" viewBox="0 0 13 23" fill="none" xmlns="http://www.w3.org/2000/svg">
<path fill-rule="evenodd" clip-rule="evenodd" d="M7.73325 1.80136C7.73325 1.47985 7.60331 1.17151 7.37202 0.944171C7.14072 0.71683 6.82702 0.589111 6.49992 0.589111C6.17282 0.589111 5.85912 0.71683 5.62782 0.944171C5.39653 1.17151 5.26659 1.47985 5.26659 1.80136V3.01361C3.95818 3.01361 2.70337 3.52449 1.77819 4.43385C0.853012 5.34322 0.333252 6.57658 0.333252 7.86261C0.333252 9.14865 0.853012 10.382 1.77819 11.2914C2.70337 12.2007 3.95818 12.7116 5.26659 12.7116V17.5606C4.7564 17.5607 4.25873 17.4053 3.84206 17.116C3.4254 16.8266 3.11022 16.4174 2.9399 15.9447C2.82671 15.6471 2.59921 15.4051 2.30635 15.2708C2.01348 15.1364 1.67866 15.1204 1.37391 15.2262C1.06916 15.332 0.818846 15.5512 0.676815 15.8365C0.534785 16.1219 0.512391 16.4506 0.614452 16.752C0.954733 17.6975 1.58479 18.5161 2.41791 19.0951C3.25103 19.6741 4.24625 19.985 5.26659 19.9851V21.1974C5.26659 21.5189 5.39653 21.8272 5.62782 22.0546C5.85912 22.2819 6.17282 22.4096 6.49992 22.4096C6.82702 22.4096 7.14072 22.2819 7.37202 22.0546C7.60331 21.8272 7.73325 21.5189 7.73325 21.1974V19.9851C9.04165 19.9851 10.2965 19.4742 11.2216 18.5649C12.1468 17.6555 12.6666 16.4222 12.6666 15.1361C12.6666 13.8501 12.1468 12.6167 11.2216 11.7074C10.2965 10.798 9.04165 10.2871 7.73325 10.2871V5.43811C8.24344 5.43804 8.74111 5.59338 9.15777 5.88277C9.57444 6.17215 9.88962 6.58135 10.0599 7.05404C10.1731 7.3516 10.4006 7.59359 10.6935 7.72796C10.9864 7.86233 11.3212 7.87834 11.6259 7.77253C11.9307 7.66673 12.181 7.44757 12.323 7.16222C12.4651 6.87686 12.4874 6.5481 12.3854 6.24668C12.0451 5.30121 11.415 4.48264 10.5819 3.90365C9.7488 3.32466 8.75359 3.01372 7.73325 3.01361V1.80136ZM5.26659 5.43811C4.61239 5.43811 3.98498 5.69355 3.52239 6.14823C3.0598 6.60292 2.79992 7.2196 2.79992 7.86261C2.79992 8.50563 3.0598 9.12231 3.52239 9.577C3.98498 10.0317 4.61239 10.2871 5.26659 10.2871V5.43811ZM7.73325 12.7116V17.5606C8.38745 17.5606 9.01486 17.3052 9.47745 16.8505C9.94004 16.3958 10.1999 15.7791 10.1999 15.1361C10.1999 14.4931 9.94004 13.8764 9.47745 13.4217C9.01486 12.9671 8.38745 12.7116 7.73325 12.7116Z" fill="white"/>
</svg>
