<svg width="56" height="42" viewBox="0 0 56 42" fill="none" xmlns="http://www.w3.org/2000/svg">
<path fill-rule="evenodd" clip-rule="evenodd" d="M4.49542 21.1334C5.74772 15.3643 8.841 10.4515 13.786 6.39488C18.7309 2.32759 24.0826 0.293945 29.8517 0.293945C35.5245 0.293945 39.9664 2.31689 43.1989 6.37347C46.4206 10.4301 47.4053 15.3322 46.153 21.1013C44.9221 26.7741 41.8074 31.6335 36.8196 35.7008C31.8319 39.768 26.5016 41.791 20.8288 41.791H15.0276L17.6392 29.8032C19.0627 30.9485 20.8716 31.5264 23.0658 31.5264C25.9022 31.5264 28.5673 30.4989 31.0612 28.4439C33.5658 26.3888 35.1178 23.9484 35.7386 21.112C36.3808 18.1793 35.8885 15.7175 34.2722 13.7053C32.656 11.7038 30.4297 10.7083 27.5933 10.7083C24.6606 10.7083 21.974 11.7145 19.5337 13.716C17.0933 15.7282 15.552 18.2007 14.9205 21.1227C14.867 21.3689 14.8242 21.6044 14.7921 21.8399L10.4251 41.8017H0L4.49542 21.1334Z" fill="#A74808" fill-opacity="0.25"/>
<path fill-rule="evenodd" clip-rule="evenodd" d="M30.2485 18.5745C30.9763 20.4904 30.1735 23.0164 28.1613 24.6754C25.7851 26.6341 22.6169 26.6341 21.0864 24.6754C19.5558 22.7274 20.2515 19.5592 22.6276 17.6005C23.7943 16.6479 25.1429 16.1555 26.4059 16.1341C25.3142 17.1402 25.0252 18.6601 25.7744 19.6127C26.5558 20.6081 28.172 20.6081 29.3922 19.6127C29.7561 19.313 30.0451 18.9491 30.2485 18.5745Z" fill="#A74808" fill-opacity="0.25"/>
<path d="M55.9997 22.8135L48.3193 16.4753L46.2314 27.9959L55.9997 22.8135Z" fill="#E9D1C1"/>
</svg>
