<svg width="14" height="18" viewBox="0 0 14 18" fill="none" xmlns="http://www.w3.org/2000/svg">
<path d="M7 9C7.48125 9 7.89337 8.8236 8.23637 8.4708C8.57879 8.1186 8.75 7.695 8.75 7.2C8.75 6.705 8.57879 6.2811 8.23637 5.9283C7.89337 5.5761 7.48125 5.4 7 5.4C6.51875 5.4 6.10692 5.5761 5.7645 5.9283C5.4215 6.2811 5.25 6.705 5.25 7.2C5.25 7.695 5.4215 8.1186 5.7645 8.4708C6.10692 8.8236 6.51875 9 7 9ZM7 18C4.65208 15.945 2.89858 14.0361 1.7395 12.2733C0.579833 10.5111 0 8.88 0 7.38C0 5.13 0.703792 3.3375 2.11138 2.0025C3.51838 0.6675 5.14792 0 7 0C8.85208 0 10.4816 0.6675 11.8886 2.0025C13.2962 3.3375 14 5.13 14 7.38C14 8.88 13.4205 10.5111 12.2614 12.2733C11.1017 14.0361 9.34792 15.945 7 18Z" fill="white"/>
</svg>
