<svg width="11" height="11" viewBox="0 0 11 11" fill="none" xmlns="http://www.w3.org/2000/svg">
<path fill-rule="evenodd" clip-rule="evenodd" d="M7.44911 0.346575C7.67109 0.124663 7.97212 0 8.286 0C8.59988 0 8.9009 0.124663 9.12288 0.346575L10.6534 1.87712C10.8753 2.0991 11 2.40012 11 2.714C11 3.02788 10.8753 3.32891 10.6534 3.55089L9.71474 4.48957L6.51043 1.28526L7.44911 0.346575ZM5.67354 2.12215L0.346828 7.44886C0.124823 7.6708 6.70425e-05 7.97183 0 8.28574V9.81629C0 10.1302 0.124712 10.4313 0.346702 10.6533C0.568691 10.8753 0.869773 11 1.18371 11H2.71426C3.02817 10.9999 3.3292 10.8752 3.55114 10.6532L8.87785 5.32646L5.67354 2.12215Z" fill="white"/>
</svg>
