<svg width="15" height="15" viewBox="0 0 15 15" fill="none" xmlns="http://www.w3.org/2000/svg">
<path d="M7.31707 0C11.359 0 14.6356 3.19827 14.6356 7.1436C14.6356 7.42286 14.6188 7.69855 14.5866 7.96995C14.2811 7.66425 13.9267 7.40904 13.5373 7.21431V7.1436C13.5373 6.65151 13.478 6.17298 13.3646 5.71517H10.9076C10.9441 6.08513 10.9661 6.4651 10.9734 6.85149C10.5924 6.92 10.2237 7.04222 9.87878 7.21431V7.1436C9.87878 6.65008 9.85244 6.17227 9.80268 5.71446H4.83146C4.70275 6.90386 4.73597 8.10466 4.93024 9.28554H7.95732C7.82005 9.62899 7.73334 9.98968 7.69976 10.3569H5.16585C5.64293 12.0817 6.47268 13.2152 7.31707 13.2152C7.64927 13.2152 7.98 13.0388 8.28732 12.7195C8.55146 13.1595 8.8961 13.5923 9.31098 14.018C8.67659 14.1929 8.0078 14.2865 7.31634 14.2865C3.27512 14.2865 1.22554e-07 11.0882 1.22554e-07 7.1436C-0.000731585 3.19827 3.27512 0 7.31707 0ZM4.03024 10.3576H2.03854C2.74512 11.4607 3.79486 12.3142 5.03415 12.7931C4.6522 12.2074 4.33683 11.4746 4.10488 10.6397L4.03024 10.3576ZM3.72732 5.71446H1.27024L1.26659 5.7266C1.15354 6.19083 1.09681 6.66644 1.09756 7.1436C1.09653 7.87543 1.2314 8.60138 1.49561 9.28626H3.81732C3.71018 8.57686 3.65711 7.86067 3.65854 7.1436C3.65854 6.65508 3.68195 6.17655 3.72805 5.71446H3.72732ZM5.03488 1.49343L5.01805 1.49914C3.52014 2.08283 2.31183 3.20979 1.64634 4.64384H3.87659C4.10634 3.39253 4.50585 2.30264 5.03488 1.49414V1.49343ZM7.31781 1.07133L7.2322 1.0749C6.30732 1.15846 5.41244 2.58761 4.99756 4.64384H9.63805C9.2239 2.59404 8.33342 1.16632 7.41 1.07633L7.31707 1.07133H7.31781ZM9.60073 1.49271L9.67829 1.6177C10.1685 2.41191 10.5395 3.45467 10.7576 4.64384H12.9878C12.3526 3.27546 11.2219 2.18431 9.81293 1.57985L9.60073 1.49343V1.49271ZM15 10.7147C15 9.86229 14.6531 9.0448 14.0356 8.44207C13.4181 7.83933 12.5806 7.50071 11.7073 7.50071C10.834 7.50071 9.99654 7.83933 9.37904 8.44207C8.76154 9.0448 8.41463 9.86229 8.41463 10.7147C8.41463 12.0453 9.45293 13.4394 11.4878 14.9286C11.5511 14.9749 11.6282 15 11.7073 15C11.7865 15 11.8635 14.9749 11.9268 14.9286C13.961 13.4394 15 12.0453 15 10.7147ZM10.6098 10.7147C10.606 10.5717 10.6316 10.4295 10.685 10.2963C10.7384 10.1631 10.8186 10.0418 10.9209 9.93933C11.0232 9.83691 11.1454 9.75551 11.2804 9.69992C11.4154 9.64434 11.5604 9.61571 11.707 9.61571C11.8535 9.61571 11.9985 9.64434 12.1335 9.69992C12.2685 9.75551 12.3907 9.83691 12.493 9.93933C12.5953 10.0418 12.6755 10.1631 12.7289 10.2963C12.7823 10.4295 12.8079 10.5717 12.8041 10.7147C12.8041 10.9988 12.6885 11.2713 12.4827 11.4722C12.2768 11.6731 11.9977 11.786 11.7066 11.786C11.4155 11.786 11.1363 11.6731 10.9305 11.4722C10.7247 11.2713 10.609 10.9988 10.609 10.7147H10.6098Z" fill="white"/>
</svg>
