<svg width="15" height="15" viewBox="0 0 15 15" fill="none" xmlns="http://www.w3.org/2000/svg">
<path fill-rule="evenodd" clip-rule="evenodd" d="M7.50002 9.54164C6.95848 9.54164 6.43903 9.3264 6.05616 8.94351C5.67327 8.5605 5.45814 8.04109 5.45825 7.49955C5.45825 6.95801 5.67349 6.43857 6.05638 6.0557C6.43938 5.6728 6.9588 5.45768 7.50034 5.45779C8.04188 5.45779 8.56132 5.67292 8.94419 6.05591C9.32709 6.43892 9.54221 6.95833 9.54211 7.49987C9.54147 8.04119 9.32602 8.56021 8.94324 8.94299C8.56035 9.32578 8.04134 9.54112 7.50002 9.54164ZM8.72452 0H6.27584C6.13326 0.00264422 5.99597 0.0547874 5.88756 0.147548C5.77914 0.240308 5.70637 0.367864 5.68173 0.50832L5.45348 1.80579C5.27282 1.87105 5.09555 1.94446 4.92177 2.02621L3.8424 1.27017V1.27028C3.72394 1.18725 3.57998 1.14864 3.43592 1.16123C3.29175 1.17382 3.1567 1.23675 3.0544 1.33903L1.33957 3.05397C1.23718 3.15615 1.17414 3.29121 1.16145 3.43538C1.14886 3.57944 1.18736 3.7234 1.27039 3.84197L2.02665 4.92133C1.94479 5.09522 1.87128 5.27249 1.80602 5.45304L0.508652 5.68129C0.366181 5.70636 0.237043 5.78082 0.143952 5.89167C0.050875 6.00262 -0.000105436 6.14266 1.63725e-07 6.28745V8.71243C1.63725e-07 8.85713 0.0509806 8.99717 0.144058 9.108C0.237029 9.21885 0.366173 9.29331 0.508649 9.31837L1.80601 9.54662C1.87128 9.72707 1.94478 9.90434 2.02665 10.0783L1.27039 11.1577C1.18736 11.2762 1.14886 11.4202 1.16145 11.5643C1.17414 11.7084 1.23718 11.8435 1.33956 11.9457L3.05408 13.6606C3.15635 13.7629 3.29142 13.8258 3.43559 13.8384C3.57965 13.851 3.72361 13.8124 3.84207 13.7294L4.92122 12.9733C5.09511 13.0554 5.27238 13.1289 5.45304 13.1938L5.68129 14.4915H5.6814C5.70646 14.634 5.78103 14.7632 5.89188 14.8562C6.00272 14.9492 6.14287 15.0001 6.28755 15H8.71273C8.85731 15 8.99736 14.949 9.10811 14.856C9.21895 14.7631 9.29342 14.634 9.31859 14.4917L9.54684 13.194C9.72728 13.1287 9.90455 13.0553 10.0785 12.9736L11.1579 13.7296C11.2764 13.8126 11.4202 13.8512 11.5643 13.8387C11.7085 13.8261 11.8434 13.763 11.9457 13.6608L13.6604 11.9459C13.7629 11.8436 13.826 11.7086 13.8385 11.5645C13.8512 11.4203 13.8125 11.2764 13.7294 11.1579L12.9736 10.0786C13.0556 9.90467 13.1291 9.7274 13.1942 9.54685L14.4916 9.31859H14.4915C14.634 9.29342 14.7631 9.21896 14.8562 9.10812C14.9491 8.99716 15.0001 8.85713 15 8.71244V6.28746C15 6.14276 14.949 6.00272 14.856 5.89189C14.7631 5.78115 14.6339 5.70669 14.4915 5.68162L13.1941 5.45337C13.1288 5.27293 13.0553 5.09566 12.9735 4.92166L13.7293 3.8423H13.7294C13.8125 3.72383 13.8511 3.57988 13.8385 3.43571C13.826 3.29155 13.7628 3.15649 13.6604 3.0543L11.9459 1.33925C11.8436 1.23697 11.7086 1.17393 11.5645 1.16135C11.4204 1.14876 11.2765 1.18737 11.158 1.2704L10.0787 2.02644C9.90477 1.94436 9.7275 1.87085 9.54695 1.8058L9.3187 0.50844V0.508546C9.29405 0.367978 9.22118 0.240422 9.11276 0.147664C9.00435 0.0549042 8.86706 0.00265389 8.72448 1.11812e-05L8.72452 0ZM7.50002 4.22752C6.63206 4.22752 5.79977 4.57232 5.18599 5.18599C4.57232 5.79977 4.22752 6.63206 4.22752 7.50001C4.22752 8.36796 4.57232 9.20025 5.18599 9.81403C5.79977 10.4277 6.63206 10.7725 7.50002 10.7725C8.36797 10.7725 9.20026 10.4277 9.81404 9.81403C10.4277 9.20025 10.7725 8.36796 10.7725 7.50001C10.7716 6.63238 10.4265 5.8005 9.81296 5.18704C9.1995 4.57348 8.36762 4.22847 7.49999 4.22749L7.50002 4.22752ZM13.7697 8.19591V6.80378L12.6163 6.6006C12.5028 6.58071 12.3972 6.52931 12.3115 6.4522C12.226 6.3751 12.1637 6.27557 12.132 6.16483C12.0322 5.81876 11.8936 5.48515 11.719 5.17019C11.6632 5.06939 11.6368 4.95485 11.643 4.83977C11.649 4.72469 11.6874 4.61353 11.7536 4.51918L12.4255 3.55955L11.4412 2.57495L10.4817 3.24732C10.387 3.31354 10.2758 3.35193 10.1605 3.35796C10.0452 3.36399 9.93043 3.33754 9.8294 3.28159C9.51453 3.10707 9.18083 2.96861 8.83487 2.86889C8.72423 2.83694 8.6247 2.77465 8.54761 2.68897C8.4706 2.6033 8.4191 2.49774 8.39911 2.38436L8.19624 1.23031H6.80389L6.60092 2.38374C6.58082 2.49712 6.52942 2.60268 6.45242 2.68835C6.37531 2.77402 6.27578 2.83632 6.16505 2.86826C5.81909 2.96811 5.48547 3.10656 5.17051 3.28086C5.06971 3.33671 4.95517 3.36315 4.84009 3.35712C4.72502 3.35109 4.61385 3.3128 4.5195 3.2467L3.55987 2.57432L2.57537 3.55892L3.24764 4.51856H3.24754C3.31375 4.61301 3.35204 4.72406 3.35806 4.83915C3.36409 4.95433 3.33765 5.06877 3.2818 5.16957C3.10739 5.48455 2.96893 5.81825 2.86899 6.1641C2.83715 6.27484 2.77485 6.37437 2.68929 6.45136C2.60361 6.52847 2.49806 6.57987 2.38456 6.59976L1.23052 6.80379V8.19603L2.38394 8.39921V8.3991C2.49743 8.41909 2.60299 8.4706 2.68866 8.5476C2.77434 8.62471 2.83663 8.72424 2.86847 8.83497C2.96842 9.18082 3.10677 9.51455 3.28118 9.82951C3.33702 9.93031 3.36347 10.0447 3.35744 10.1598C3.35141 10.2749 3.31312 10.386 3.24691 10.4804L2.57475 11.4407L3.55924 12.4253L4.51888 11.753V11.7531C4.61322 11.6869 4.72428 11.6486 4.83947 11.6426C4.95455 11.6366 5.06909 11.663 5.16989 11.7189C5.48488 11.8934 5.81846 12.0317 6.16442 12.1316C6.27516 12.1634 6.37469 12.2258 6.45168 12.3115C6.52879 12.3972 6.58019 12.5027 6.60019 12.6162L6.80316 13.7693H8.19551L8.39869 12.6161H8.3988C8.41879 12.5026 8.47019 12.397 8.5473 12.3114C8.6243 12.2257 8.72383 12.1634 8.83456 12.1316C9.18063 12.0318 9.51424 11.8934 9.82909 11.7186C9.93011 11.6627 10.0449 11.6362 10.1602 11.6424C10.2755 11.6484 10.3867 11.6868 10.4813 11.7531L11.4408 12.4254L12.4251 11.4408L11.7532 10.4812L11.7533 10.4811C11.6871 10.3868 11.6487 10.2757 11.6427 10.1606C11.6365 10.0455 11.6629 9.93102 11.7187 9.83012C11.8933 9.51492 12.0319 9.18101 12.1317 8.83472C12.1636 8.72398 12.2259 8.62445 12.3115 8.54746C12.3972 8.47046 12.5028 8.41906 12.6163 8.39907L13.7697 8.19591Z" fill="#FF6600"/>
</svg>
