<svg width="10" height="17" viewBox="0 0 10 17" fill="none" xmlns="http://www.w3.org/2000/svg">
<path fill-rule="evenodd" clip-rule="evenodd" d="M6.31569 1.38506C6.31569 1.15181 6.22142 0.928125 6.05362 0.763198C5.88583 0.59827 5.65825 0.505615 5.42095 0.505615C5.18365 0.505615 4.95607 0.59827 4.78828 0.763198C4.62048 0.928125 4.52621 1.15181 4.52621 1.38506V2.2645C3.57702 2.2645 2.6667 2.63512 1.99551 3.29483C1.32433 3.95454 0.947266 4.8493 0.947266 5.78227C0.947266 6.71524 1.32433 7.61 1.99551 8.26971C2.6667 8.92942 3.57702 9.30004 4.52621 9.30004V12.8178C4.15609 12.8179 3.79505 12.7052 3.49278 12.4952C3.1905 12.2853 2.96185 11.9884 2.83829 11.6455C2.75618 11.4296 2.59113 11.2541 2.37867 11.1566C2.16621 11.0591 1.92331 11.0475 1.70222 11.1243C1.48114 11.201 1.29955 11.36 1.19651 11.567C1.09347 11.774 1.07722 12.0125 1.15127 12.2312C1.39813 12.9171 1.85521 13.511 2.45961 13.931C3.06401 14.351 3.786 14.5766 4.52621 14.5767V15.4561C4.52621 15.6894 4.62048 15.9131 4.78828 16.078C4.95607 16.2429 5.18365 16.3356 5.42095 16.3356C5.65825 16.3356 5.88583 16.2429 6.05362 16.078C6.22142 15.9131 6.31569 15.6894 6.31569 15.4561V14.5767C7.26488 14.5767 8.1752 14.2061 8.84639 13.5464C9.51757 12.8866 9.89464 11.9919 9.89464 11.0589C9.89464 10.126 9.51757 9.23119 8.84639 8.57148C8.1752 7.91177 7.26488 7.54115 6.31569 7.54115V4.02338C6.68581 4.02333 7.04685 4.13603 7.34912 4.34596C7.6514 4.5559 7.88005 4.85276 8.00361 5.19568C8.08572 5.41155 8.25077 5.5871 8.46323 5.68458C8.67569 5.78206 8.91859 5.79367 9.13968 5.71692C9.36076 5.64016 9.54236 5.48117 9.64539 5.27416C9.74843 5.06714 9.76468 4.82864 9.69063 4.60997C9.44377 3.92406 8.98669 3.33022 8.38229 2.91019C7.77789 2.49015 7.0559 2.26457 6.31569 2.2645V1.38506ZM4.52621 4.02338C4.05162 4.02338 3.59646 4.20869 3.26086 4.53855C2.92527 4.8684 2.73674 5.31578 2.73674 5.78227C2.73674 6.24875 2.92527 6.69613 3.26086 7.02599C3.59646 7.35584 4.05162 7.54115 4.52621 7.54115V4.02338ZM6.31569 9.30004V12.8178C6.79029 12.8178 7.24544 12.6325 7.58104 12.3026C7.91663 11.9728 8.10516 11.5254 8.10516 11.0589C8.10516 10.5924 7.91663 10.1451 7.58104 9.8152C7.24544 9.48535 6.79029 9.30004 6.31569 9.30004Z" fill="#FF6600"/>
</svg>
