<svg width="18" height="18" viewBox="0 0 18 18" fill="none" xmlns="http://www.w3.org/2000/svg">
<path d="M9.00016 18.0001C8.76449 18.0001 8.52882 17.9568 8.31336 17.8696L0.826942 14.8287C0.317315 14.6223 0 14.2004 0 13.7267V4.27282C0 3.80035 0.31666 3.37847 0.826942 3.17141L8.31208 0.131647C8.74298 -0.0438824 9.25701 -0.0438824 9.68744 0.131647L17.1726 3.17141C17.6834 3.37845 18 3.80083 18 4.27282V13.7267C18 14.1998 17.6833 14.6222 17.1719 14.8286L9.68712 17.8689C9.47179 17.9563 9.23548 18.0001 8.99981 18.0001L9.00016 18.0001ZM1.12867 13.7228C1.13934 13.7228 1.17701 13.7566 1.25021 13.7858L8.73663 16.8261C8.89471 16.8896 9.10727 16.8896 9.26599 16.8261L16.7508 13.7858H16.7513C16.8379 13.7509 16.8756 13.7094 16.8813 13.6981L16.8756 4.27279C16.8756 4.28961 16.8384 4.24918 16.7495 4.21315L9.26506 1.17338C9.10698 1.10985 8.8949 1.10922 8.73682 1.17338L1.25104 4.21315C1.1639 4.24918 1.12611 4.29024 1.11996 4.30204L1.12561 13.7267C1.12561 13.7239 1.12674 13.7228 1.129 13.7228L1.12867 13.7228Z" fill="white"/>
<path d="M9.00095 18.0001C8.69044 18.0001 8.43845 17.7486 8.43845 17.4376V7.69349L0.679456 4.59018C0.390922 4.47429 0.250798 4.14748 0.366188 3.85893C0.481449 3.5704 0.807768 3.43027 1.09744 3.54566L9.21032 6.79082C9.4234 6.87569 9.56351 7.08274 9.56351 7.31275V17.4378C9.56351 17.7488 9.31152 18.0003 9.00101 18.0003L9.00095 18.0001Z" fill="white"/>
<path d="M8.99926 7.87499C8.7759 7.87499 8.56495 7.74114 8.47668 7.52116C8.36142 7.23262 8.50142 6.90517 8.78995 6.78991L16.9028 3.54475C17.1886 3.43112 17.5188 3.56949 17.6341 3.85802C17.7494 4.14655 17.6087 4.47401 17.3202 4.58927L9.20763 7.83443C9.1397 7.86205 9.06889 7.87498 8.99908 7.87498L8.99926 7.87499Z" fill="white"/>
<path d="M13.5002 6.18757C13.426 6.18757 13.3505 6.173 13.2786 6.14149L5.40353 2.76648C5.11838 2.64494 4.98554 2.31422 5.10821 2.02844C5.23026 1.7433 5.56098 1.60994 5.84676 1.73313L13.7218 5.10814C14.0076 5.23018 14.1398 5.56091 14.0171 5.84669C13.926 6.05989 13.7184 6.18756 13.5002 6.18756L13.5002 6.18757Z" fill="white"/>
<path d="M13.5 8.43751C13.189 8.43751 12.9375 8.18552 12.9375 7.87501V5.625C12.9375 5.31449 13.189 5.0625 13.5 5.0625C13.811 5.0625 14.0625 5.31449 14.0625 5.625V7.87501C14.0625 8.18552 13.811 8.43751 13.5 8.43751Z" fill="white"/>
</svg>
