<svg width="24" height="42" viewBox="0 0 24 42" fill="none" xmlns="http://www.w3.org/2000/svg">
<path fill-rule="evenodd" clip-rule="evenodd" d="M14.4 2.33333C14.4 1.71449 14.1471 1.121 13.6971 0.683417C13.247 0.245833 12.6365 0 12 0C11.3635 0 10.753 0.245833 10.3029 0.683417C9.85286 1.121 9.6 1.71449 9.6 2.33333V4.66667C7.05392 4.66667 4.61212 5.65 2.81177 7.40034C1.01143 9.15068 0 11.5246 0 14C0 16.4754 1.01143 18.8493 2.81177 20.5997C4.61212 22.35 7.05392 23.3333 9.6 23.3333V32.6667C8.60721 32.6668 7.63877 32.3678 6.82796 31.8108C6.01715 31.2538 5.40383 30.4662 5.0724 29.5563C4.85214 28.9836 4.40943 28.5178 3.83953 28.2592C3.26963 28.0005 2.61809 27.9697 2.02506 28.1734C1.43204 28.377 0.944939 28.7989 0.668556 29.3481C0.392173 29.8974 0.348596 30.5302 0.5472 31.1103C1.20937 32.9302 2.43543 34.5058 4.05664 35.6202C5.67785 36.7346 7.61449 37.3331 9.6 37.3333V39.6667C9.6 40.2855 9.85286 40.879 10.3029 41.3166C10.753 41.7542 11.3635 42 12 42C12.6365 42 13.247 41.7542 13.6971 41.3166C14.1471 40.879 14.4 40.2855 14.4 39.6667V37.3333C16.9461 37.3333 19.3879 36.35 21.1882 34.5997C22.9886 32.8493 24 30.4754 24 28C24 25.5246 22.9886 23.1507 21.1882 21.4003C19.3879 19.65 16.9461 18.6667 14.4 18.6667V9.33333C15.3928 9.33319 16.3612 9.6322 17.172 10.1892C17.9829 10.7462 18.5962 11.5338 18.9276 12.4437C19.1479 13.0164 19.5906 13.4822 20.1605 13.7408C20.7304 13.9995 21.3819 14.0303 21.9749 13.8266C22.568 13.623 23.0551 13.2011 23.3314 12.6519C23.6078 12.1026 23.6514 11.4698 23.4528 10.8897C22.7906 9.06982 21.5646 7.49425 19.9434 6.37981C18.3222 5.26537 16.3855 4.66687 14.4 4.66667V2.33333ZM9.6 9.33333C8.32696 9.33333 7.10606 9.825 6.20589 10.7002C5.30571 11.5753 4.8 12.7623 4.8 14C4.8 15.2377 5.30571 16.4247 6.20589 17.2998C7.10606 18.175 8.32696 18.6667 9.6 18.6667V9.33333ZM14.4 23.3333V32.6667C15.673 32.6667 16.8939 32.175 17.7941 31.2998C18.6943 30.4247 19.2 29.2377 19.2 28C19.2 26.7623 18.6943 25.5753 17.7941 24.7002C16.8939 23.825 15.673 23.3333 14.4 23.3333Z" fill="black"/>
</svg>
