<svg width="28" height="28" viewBox="0 0 28 28" fill="none" xmlns="http://www.w3.org/2000/svg">
<circle cx="14" cy="14" r="14" fill="#FF6600"/>
<path d="M16.5 7.6C16.5 8.48333 15.8281 9.2 15 9.2C14.1719 9.2 13.5 8.48333 13.5 7.6C13.5 6.71667 14.1719 6 15 6C15.8281 6 16.5 6.71667 16.5 7.6ZM12 12.4C12 11.81 12.4469 11.3333 13 11.3333H15C15.5531 11.3333 16 11.81 16 12.4V19.8667H17C17.5531 19.8667 18 20.3433 18 20.9333C18 21.5233 17.5531 22 17 22H13C12.4469 22 12 21.5233 12 20.9333C12 20.3433 12.4469 19.8667 13 19.8667H14V13.4667H13C12.4469 13.4667 12 12.99 12 12.4Z" fill="white"/>
</svg>
