<svg width="15" height="15" viewBox="0 0 15 15" fill="none" xmlns="http://www.w3.org/2000/svg">
<path d="M7.50013 15.0001C7.30374 15.0001 7.10735 14.964 6.9278 14.8913L0.689118 12.3573C0.264429 12.1853 0 11.8337 0 11.4389V3.56068C0 3.16696 0.263883 2.81539 0.689118 2.64284L6.92673 0.109706C7.28582 -0.0365687 7.71418 -0.0365687 8.07287 0.109706L14.3105 2.64284C14.7361 2.81538 15 3.16736 15 3.56068V11.4389C15 11.8332 14.7361 12.1852 14.3099 12.3572L8.0726 14.8907C7.89316 14.9636 7.69623 15.0001 7.49984 15.0001L7.50013 15.0001ZM0.940557 11.4357C0.94945 11.4357 0.98084 11.4638 1.04184 11.4882L7.28052 14.0218C7.41225 14.0747 7.58939 14.0747 7.72166 14.0218L13.959 11.4882H13.9594C14.0316 11.4591 14.063 11.4245 14.0677 11.4151L14.063 3.56066C14.063 3.57468 14.032 3.54098 13.958 3.51095L7.72088 0.977821C7.58915 0.924876 7.41241 0.924354 7.28068 0.977821L1.04253 3.51095C0.969921 3.54098 0.938426 3.5752 0.933299 3.58503L0.938007 11.4389C0.938007 11.4366 0.938949 11.4357 0.940832 11.4357L0.940557 11.4357Z" fill="white"/>
<path d="M7.5008 15.0001C7.24204 15.0001 7.03204 14.7905 7.03204 14.5313V6.41122L0.566219 3.82513C0.325773 3.72856 0.209003 3.45621 0.305161 3.21575C0.401213 2.97531 0.673145 2.85854 0.914538 2.9547L7.67528 5.65899C7.85284 5.72972 7.9696 5.90226 7.9696 6.09394V14.5315C7.9696 14.7906 7.7596 15.0002 7.50085 15.0002L7.5008 15.0001Z" fill="white"/>
<path d="M7.49939 6.5625C7.31325 6.5625 7.13746 6.45096 7.06391 6.26764C6.96785 6.0272 7.08452 5.75432 7.32496 5.65826L14.0857 2.95397C14.3238 2.85928 14.599 2.97458 14.6951 3.21503C14.7911 3.45547 14.6739 3.72835 14.4335 3.8244L7.67303 6.5287C7.61642 6.55172 7.55741 6.56249 7.49923 6.56249L7.49939 6.5625Z" fill="white"/>
<path d="M11.2501 5.15632C11.1883 5.15632 11.1254 5.14418 11.0655 5.11792L4.50294 2.30541C4.26532 2.20412 4.15462 1.92853 4.25685 1.69038C4.35855 1.45276 4.63415 1.34163 4.8723 1.44428L11.4348 4.25679C11.673 4.3585 11.7831 4.6341 11.6809 4.87225C11.605 5.04992 11.432 5.15631 11.2502 5.15631L11.2501 5.15632Z" fill="white"/>
<path d="M11.25 7.03126C10.9908 7.03126 10.7812 6.82126 10.7812 6.56251V4.6875C10.7812 4.42875 10.9908 4.21875 11.25 4.21875C11.5092 4.21875 11.7188 4.42875 11.7188 4.6875V6.56251C11.7188 6.82126 11.5092 7.03126 11.25 7.03126Z" fill="white"/>
</svg>
