<svg width="14" height="15" viewBox="0 0 14 15" fill="none" xmlns="http://www.w3.org/2000/svg">
<path d="M14 6.36965C14 5.90545 13.8156 5.46032 13.4874 5.13216C13.1592 4.8039 12.7141 4.61952 12.2499 4.61952H12.0934L10.3292 0.766066C10.1849 0.45087 9.92143 0.205765 9.59663 0.0844409C9.27184 -0.0368859 8.91221 -0.0243849 8.59655 0.119041C8.27944 0.261352 8.03257 0.524759 7.9109 0.85047C7.78935 1.17607 7.8033 1.5369 7.94952 1.85224L9.21513 4.61943H4.78364L6.04925 1.85069C6.24313 1.42543 6.19536 0.929077 5.92391 0.548589C5.65257 0.168102 5.19885 -0.0387432 4.73364 0.00603177C4.26844 0.0507896 3.86237 0.34043 3.66862 0.765692L1.90496 4.61943H1.74892C1.28483 4.61998 0.839594 4.80382 0.51031 5.13095C0.102478 5.54036 -0.0770218 6.12466 0.0307011 6.69236C0.13841 7.26015 0.519368 7.7381 1.04887 7.96969L1.7939 12.4315C1.87147 12.9038 2.1147 13.3332 2.48001 13.6426C2.84532 13.9521 3.30888 14.1214 3.7876 14.1201H10.211C10.6898 14.1214 11.1533 13.952 11.5187 13.6425C11.884 13.333 12.1272 12.9035 12.2047 12.431L12.9497 7.96955C13.2629 7.83595 13.5297 7.61284 13.7165 7.3281C13.9033 7.04348 14.0019 6.70996 13.9998 6.36942L14 6.36965ZM8.82959 1.30925C8.83193 1.18859 8.90292 1.07988 9.01253 1.02932C9.05204 1.01113 9.09512 1.00175 9.13854 1.00175C9.25965 1.00186 9.36959 1.07229 9.42015 1.18223L11.2068 5.08569C11.217 5.10645 11.2251 5.12821 11.2308 5.15076C11.2308 5.16225 11.2308 5.17375 11.2342 5.18525C11.2505 5.33448 11.1569 5.47378 11.0126 5.51519C10.8681 5.55659 10.715 5.48795 10.6497 5.35278L10.4567 4.93121L10.4497 4.91971L8.85905 1.43943C8.83963 1.39892 8.82947 1.35449 8.82959 1.3094L8.82959 1.30925ZM4.57925 1.18179C4.63003 1.07207 4.73987 1.00186 4.86075 1.00175C4.90428 1.00175 4.94725 1.01113 4.98676 1.02932C5.09637 1.07988 5.16747 1.1886 5.16981 1.30925C5.16937 1.35323 5.15932 1.39665 5.14023 1.43627L3.54913 4.91969L3.54367 4.93175L3.35314 5.34829V5.34818C3.31854 5.42274 3.25581 5.48034 3.17868 5.50846C3.10166 5.53659 3.0165 5.53291 2.94205 5.49819C2.81158 5.43446 2.7407 5.29059 2.76961 5.14817C2.77418 5.12796 2.78099 5.10832 2.79003 5.08968L4.57925 1.18179ZM11.2186 12.2667C11.1793 12.5053 11.0565 12.7223 10.8718 12.8787C10.6872 13.035 10.4531 13.1206 10.2111 13.1202H3.7877C3.54583 13.1206 3.31166 13.0351 3.12705 12.8789C2.94255 12.7226 2.81954 12.5057 2.78014 12.2671L2.089 8.11993H11.9098L11.2186 12.2667ZM12.7808 6.90138V6.90127C12.6395 7.04124 12.4486 7.11982 12.2497 7.11982H1.74891C1.48092 7.11982 1.23336 6.97684 1.09932 6.74479C0.965378 6.51274 0.965378 6.22677 1.09932 5.99473C1.23337 5.76268 1.48092 5.6197 1.74891 5.6197H1.82537C1.90886 5.88289 2.07394 6.11259 2.29672 6.27578C2.51951 6.43885 2.78839 6.52669 3.06453 6.5268C3.31533 6.52647 3.56099 6.45481 3.77261 6.32009C3.98423 6.18548 4.1531 5.99326 4.25959 5.76625L4.32656 5.61969H9.67184L9.74138 5.76971C9.84809 5.99562 10.0168 6.18648 10.2279 6.32009C10.439 6.4537 10.6837 6.52446 10.9335 6.52424C11.2092 6.52446 11.478 6.43684 11.7007 6.27422C11.9235 6.11159 12.0887 5.88244 12.1726 5.61971H12.2496C12.449 5.61926 12.6403 5.69806 12.7813 5.83892C12.9224 5.97978 13.0017 6.17098 13.0016 6.37022C13.0013 6.56957 12.9219 6.76065 12.7807 6.90129L12.7808 6.90138Z" fill="#FF6600"/>
<path d="M5.00004 9.11987C4.86744 9.11987 4.7402 9.17256 4.64644 9.26631C4.55268 9.36007 4.5 9.48731 4.5 9.61991V11.6201C4.5 11.7988 4.59532 11.9638 4.75002 12.0531C4.90472 12.1424 5.09536 12.1424 5.25006 12.0531C5.40476 11.9638 5.50008 11.7988 5.50008 11.6201V9.61991C5.50008 9.48731 5.4474 9.36007 5.35364 9.26631C5.25988 9.17256 5.13264 9.11987 5.00004 9.11987Z" fill="#FF6600"/>
<path d="M8.99906 9.11987C8.86646 9.11987 8.73922 9.17256 8.64546 9.26631C8.55171 9.36007 8.49902 9.48731 8.49902 9.61991V11.6201C8.49902 11.7988 8.59434 11.9638 8.74904 12.0531C8.90374 12.1424 9.09438 12.1424 9.24908 12.0531C9.40378 11.9638 9.4991 11.7988 9.4991 11.6201V9.61991C9.4991 9.48731 9.44642 9.36007 9.35266 9.26631C9.25891 9.17256 9.13166 9.11987 8.99906 9.11987Z" fill="#FF6600"/>
<path d="M6.99906 9.11987C6.86646 9.11987 6.73922 9.17256 6.64546 9.26631C6.55171 9.36007 6.49902 9.48731 6.49902 9.61991V11.6201C6.49902 11.7988 6.59434 11.9638 6.74904 12.0531C6.90374 12.1424 7.09438 12.1424 7.24908 12.0531C7.40378 11.9638 7.4991 11.7988 7.4991 11.6201V9.61991C7.4991 9.48731 7.44642 9.36007 7.35266 9.26631C7.25891 9.17256 7.13166 9.11987 6.99906 9.11987Z" fill="#FF6600"/>
</svg>
