<svg width="9" height="16" viewBox="0 0 9 16" fill="none" xmlns="http://www.w3.org/2000/svg">
<path fill-rule="evenodd" clip-rule="evenodd" d="M5.36842 0.879442C5.36842 0.6462 5.27415 0.42251 5.10636 0.257583C4.93856 0.0926552 4.71098 0 4.47368 0C4.23639 0 4.00881 0.0926552 3.84101 0.257583C3.67321 0.42251 3.57895 0.6462 3.57895 0.879442V1.75888C2.62975 1.75888 1.71943 2.12951 1.04825 2.78921C0.377066 3.44892 0 4.34368 0 5.27665C0 6.20962 0.377066 7.10438 1.04825 7.76409C1.71943 8.4238 2.62975 8.79442 3.57895 8.79442V12.3122C3.20883 12.3122 2.84779 12.1995 2.54551 11.9896C2.24324 11.7797 2.01458 11.4828 1.89103 11.1399C1.80891 10.924 1.64387 10.7485 1.43141 10.651C1.21894 10.5535 0.976041 10.5419 0.754958 10.6187C0.533875 10.6954 0.35228 10.8544 0.249242 11.0614C0.146205 11.2684 0.129959 11.5069 0.204 11.7256C0.450861 12.4115 0.907947 13.0053 1.51234 13.4254C2.11674 13.8454 2.83873 14.071 3.57895 14.0711V14.9505C3.57895 15.1838 3.67321 15.4074 3.84101 15.5724C4.00881 15.7373 4.23639 15.83 4.47368 15.83C4.71098 15.83 4.93856 15.7373 5.10636 15.5724C5.27415 15.4074 5.36842 15.1838 5.36842 14.9505V14.0711C6.31762 14.0711 7.22794 13.7005 7.89912 13.0407C8.5703 12.381 8.94737 11.4863 8.94737 10.5533C8.94737 9.62034 8.5703 8.72558 7.89912 8.06587C7.22794 7.40616 6.31762 7.03554 5.36842 7.03554V3.51777C5.73854 3.51772 6.09958 3.63041 6.40186 3.84035C6.70413 4.05028 6.93278 4.34714 7.05634 4.69007C7.13846 4.90593 7.3035 5.08149 7.51596 5.17897C7.72843 5.27645 7.97133 5.28806 8.19241 5.2113C8.41349 5.13454 8.59509 4.97556 8.69813 4.76854C8.80117 4.56152 8.81741 4.32303 8.74337 4.10436C8.49651 3.41845 8.03942 2.82461 7.43503 2.40457C6.83063 1.98454 6.10863 1.75896 5.36842 1.75888V0.879442ZM3.57895 3.51777C3.10435 3.51777 2.64919 3.70308 2.3136 4.03293C1.97801 4.36279 1.78947 4.81017 1.78947 5.27665C1.78947 5.74314 1.97801 6.19052 2.3136 6.52037C2.64919 6.85023 3.10435 7.03554 3.57895 7.03554V3.51777ZM5.36842 8.79442V12.3122C5.84302 12.3122 6.29818 12.1269 6.63377 11.797C6.96936 11.4672 7.1579 11.0198 7.1579 10.5533C7.1579 10.0868 6.96936 9.63944 6.63377 9.30959C6.29818 8.97973 5.84302 8.79442 5.36842 8.79442Z" fill="#FF6600"/>
</svg>
