<svg width="14" height="11" viewBox="0 0 14 11" fill="none" xmlns="http://www.w3.org/2000/svg">
<path d="M13.8967 5.72664L11.7428 2.70162C11.6414 2.55928 11.4794 2.47508 11.3072 2.47508H9.15351V0.550159C9.15351 0.246441 8.91235 0.000125296 8.61503 0.000125296L0.538478 0C0.241141 0 0 0.246331 0 0.550034V9.07511C0 9.37883 0.241157 9.62514 0.538478 9.62514H1.63974C1.76854 10.4044 2.43191 11 3.23081 11C4.0297 11 4.69306 10.4041 4.82187 9.62514H9.44736C9.57616 10.4044 10.2395 11 11.0384 11C11.8372 11 12.5007 10.4041 12.6295 9.62514H13.4615C13.7589 9.62514 14 9.37881 14 9.07511L13.9999 6.05021C13.9996 5.93381 13.9637 5.82067 13.8967 5.72669L13.8967 5.72664ZM12.2078 5.22508H10.7689V3.57517H11.0331L12.2078 5.22508ZM8.07693 1.10014V6.05006H1.07715V1.10014H8.07693ZM3.231 9.90011C2.93403 9.90011 2.69252 9.6534 2.69252 9.35007C2.69252 9.04673 2.93404 8.80004 3.231 8.80004C3.52796 8.80004 3.76947 9.04675 3.76947 9.35007C3.76935 9.65341 3.52783 9.90011 3.231 9.90011ZM4.62765 8.52512C4.34786 8.03269 3.82716 7.70004 3.23078 7.70004C2.63452 7.70004 2.11369 8.03269 1.8339 8.52512H1.07696V7.15026H8.07674V8.52512H4.62765ZM11.0383 9.90011C10.7414 9.90011 10.4999 9.6534 10.4999 9.35007C10.4999 9.04673 10.7414 8.80004 11.0383 8.80004C11.3353 8.80004 11.5768 9.04675 11.5768 9.35007C11.5768 9.65341 11.3353 9.90011 11.0383 9.90011ZM12.4351 8.52512C12.1553 8.03269 11.6346 7.70004 11.0382 7.70004C10.442 7.70004 9.92112 8.03269 9.64133 8.52512H9.15363L9.15375 3.5752H9.69223V5.77514C9.69223 6.07886 9.93339 6.32518 10.2307 6.32518H12.9229V8.52512H12.4351Z" fill="white"/>
</svg>
