<svg width="15" height="13" viewBox="0 0 15 13" fill="none" xmlns="http://www.w3.org/2000/svg">
<path d="M2.43894 13H11.1583C12.6887 13 13.9479 11.7579 13.9479 10.2484V9.99677C14.5537 9.79233 15 9.21059 15 8.53453V6.47465C15 5.79859 14.5696 5.23254 13.9479 5.01241V4.76081C13.9479 3.25128 12.6887 2.00918 11.1583 2.00918H11.0467L10.9352 1.31731C10.8715 0.877048 10.6004 0.499654 10.2338 0.24816C9.86717 0.012351 9.40484 -0.0662839 8.95851 0.0595106L1.94473 2.04066C1.89692 2.05634 1.83309 2.07214 1.80129 2.1035C0.765111 2.37079 0 3.31425 0 4.41487V10.5943C0 11.9307 1.09992 13 2.43888 13L2.43894 13ZM13.4219 6.30174C13.5335 6.30174 13.5972 6.36459 13.5972 6.47471V8.53447C13.5972 8.64459 13.5335 8.70744 13.4219 8.70744H11.3177C10.6323 8.70744 10.0902 8.17286 10.0902 7.49669C10.0902 6.82063 10.6322 6.28595 11.3177 6.28595L13.4219 6.28606V6.30174ZM9.34113 1.38025C9.40484 1.36457 9.45277 1.38025 9.48457 1.39594C9.51648 1.41162 9.54828 1.4431 9.54828 1.52174L9.61199 2.00915H7.14132L9.34113 1.38025ZM1.38687 4.41491C1.38687 3.84886 1.86511 3.37712 2.43897 3.37712H11.1584C11.9235 3.37712 12.5451 3.99035 12.5451 4.74505V4.93381H11.3177C9.86711 4.93381 8.70349 6.0816 8.70349 7.51248C8.70349 8.94336 9.8831 10.0912 11.3177 10.0912H12.5451V10.2641C12.5451 11.0188 11.9235 11.632 11.1584 11.632H2.43897C1.86511 11.632 1.38687 11.1603 1.38687 10.5943V4.41491Z" fill="white"/>
</svg>
