<svg width="14" height="11" viewBox="0 0 14 11" fill="none" xmlns="http://www.w3.org/2000/svg">
<path d="M8.96 2.75L9.8 3.575L5.04 8.25L4.2 7.425L8.96 2.75ZM1.4 0H12.6C13.377 0 14 0.611875 14 1.375V4.125C13.6287 4.125 13.2726 4.26987 13.0101 4.52773C12.7475 4.78559 12.6 5.13533 12.6 5.5C12.6 5.86467 12.7475 6.21441 13.0101 6.47227C13.2726 6.73013 13.6287 6.875 14 6.875V9.625C14 10.3881 13.377 11 12.6 11H1.4C1.0287 11 0.672601 10.8551 0.41005 10.5973C0.1475 10.3394 0 9.98967 0 9.625V6.875C0.777 6.875 1.4 6.26312 1.4 5.5C1.4 5.13533 1.2525 4.78559 0.98995 4.52773C0.727399 4.26987 0.371303 4.125 0 4.125V1.375C0 1.01033 0.1475 0.660591 0.41005 0.402728C0.672601 0.144866 1.0287 0 1.4 0ZM1.4 1.375V3.12125C1.82537 3.36215 2.17865 3.70883 2.42428 4.12641C2.66991 4.54399 2.79923 5.01774 2.79923 5.5C2.79923 5.98226 2.66991 6.45601 2.42428 6.87359C2.17865 7.29117 1.82537 7.63785 1.4 7.87875V9.625H12.6V7.87875C12.1746 7.63785 11.8214 7.29117 11.5757 6.87359C11.3301 6.45601 11.2008 5.98226 11.2008 5.5C11.2008 5.01774 11.3301 4.54399 11.5757 4.12641C11.8214 3.70883 12.1746 3.36215 12.6 3.12125V1.375H1.4ZM5.25 2.75C5.831 2.75 6.3 3.21062 6.3 3.78125C6.3 4.35187 5.831 4.8125 5.25 4.8125C4.669 4.8125 4.2 4.35187 4.2 3.78125C4.2 3.21062 4.669 2.75 5.25 2.75ZM8.75 6.1875C9.331 6.1875 9.8 6.64813 9.8 7.21875C9.8 7.78937 9.331 8.25 8.75 8.25C8.169 8.25 7.7 7.78937 7.7 7.21875C7.7 6.64813 8.169 6.1875 8.75 6.1875Z" fill="white"/>
</svg>
