<svg width="278" height="276" viewBox="0 0 278 276" fill="none" xmlns="http://www.w3.org/2000/svg">
<path fill-rule="evenodd" clip-rule="evenodd" d="M241.27 118.514L243.586 114.801C241.339 113.402 238.867 112.298 236.25 111.627L235.167 115.868C237.31 116.417 239.368 117.329 241.27 118.514Z" fill="#FF6600"/>
<path fill-rule="evenodd" clip-rule="evenodd" d="M249.489 127.119L253.34 125.036C252.692 123.856 251.958 122.733 251.156 121.67C250.347 120.613 249.462 119.623 248.524 118.688L245.454 121.807C246.246 122.598 246.994 123.437 247.673 124.321C248.342 125.216 248.952 126.149 249.489 127.119Z" fill="#FF6600"/>
<path fill-rule="evenodd" clip-rule="evenodd" d="M251.134 138.59L255.454 138.992C256.132 136.378 256.098 133.614 255.557 130.981L251.306 132.008C251.742 134.177 251.744 136.456 251.134 138.59Z" fill="#FF6600"/>
<path fill-rule="evenodd" clip-rule="evenodd" d="M205.851 121.078L204.032 117.099C201.818 118.114 199.637 119.175 197.496 120.259L199.464 124.17C201.582 123.094 203.71 122.065 205.851 121.078Z" fill="#FF6600"/>
<path fill-rule="evenodd" clip-rule="evenodd" d="M217.616 116.664L216.462 112.441C214.035 113.087 211.693 113.917 209.398 114.81L210.995 118.885C213.175 118.039 215.378 117.258 217.616 116.664Z" fill="#FF6600"/>
<path fill-rule="evenodd" clip-rule="evenodd" d="M229.777 115.128L229.973 110.756C227.387 110.66 224.812 110.808 222.295 111.184L222.947 115.513C225.218 115.175 227.504 115.048 229.777 115.128Z" fill="#FF6600"/>
<path fill-rule="evenodd" clip-rule="evenodd" d="M172.584 139.812L170.012 136.272C169.52 136.636 169.012 136.978 168.53 137.358L167.073 138.48L166.343 139.043C166.102 139.232 165.868 139.431 165.628 139.627L164.205 140.801L167.032 144.144L168.387 143.026C168.614 142.841 168.837 142.649 169.067 142.469L169.764 141.931L171.158 140.856C171.626 140.491 172.112 140.159 172.584 139.812Z" fill="#FF6600"/>
<path fill-rule="evenodd" clip-rule="evenodd" d="M183.213 132.903L180.99 129.132C178.898 130.356 176.833 131.641 174.792 132.971L177.191 136.633C179.17 135.342 181.172 134.093 183.213 132.903Z" fill="#FF6600"/>
<path fill-rule="evenodd" clip-rule="evenodd" d="M194.348 126.783L192.331 122.897C190.199 124 188.073 125.137 185.956 126.297L188.07 130.13C190.146 128.994 192.238 127.876 194.348 126.783Z" fill="#FF6600"/>
<path fill-rule="evenodd" clip-rule="evenodd" d="M148.832 168.376L144.765 166.758C143.842 169.09 143.066 171.487 142.463 173.935L146.712 174.979C147.268 172.738 147.978 170.53 148.832 168.376Z" fill="#FF6600"/>
<path fill-rule="evenodd" clip-rule="evenodd" d="M154.721 157.402L151.12 154.914C149.699 156.973 148.406 159.119 147.25 161.338L151.133 163.36C152.203 161.305 153.405 159.315 154.721 157.402Z" fill="#FF6600"/>
<path fill-rule="evenodd" clip-rule="evenodd" d="M162.843 147.945L159.793 144.806C158.01 146.516 156.331 148.345 154.716 150.229L158.061 153.052C159.575 151.284 161.154 149.563 162.843 147.945Z" fill="#FF6600"/>
<path fill-rule="evenodd" clip-rule="evenodd" d="M150.729 203.911L147.128 206.401C148.618 208.553 150.359 210.508 152.283 212.247L155.213 208.995C153.532 207.47 152.017 205.768 150.729 203.911Z" fill="#FF6600"/>
<path fill-rule="evenodd" clip-rule="evenodd" d="M146.127 192.702L141.837 193.569C142.348 196.088 143.107 198.562 144.115 200.939L148.141 199.226C147.255 197.128 146.583 194.938 146.127 192.702Z" fill="#FF6600"/>
<path fill-rule="evenodd" clip-rule="evenodd" d="M145.706 180.463L141.36 179.944C141.062 182.46 140.961 185.013 141.091 187.564L145.463 187.341C145.347 185.053 145.437 182.752 145.706 180.463Z" fill="#FF6600"/>
<path fill-rule="evenodd" clip-rule="evenodd" d="M182.783 215.775L184.235 219.903C186.638 219.063 188.916 217.851 190.949 216.313L191.288 216.041L188.588 212.598L188.309 212.82C186.637 214.087 184.763 215.082 182.783 215.775Z" fill="#FF6600"/>
<path fill-rule="evenodd" clip-rule="evenodd" d="M170.894 216.644L170.174 220.961C172.75 221.388 175.399 221.514 178.042 221.268L177.619 216.912C175.39 217.116 173.122 217.012 170.894 216.644Z" fill="#FF6600"/>
<path fill-rule="evenodd" clip-rule="evenodd" d="M159.602 212.298L157.277 216.005C159.467 217.376 161.798 218.518 164.236 219.401L165.721 215.285C163.584 214.513 161.528 213.506 159.602 212.298Z" fill="#FF6600"/>
<path fill-rule="evenodd" clip-rule="evenodd" d="M196.638 185.687L200.895 184.673C200.592 183.407 200.227 182.157 199.77 180.933C199.557 180.316 199.292 179.717 199.047 179.112C198.769 178.52 198.513 177.917 198.198 177.339L194.304 179.339C194.573 179.834 194.793 180.356 195.036 180.865C195.25 181.389 195.478 181.904 195.662 182.438C196.057 183.494 196.373 184.585 196.638 185.687Z" fill="#FF6600"/>
<path fill-rule="evenodd" clip-rule="evenodd" d="M197.016 197.796L201.326 198.553C201.784 195.985 201.92 193.374 201.784 190.781L197.415 191.022C197.532 193.289 197.415 195.568 197.016 197.796Z" fill="#FF6600"/>
<path fill-rule="evenodd" clip-rule="evenodd" d="M192.352 208.781L195.831 211.435C196.631 210.367 197.36 209.252 198.007 208.094C198.638 206.93 199.205 205.733 199.68 204.508L195.599 202.926C195.194 203.976 194.707 204.99 194.176 205.976C193.63 206.952 193.019 207.888 192.352 208.781Z" fill="#FF6600"/>
<path fill-rule="evenodd" clip-rule="evenodd" d="M171.316 160.91L172.716 156.763C172.116 156.568 171.523 156.368 170.921 156.18L169.104 155.678C168.501 155.497 167.884 155.372 167.275 155.233L166.355 155.025L165.895 154.921L165.433 154.839L164.606 159.137L165.034 159.211L165.458 159.308L166.304 159.499C166.868 159.627 167.436 159.741 167.99 159.91L169.663 160.372C170.218 160.543 170.765 160.731 171.316 160.91Z" fill="#FF6600"/>
<path fill-rule="evenodd" clip-rule="evenodd" d="M182.435 166.351L184.883 162.722L183.288 161.686C182.751 161.351 182.193 161.049 181.646 160.73L180.822 160.259L179.976 159.83C179.413 159.549 178.852 159.253 178.28 158.984L176.422 162.947C176.944 163.19 177.455 163.464 177.97 163.722L178.741 164.111L179.492 164.542C179.989 164.831 180.497 165.107 180.986 165.411L182.435 166.351Z" fill="#FF6600"/>
<path fill-rule="evenodd" clip-rule="evenodd" d="M191.375 174.691L194.864 172.047C193.285 170.012 191.54 168.119 189.64 166.406L186.722 169.671C188.423 171.205 189.973 172.892 191.375 174.691Z" fill="#FF6600"/>
<path fill-rule="evenodd" clip-rule="evenodd" d="M134.044 160.212L133.166 155.923C130.783 156.415 128.413 156.954 126.068 157.552L127.137 161.797C129.433 161.21 131.734 160.69 134.044 160.212Z" fill="#FF6600"/>
<path fill-rule="evenodd" clip-rule="evenodd" d="M146.545 158.37L146.187 154.008L145.266 154.081L144.351 154.177C143.741 154.244 143.127 154.303 142.519 154.377C141.304 154.539 140.085 154.688 138.882 154.89L139.559 159.216C140.718 159.021 141.885 158.879 143.048 158.724C143.631 158.653 144.214 158.598 144.799 158.534L145.673 158.439L146.545 158.37Z" fill="#FF6600"/>
<path fill-rule="evenodd" clip-rule="evenodd" d="M159.051 158.369L159.449 154.009C158.208 153.878 156.967 153.83 155.728 153.763C155.108 153.739 154.487 153.737 153.868 153.723L152.937 153.709L152.009 153.725L152.065 158.101L152.941 158.087L153.816 158.101C154.399 158.112 154.984 158.114 155.565 158.137C156.731 158.202 157.894 158.246 159.051 158.369Z" fill="#FF6600"/>
<path fill-rule="evenodd" clip-rule="evenodd" d="M96.7049 169.752L95.8375 165.462C93.5511 165.923 91.2604 166.322 88.9713 166.63L89.5504 170.968C91.9564 170.642 94.339 170.229 96.7049 169.752Z" fill="#FF6600"/>
<path fill-rule="evenodd" clip-rule="evenodd" d="M109.274 166.707L108.128 162.484C105.844 163.103 103.561 163.704 101.28 164.251L102.307 168.505C104.641 167.944 106.961 167.332 109.274 166.707Z" fill="#FF6600"/>
<path fill-rule="evenodd" clip-rule="evenodd" d="M121.598 163.27L120.432 159.048L113.533 160.985L114.717 165.197L121.598 163.27Z" fill="#FF6600"/>
<path fill-rule="evenodd" clip-rule="evenodd" d="M57.9876 166.91L59.9616 163.004C57.9976 162.009 56.1261 160.824 54.3723 159.476L51.7 162.944C53.6651 164.452 55.7691 165.786 57.9876 166.91Z" fill="#FF6600"/>
<path fill-rule="evenodd" clip-rule="evenodd" d="M70.6058 170.953L71.3257 166.635C69.1138 166.268 66.9413 165.734 64.8292 165.025L63.4294 169.172C65.7721 169.961 68.1749 170.549 70.6058 170.953Z" fill="#FF6600"/>
<path fill-rule="evenodd" clip-rule="evenodd" d="M83.6997 171.546L83.4325 167.177C81.1457 167.316 78.8662 167.335 76.6082 167.211L76.3708 171.581C78.8205 171.715 81.2695 171.694 83.6997 171.546Z" fill="#FF6600"/>
<path fill-rule="evenodd" clip-rule="evenodd" d="M35.4736 135.587L39.7961 134.897C39.4466 132.711 39.2889 130.499 39.3621 128.298L34.9873 128.17C34.9068 130.654 35.0824 133.141 35.4736 135.587Z" fill="#FF6600"/>
<path fill-rule="evenodd" clip-rule="evenodd" d="M34.8936 123.531L39.216 122.842C38.8665 120.655 38.7088 118.444 38.782 116.243L34.4072 116.114C34.3267 118.599 34.5024 121.086 34.8936 123.531Z" fill="#FF6600"/>
<path fill-rule="evenodd" clip-rule="evenodd" d="M39.5853 148.191L43.4918 146.215C42.4891 144.227 41.6421 142.161 40.9932 140.037L36.8092 141.324C37.53 143.689 38.472 145.986 39.5853 148.191Z" fill="#FF6600"/>
<path fill-rule="evenodd" clip-rule="evenodd" d="M47.2418 158.951L50.382 155.903C48.8358 154.31 47.4221 152.58 46.1616 150.747L42.5488 153.219C43.9476 155.254 45.5188 157.175 47.2418 158.951Z" fill="#FF6600"/>
</svg>
