<svg width="114" height="100" viewBox="0 0 114 100" fill="none" xmlns="http://www.w3.org/2000/svg">
<path fill-rule="evenodd" clip-rule="evenodd" d="M21.3896 48.4271L24.0806 49.604C24.683 48.2096 25.4333 46.887 26.2993 45.655L23.9019 43.9597C22.915 45.3595 22.0681 46.8573 21.3896 48.4271Z" fill="#FF6600"/>
<path fill-rule="evenodd" clip-rule="evenodd" d="M19.183 57.2918L22.1111 57.5256C22.2328 56.0026 22.494 54.4915 22.8851 53.0181L20.0479 52.2593C19.6079 53.9061 19.3176 55.5925 19.183 57.2918Z" fill="#FF6600"/>
<path fill-rule="evenodd" clip-rule="evenodd" d="M19.9356 66.3652L22.7834 65.6429C22.4132 64.1681 22.1733 62.6554 22.0819 61.1327L19.1512 61.3158C19.2515 63.0172 19.5187 64.7083 19.9356 66.3652Z" fill="#FF6600"/>
<path fill-rule="evenodd" clip-rule="evenodd" d="M43.3302 34.2266L43.2905 37.1629C44.7934 37.176 46.2887 37.3751 47.7362 37.7235L48.4421 34.8721C46.7639 34.4676 45.0475 34.2418 43.3302 34.2266Z" fill="#FF6600"/>
<path fill-rule="evenodd" clip-rule="evenodd" d="M34.2992 35.8461L35.3577 38.5858C36.0614 38.3198 36.775 38.0752 37.5061 37.8871C38.2332 37.6856 38.9727 37.537 39.716 37.4161L39.258 34.514C38.4117 34.6505 37.5711 34.8214 36.7438 35.0496C35.9142 35.2649 35.1024 35.5429 34.2992 35.8461Z" fill="#FF6600"/>
<path fill-rule="evenodd" clip-rule="evenodd" d="M26.5859 40.7947L28.6476 42.8849L29.0516 42.4945C29.1871 42.3659 29.3297 42.2478 29.4684 42.1223C29.742 41.8702 30.0399 41.6459 30.3269 41.4102C30.9227 40.9617 31.5293 40.5247 32.177 40.1473L30.6584 37.6335C29.9168 38.0702 29.2146 38.5722 28.5277 39.0911C28.1945 39.3639 27.8505 39.6252 27.532 39.9169C27.3715 40.0603 27.2059 40.2001 27.0498 40.3489L26.5859 40.7947Z" fill="#FF6600"/>
<path fill-rule="evenodd" clip-rule="evenodd" d="M63.1325 50.6044L60.2483 51.1579L60.3041 51.4309L60.3469 51.7061L60.432 52.2583C60.466 52.6291 60.5236 52.9968 60.5372 53.3675C60.5991 54.1092 60.5836 54.8497 60.5507 55.587L63.4829 55.7606C63.5219 54.8963 63.5367 54.0306 63.4668 53.1677C63.4492 52.7364 63.3858 52.3075 63.3447 51.8793L63.2475 51.2395L63.198 50.9193L63.1325 50.6044Z" fill="#FF6600"/>
<path fill-rule="evenodd" clip-rule="evenodd" d="M59.4849 42.1417L57.1153 43.8784C57.9759 45.0751 58.7127 46.3753 59.2548 47.7634L61.9819 46.6725C61.3532 45.0654 60.4963 43.5484 59.4849 42.1417Z" fill="#FF6600"/>
<path fill-rule="evenodd" clip-rule="evenodd" d="M52.3715 36.2767L51.1101 38.9295L51.6073 39.1716L52.0909 39.4382L52.3327 39.5715L52.5668 39.7168L53.0373 40.006C53.3369 40.2184 53.6526 40.4112 53.9346 40.6407C54.0786 40.7523 54.2244 40.8583 54.3672 40.9736L54.7825 41.3299L56.7203 39.1234L56.2235 38.6992C56.0547 38.5615 55.8792 38.4322 55.7068 38.2996C55.3667 38.0257 54.9986 37.7964 54.643 37.5465L54.0901 37.2054L53.8126 37.0346L53.5288 36.8782L52.9585 36.5667L52.3715 36.2767Z" fill="#FF6600"/>
<path fill-rule="evenodd" clip-rule="evenodd" d="M49.1957 71.297L49.1166 68.3612C48.4486 68.3761 47.7918 68.3145 47.165 68.168C46.54 68.0158 45.945 67.7786 45.3926 67.4623L43.9265 70.0076C44.7259 70.4669 45.5923 70.8075 46.4841 71.0249C47.3782 71.2348 48.292 71.3196 49.1957 71.297Z" fill="#FF6600"/>
<path fill-rule="evenodd" clip-rule="evenodd" d="M57.8626 67.758L55.9498 65.5291C54.8712 66.4586 53.6227 67.2071 52.3078 67.704L53.3454 70.4516C55.0014 69.8235 56.5274 68.9039 57.8626 67.758Z" fill="#FF6600"/>
<path fill-rule="evenodd" clip-rule="evenodd" d="M62.7809 59.8937L59.9572 59.0837C59.5639 60.4909 58.9442 61.8146 58.16 63.0204L60.6082 64.6431C61.5668 63.1753 62.3113 61.5704 62.7809 59.8937Z" fill="#FF6600"/>
<path fill-rule="evenodd" clip-rule="evenodd" d="M40.6896 49.0729L43.3877 50.2335C44.009 48.8038 44.7104 47.4069 45.5119 46.0712L42.9886 44.5668C42.1213 46.0175 41.3613 47.5255 40.6896 49.0729Z" fill="#FF6600"/>
<path fill-rule="evenodd" clip-rule="evenodd" d="M38.528 57.9672L41.4612 58.1104C41.5354 56.6221 41.7815 55.1207 42.1777 53.6571L39.3417 52.8945C38.8956 54.5476 38.6143 56.245 38.528 57.9672Z" fill="#FF6600"/>
<path fill-rule="evenodd" clip-rule="evenodd" d="M40.6974 67.0248L43.117 65.3587C42.3734 64.2816 41.8938 62.9638 41.6485 61.5559L38.7563 62.062C39.0579 63.7881 39.6611 65.5184 40.6974 67.0248Z" fill="#FF6600"/>
<path fill-rule="evenodd" clip-rule="evenodd" d="M59.6328 30.3589L60.574 33.1405C61.2928 32.9057 62.0188 32.6875 62.7556 32.5278C63.4938 32.3501 64.2134 32.2466 64.9569 32.1586L64.6545 29.2365C63.7991 29.3354 62.9365 29.4647 62.1035 29.6646C61.2675 29.8472 60.4455 30.0914 59.6328 30.3589Z" fill="#FF6600"/>
<path fill-rule="evenodd" clip-rule="evenodd" d="M51.6067 34.7169L53.3998 37.0423C54.6137 36.0989 55.9086 35.2724 57.2572 34.5647L55.8993 31.9608C54.388 32.7518 52.9475 33.673 51.6067 34.7169Z" fill="#FF6600"/>
<path fill-rule="evenodd" clip-rule="evenodd" d="M45.2636 41.1815L47.6101 42.9493C48.5446 41.7075 49.5619 40.53 50.6619 39.4432L48.5929 37.357C47.389 38.5491 46.2802 39.8318 45.2636 41.1815Z" fill="#FF6600"/>
<path fill-rule="evenodd" clip-rule="evenodd" d="M84.7185 37.6145L82.3797 39.3913L82.5486 39.6088L82.7048 39.8347L83.0159 40.284L83.3013 40.7501L83.4434 40.9819L83.5727 41.2221L83.8299 41.7L84.0603 42.1922C84.2233 42.5164 84.3353 42.8598 84.475 43.1932L87.2338 42.1857C87.0688 41.7811 86.9277 41.3653 86.7321 40.9738C86.6392 40.7754 86.5506 40.5764 86.4528 40.3806L86.1441 39.803L85.9882 39.5158L85.8177 39.2364L85.4761 38.6795L85.1059 38.1425L84.9195 37.8746L84.7185 37.6145Z" fill="#FF6600"/>
<path fill-rule="evenodd" clip-rule="evenodd" d="M77.6074 31.746L76.2606 34.3564C77.5935 35.0464 78.8518 35.8733 79.9712 36.8462L81.8863 34.6205C80.5807 33.4863 79.1335 32.534 77.6074 31.746Z" fill="#FF6600"/>
<path fill-rule="evenodd" clip-rule="evenodd" d="M68.8163 29.2066L68.5664 32.1339C70.0582 32.2705 71.5479 32.5478 72.9816 33.0086L73.8608 30.2062C72.225 29.6835 70.5291 29.3637 68.8163 29.2066Z" fill="#FF6600"/>
</svg>
