<svg width="93" height="72" viewBox="0 0 93 72" fill="none" xmlns="http://www.w3.org/2000/svg">
<path d="M45.8604 70.4465C45.6807 70.4465 45.5026 70.3871 45.3571 70.2749C45.1539 70.1189 45.0352 69.8774 45.0352 69.6213V37.0434V37.0255C45.0352 36.9312 45.0514 36.8385 45.0823 36.7515C45.1059 36.6857 45.1376 36.6223 45.1766 36.5646C45.2766 36.4158 45.4254 36.2995 45.6067 36.241C45.6221 36.2361 45.6384 36.2312 45.6538 36.2272L78.596 27.616C79.0366 27.5005 79.487 27.7647 79.6024 28.2054C79.6203 28.2753 79.6293 28.3452 79.6293 28.4143C79.6301 28.781 79.3837 29.1151 79.013 29.2127L47.0512 37.5679L54.7697 53.0439L78.5939 46.7887C78.841 46.7236 79.1044 46.7773 79.3069 46.9334C79.5093 47.0895 79.628 47.3309 79.628 47.5862V60.9006C79.628 61.2754 79.376 61.6022 79.0142 61.6982L46.07 70.4199C46.0017 70.4369 45.931 70.4459 45.8602 70.4459L45.8604 70.4465ZM46.6855 40.5284V68.5505L77.9793 60.2652V48.6557L54.5423 54.81C54.1642 54.91 53.7691 54.7295 53.5943 54.3807L46.6855 40.5284Z" fill="#FF6600" stroke="#FF6600" stroke-width="3"/>
<path fill-rule="evenodd" clip-rule="evenodd" d="M78.5956 27.616L45.6538 36.2271C45.6384 36.2311 45.6221 36.236 45.6067 36.2409C45.4254 36.2994 45.2766 36.4157 45.1766 36.5645C45.1376 36.6222 45.1059 36.6856 45.0823 36.7515C45.0514 36.8385 45.0352 36.9311 45.0352 37.0254V69.6212C45.0352 69.8773 45.1539 70.1188 45.3571 70.2749C45.5017 70.3864 45.6785 70.4457 45.8571 70.4464C45.8582 70.4464 45.8593 70.4464 45.8604 70.4464C45.8615 70.4464 45.8625 70.4458 45.8636 70.4458C45.9332 70.4455 46.0028 70.4366 46.07 70.4198L79.0142 61.6981C79.376 61.6021 79.628 61.2753 79.628 60.9005V47.5861C79.628 47.3309 79.5093 47.0894 79.3069 46.9333C79.1044 46.7772 78.841 46.7235 78.5939 46.7886L54.7697 53.0438L47.0512 37.5678L79.013 29.2126C79.0129 29.2126 79.0131 29.2126 79.013 29.2126C79.0133 29.2125 79.0139 29.2123 79.0142 29.2123C79.3843 29.1143 79.6301 28.7805 79.6293 28.4142C79.6293 28.3451 79.6203 28.2752 79.6024 28.2053C79.487 27.7647 79.0363 27.5005 78.5956 27.616ZM78.8044 28.4144L79.6024 28.2053L78.8039 28.4096L78.8044 28.4144ZM46.6855 40.5283V68.5504L77.9793 60.2651V48.6557L54.5423 54.8099C54.1642 54.9099 53.7691 54.7294 53.5943 54.3807L46.6855 40.5283Z" fill="#FF6600"/>
<path d="M79.013 29.2126C79.0129 29.2126 79.0131 29.2126 79.013 29.2126ZM79.013 29.2126C79.0133 29.2125 79.0139 29.2123 79.0142 29.2123C79.3843 29.1143 79.6301 28.7805 79.6293 28.4142C79.6293 28.3451 79.6203 28.2752 79.6024 28.2053M79.013 29.2126L47.0512 37.5678L54.7697 53.0438L78.5939 46.7886C78.841 46.7235 79.1044 46.7772 79.3069 46.9333C79.5093 47.0894 79.628 47.3309 79.628 47.5861V60.9005C79.628 61.2753 79.376 61.6022 79.0142 61.6981L46.07 70.4198C46.0028 70.4366 45.9332 70.4455 45.8636 70.4458C45.8625 70.4458 45.8615 70.4464 45.8604 70.4464C45.8593 70.4464 45.8582 70.4464 45.8571 70.4464C45.6785 70.4457 45.5017 70.3864 45.3571 70.2749C45.1539 70.1188 45.0352 69.8773 45.0352 69.6212V37.0254C45.0352 36.9311 45.0514 36.8385 45.0823 36.7515C45.1059 36.6856 45.1376 36.6222 45.1766 36.5645C45.2766 36.4157 45.4254 36.2994 45.6067 36.2409C45.6221 36.236 45.6384 36.2311 45.6538 36.2271L78.5956 27.616C79.0363 27.5005 79.487 27.7647 79.6024 28.2053M79.6024 28.2053L78.8044 28.4144L78.8039 28.4096L79.6024 28.2053ZM46.6855 40.5284L53.5943 54.3807C53.7691 54.7294 54.1642 54.9099 54.5423 54.8099L77.9793 48.6557V60.2651L46.6855 68.5504V40.5284Z" stroke="#FF6600" stroke-width="3"/>
<path d="M45.8628 70.4468C45.7921 70.4468 45.7214 70.4378 45.6515 70.4191L12.8259 61.6974C12.4641 61.6015 12.2129 61.2738 12.2129 60.8999V47.5854C12.2129 47.3293 12.3316 47.0879 12.534 46.9326C12.7365 46.7757 13.0007 46.7229 13.2478 46.7879L36.9575 53.0423L44.6736 37.5663L12.8303 29.2119C12.4596 29.1143 12.2141 28.7802 12.2141 28.4144C12.2141 28.3453 12.223 28.2745 12.2417 28.2046C12.3572 27.764 12.8084 27.5006 13.249 27.616L46.0538 36.2224C46.4188 36.3078 46.6904 36.6354 46.6904 37.0257C46.6904 37.0346 46.6895 37.0435 46.6895 37.0517V69.6213C46.6895 69.8774 46.5709 70.1188 46.3676 70.2749C46.2204 70.3879 46.0432 70.4472 45.8635 70.4472L45.8628 70.4468ZM13.8614 60.2657L45.0387 68.5493V40.5314L38.1339 54.3815C37.9599 54.7311 37.5632 54.9108 37.1851 54.8108L13.8626 48.6582L13.8614 60.2657Z" fill="#FF6600" stroke="#FF6600" stroke-width="3"/>
<path fill-rule="evenodd" clip-rule="evenodd" d="M46.6895 37.0517C46.6895 37.0477 46.6897 37.0435 46.6899 37.0393C46.6901 37.0348 46.6904 37.0302 46.6904 37.0257C46.6904 36.6354 46.4188 36.3078 46.0538 36.2224L13.249 27.616C12.8084 27.5006 12.3572 27.764 12.2417 28.2046C12.223 28.2745 12.2141 28.3453 12.2141 28.4144C12.2141 28.7802 12.4596 29.1143 12.8303 29.2119L44.6736 37.5663L36.9575 53.0423L13.2478 46.7879C13.0007 46.7229 12.7365 46.7757 12.534 46.9326C12.3316 47.0879 12.2129 47.3293 12.2129 47.5854V60.8999C12.2129 61.2738 12.4641 61.6015 12.8259 61.6974L45.6515 70.4191C45.7214 70.4378 45.7921 70.4468 45.8628 70.4468C46.0425 70.4468 46.2204 70.3879 46.3676 70.2749C46.5709 70.1188 46.6895 69.8774 46.6895 69.6213V37.0517ZM45.0387 40.5314L38.1339 54.3815C37.9599 54.7311 37.5632 54.9108 37.1851 54.8108L13.8626 48.6582L13.8614 60.2657L45.0387 68.5493V40.5314Z" fill="#FF6600"/>
<path d="M45.8656 69.6213L46.1671 70.0138M46.6895 37.0517C46.6895 37.0477 46.6897 37.0435 46.6899 37.0393C46.6901 37.0348 46.6904 37.0302 46.6904 37.0257C46.6904 36.6354 46.4188 36.3078 46.0538 36.2224L13.249 27.616C12.8084 27.5006 12.3572 27.764 12.2417 28.2046C12.223 28.2745 12.2141 28.3453 12.2141 28.4144C12.2141 28.7802 12.4596 29.1143 12.8303 29.2119L44.6736 37.5663L36.9575 53.0423L13.2478 46.7879C13.0007 46.7229 12.7365 46.7757 12.534 46.9326C12.3316 47.0879 12.2129 47.3293 12.2129 47.5854V60.8999C12.2129 61.2738 12.4641 61.6015 12.8259 61.6974L45.6515 70.4191C45.7214 70.4378 45.7921 70.4468 45.8628 70.4468C46.0425 70.4468 46.2204 70.3879 46.3676 70.2749C46.5709 70.1188 46.6895 69.8774 46.6895 69.6213V37.0517ZM45.0387 40.5314V68.5493L13.8614 60.2657L13.8626 48.6582L37.1851 54.8108C37.5632 54.9108 37.9599 54.7311 38.1339 54.3815L45.0387 40.5314Z" stroke="#FF6600" stroke-width="3"/>
<path d="M37.3952 54.8347C37.3245 54.8347 37.2538 54.8258 37.183 54.8071L4.35332 46.0854C4.1135 46.022 3.9143 45.8529 3.81267 45.6269C3.71105 45.4001 3.71674 45.1399 3.82731 44.918L12.2995 28.0427C12.4743 27.6947 12.8694 27.5159 13.2458 27.6151L46.0714 36.2271C46.3112 36.2905 46.5104 36.458 46.6128 36.684C46.7153 36.91 46.7104 37.171 46.5998 37.3929L38.1316 54.3778C37.991 54.6632 37.7015 54.8347 37.395 54.8347H37.3952ZM5.75806 44.7513L36.9582 53.0397L44.6734 37.5651L13.4754 29.3808L5.75806 44.7513Z" fill="#FF6600" stroke="#FF6600" stroke-width="3"/>
<path fill-rule="evenodd" clip-rule="evenodd" d="M4.35332 46.0854L37.183 54.8071C37.2537 54.8258 37.3244 54.8347 37.395 54.8347C37.395 54.8347 37.3951 54.8347 37.395 54.8347C37.7015 54.8347 37.991 54.6631 38.1316 54.3778L46.5998 37.3929C46.7104 37.171 46.7153 36.91 46.6128 36.684C46.5104 36.458 46.3112 36.2905 46.0714 36.2271L13.2458 27.6151C12.8694 27.5159 12.4743 27.6947 12.2995 28.0427L3.82731 44.918C3.71674 45.1399 3.71105 45.4001 3.81267 45.6269C3.9143 45.8529 4.1135 46.022 4.35332 46.0854ZM36.9582 53.0397L44.6734 37.5651L13.4754 29.3808L5.75806 44.7513L5.7592 44.7516L36.9582 53.0397Z" fill="#FF6600"/>
<path d="M37.395 54.8347C37.3244 54.8347 37.2537 54.8258 37.183 54.8071L4.35332 46.0854C4.1135 46.022 3.9143 45.8529 3.81267 45.6269C3.71105 45.4001 3.71674 45.1399 3.82731 44.918L12.2995 28.0427C12.4743 27.6947 12.8694 27.5159 13.2458 27.6151L46.0714 36.2271C46.3112 36.2905 46.5104 36.458 46.6128 36.684C46.7153 36.91 46.7104 37.171 46.5998 37.3929L38.1316 54.3778C37.991 54.6631 37.7015 54.8347 37.395 54.8347ZM37.395 54.8347C37.395 54.8347 37.3951 54.8347 37.395 54.8347ZM36.9582 53.0397L5.7592 44.7516L5.75806 44.7513L13.4754 29.3808L44.6734 37.5651L36.9582 53.0397Z" stroke="#FF6600" stroke-width="3"/>
<path d="M54.3351 54.8354C54.0278 54.8354 53.7392 54.6638 53.5969 54.3785L45.1256 37.3935C45.015 37.1708 45.0101 36.9106 45.1126 36.6846C45.2158 36.4578 45.415 36.2903 45.6548 36.2277L78.5991 27.6157C78.9755 27.5173 79.3706 27.6962 79.5446 28.0441L88.0159 44.9194C88.1273 45.1413 88.133 45.4023 88.0305 45.6283C87.9281 45.8551 87.7297 46.0234 87.4891 46.0868L54.5449 54.8085C54.4758 54.8264 54.405 54.8354 54.3351 54.8354ZM47.0555 37.5657L54.7732 53.0403L86.0857 44.751L78.3697 29.3799L47.0555 37.5657Z" fill="#FF6600" stroke="#FF6600" stroke-width="3"/>
<path fill-rule="evenodd" clip-rule="evenodd" d="M45.6548 36.2277C45.415 36.2903 45.2158 36.4578 45.1126 36.6846C45.0101 36.9106 45.015 37.1708 45.1256 37.3935L53.5969 54.3785C53.7392 54.6638 54.0278 54.8354 54.3351 54.8354C54.405 54.8354 54.4758 54.8264 54.5449 54.8085L87.4891 46.0868C87.7297 46.0234 87.9281 45.8551 88.0305 45.6283C88.133 45.4023 88.1273 45.1413 88.0159 44.9194L79.5446 28.0441C79.3706 27.6962 78.9755 27.5173 78.5991 27.6157L45.6548 36.2277ZM47.0562 37.5655L54.7732 53.0403L86.0857 44.751L78.3697 29.3799L47.0562 37.5655Z" fill="#FF6600" stroke="#FF6600" stroke-width="3"/>
<path d="M13.0362 29.2394C12.7566 29.2394 12.4907 29.0971 12.3371 28.8524L1.77802 11.9845C1.63981 11.7633 1.6138 11.4902 1.70892 11.2471C1.80404 11.004 2.0081 10.8202 2.26012 10.7511L34.1616 2.02943C34.5023 1.93593 34.8648 2.07008 35.0624 2.36276L46.5459 19.3477C46.6955 19.5696 46.7289 19.8501 46.6346 20.1005C46.5402 20.3509 46.3305 20.5404 46.072 20.6078L13.2464 29.2126C13.1765 29.2305 13.1058 29.2394 13.0366 29.2394H13.0362ZM3.76487 12.0495L13.4134 27.463L44.5261 19.3078L34.0255 3.77648L3.76487 12.0495Z" fill="#FF6600" stroke="#FF6600" stroke-width="3"/>
<path fill-rule="evenodd" clip-rule="evenodd" d="M35.0624 2.36276C34.8648 2.07008 34.5023 1.93593 34.1616 2.02943L2.26012 10.7511C2.0081 10.8202 1.80404 11.004 1.70892 11.2471C1.6138 11.4902 1.63981 11.7633 1.77802 11.9845L12.3371 28.8524C12.4907 29.0971 12.7566 29.2394 13.0362 29.2394C13.1053 29.2394 13.1765 29.2305 13.2464 29.2126L46.072 20.6078C46.3305 20.5404 46.5402 20.3509 46.6346 20.1005C46.7289 19.8501 46.6955 19.5696 46.5459 19.3477L35.0624 2.36276ZM34.0255 3.77648L3.76487 12.0495L13.4134 27.463L44.5261 19.3078L34.0255 3.77648Z" fill="#FF6600" stroke="#FF6600" stroke-width="3"/>
<path d="M78.8047 29.2398C78.7372 29.2398 78.6689 29.2316 78.6014 29.2146L45.6572 20.8375C45.3922 20.77 45.1784 20.5765 45.0849 20.3196C44.9914 20.0627 45.0312 19.7765 45.1914 19.5554L57.6042 2.34278C57.8058 2.06311 58.1603 1.93792 58.4928 2.02978L90.0467 10.7515C90.3004 10.8214 90.5061 11.0084 90.5987 11.2547C90.6914 11.5011 90.6613 11.7767 90.5174 11.9978L79.4957 28.8658C79.3413 29.1024 79.0795 29.2398 78.8055 29.2398H78.8047ZM47.2383 19.5367L78.4363 27.4699L88.5181 12.0409L58.6063 3.77267L47.2383 19.5367Z" fill="#FF6600" stroke="#FF6600" stroke-width="3"/>
<path fill-rule="evenodd" clip-rule="evenodd" d="M90.0467 10.7515L58.4928 2.02978C58.1603 1.93792 57.8058 2.06311 57.6042 2.34278L45.1914 19.5554C45.0312 19.7765 44.9914 20.0627 45.0849 20.3196C45.1784 20.5765 45.3922 20.77 45.6572 20.8375L78.6014 29.2146C78.6689 29.2316 78.7372 29.2398 78.8047 29.2398C79.0787 29.2398 79.3413 29.1024 79.4957 28.8658L90.5174 11.9978C90.6613 11.7767 90.6914 11.5011 90.5987 11.2547C90.5061 11.0084 90.3004 10.8214 90.0467 10.7515ZM88.5181 12.0409L58.6063 3.77267L47.239 19.5357L47.2383 19.5367L78.4363 27.4699L88.5181 12.0409Z" fill="#FF6600" stroke="#FF6600" stroke-width="3"/>
<path d="M45.8603 37.8505C45.4051 37.8505 45.0352 37.4814 45.0352 37.0254V19.8086C45.0352 19.3533 45.4042 18.9834 45.8603 18.9834C46.3156 18.9834 46.6855 19.3525 46.6855 19.8086V37.0254C46.6855 37.4806 46.3156 37.8505 45.8603 37.8505Z" fill="#FF6600" stroke="#FF6600" stroke-width="3"/>
<path fill-rule="evenodd" clip-rule="evenodd" d="M46.6855 27.8947C46.4137 27.8704 46.1384 27.858 45.8603 27.858C45.5822 27.858 45.307 27.8704 45.0352 27.8946L45.0352 19.8086C45.0352 19.3533 45.4042 18.9834 45.8603 18.9834C46.3156 18.9834 46.6855 19.3525 46.6855 19.8086V27.8947ZM46.6855 28.9393C46.4137 28.9635 46.1385 28.9759 45.8603 28.9759C45.5822 28.9759 45.307 28.9635 45.0352 28.9393V37.0254C45.0352 37.4814 45.4051 37.8505 45.8603 37.8505C46.3156 37.8505 46.6855 37.4806 46.6855 37.0254V28.9393Z" fill="#FF6600" stroke="#FF6600" stroke-width="3"/>
</svg>
