<svg width="74" height="67" viewBox="0 0 74 67" fill="none" xmlns="http://www.w3.org/2000/svg">
<path d="M63.0214 0.018318C62.527 0.0741727 62.0619 0.27707 61.6857 0.600809C61.3101 0.923964 61.0411 1.35257 60.9149 1.83076L48.5091 47.5741L3.17417 34.4027C2.54332 34.218 1.86488 34.2904 1.28789 34.6038C0.710957 34.9167 0.283124 35.4457 0.0990326 36.0726C-0.0850583 36.7001 -0.0105041 37.3743 0.306071 37.9466C0.622633 38.5194 1.15542 38.9434 1.78684 39.1247L49.5354 53.0115H49.536C50.1725 53.1996 50.859 53.1238 51.4394 52.8018C52.0198 52.4798 52.4448 51.9389 52.6179 51.3011L64.9727 5.76203L70.5975 8.00827C71.4187 8.33656 72.3541 8.20434 73.0509 7.66174C73.7471 7.11914 74.0998 6.24827 73.9753 5.37742C73.8509 4.50596 73.2682 3.76733 72.447 3.43904L64.2277 0.171448C63.8446 0.020988 63.4294 -0.0314513 63.0205 0.018697L63.0214 0.018318ZM20.2807 6.96146C19.7978 7.01845 19.3424 7.21623 18.9725 7.5297C18.6021 7.84316 18.3337 8.25809 18.2 8.72317L11.6249 31.5956V31.595C11.442 32.218 11.5148 32.8877 11.828 33.4571C12.1405 34.0265 12.6681 34.4494 13.2944 34.6329L44.5277 43.6182C45.158 43.7994 45.8347 43.723 46.4083 43.4073C46.9818 43.091 47.405 42.5609 47.5845 41.9333L54.1596 19.0609V19.0615C54.3426 18.4385 54.2697 17.7688 53.9566 17.1994C53.6441 16.63 53.1164 16.2071 52.4902 16.0236L21.2568 7.03776C20.9397 6.9477 20.6082 6.92148 20.2807 6.96138L20.2807 6.96146ZM22.2329 12.4495L48.7652 20.0822L43.551 38.2053L17.0186 30.573L22.2329 12.4499V12.4495ZM11.5223 44.1288C7.0123 44.1288 3.30303 47.8153 3.30303 52.2973C3.30303 56.7793 7.01245 60.4658 11.5223 60.4658C16.0322 60.4658 19.7416 56.7793 19.7416 52.2973C19.7416 47.8153 16.0322 44.1288 11.5223 44.1288ZM11.5223 49.0299C13.3672 49.0299 14.8102 50.4639 14.8102 52.2975C14.8102 54.1311 13.3673 55.5651 11.5223 55.5651C9.67729 55.5651 8.23439 54.1311 8.23439 52.2975C8.23439 50.4639 9.67729 49.0299 11.5223 49.0299ZM36.1798 50.6633C31.6698 50.6633 27.9606 54.3498 27.9606 58.8318C27.9606 63.3138 31.67 67.0002 36.1798 67.0002C40.6897 67.0002 44.3991 63.3138 44.3991 58.8318C44.3991 54.3498 40.6897 50.6633 36.1798 50.6633ZM36.1798 55.5643C38.0247 55.5643 39.4677 56.9983 39.4677 58.8319C39.4677 60.6654 38.0248 62.0995 36.1798 62.0995C34.335 62.0995 32.8919 60.6655 32.8919 58.8319C32.8919 56.9984 34.3348 55.5643 36.1798 55.5643Z" fill="#FF6600"/>
</svg>
