<svg width="472" height="207" viewBox="0 0 472 207" fill="none" xmlns="http://www.w3.org/2000/svg">
<path fill-rule="evenodd" clip-rule="evenodd" d="M434.543 154.175L438.216 156.48C437.871 157.007 437.55 157.554 437.183 158.062L436.087 159.599C435.315 160.589 434.548 161.582 433.71 162.512L430.448 159.656C431.216 158.807 431.909 157.898 432.617 157.002L433.609 155.608C433.943 155.144 434.228 154.652 434.543 154.175Z" fill="#FF6600"/>
<path fill-rule="evenodd" clip-rule="evenodd" d="M439.2 142.985L443.439 143.898L443.227 144.839L443.121 145.309L442.99 145.772C442.809 146.384 442.634 147.003 442.442 147.612L441.792 149.412C441.569 150.009 441.299 150.586 441.053 151.173L437.088 149.414C437.306 148.891 437.548 148.376 437.746 147.846L438.322 146.252C438.491 145.714 438.64 145.169 438.803 144.631L438.922 144.225L439.015 143.812L439.2 142.985Z" fill="#FF6600"/>
<path fill-rule="evenodd" clip-rule="evenodd" d="M439.232 131.054L443.47 130.129L443.666 131.08C443.729 131.398 443.803 131.714 443.836 132.039L444.084 133.969L444.192 135.912C444.217 136.236 444.212 136.56 444.204 136.884L444.187 137.854L439.853 137.725L439.869 136.886C439.876 136.605 439.883 136.324 439.858 136.047L439.764 134.369L439.551 132.705C439.526 132.425 439.46 132.153 439.403 131.879L439.232 131.054Z" fill="#FF6600"/>
<path fill-rule="evenodd" clip-rule="evenodd" d="M405.023 174.97L405.99 179.198L405.069 179.402L404.609 179.506L404.144 179.586L402.281 179.903C401.054 180.061 399.832 180.224 398.601 180.318L398.224 175.997C399.377 175.909 400.52 175.753 401.662 175.61L403.349 175.322L403.769 175.25L404.188 175.158L405.023 174.97Z" fill="#FF6600"/>
<path fill-rule="evenodd" clip-rule="evenodd" d="M416.515 170.645L418.551 174.473C416.344 175.634 414.069 176.673 411.712 177.518L410.238 173.44C412.398 172.667 414.487 171.712 416.515 170.645Z" fill="#FF6600"/>
<path fill-rule="evenodd" clip-rule="evenodd" d="M426.563 163.602L429.47 166.82C427.623 168.501 425.641 170.021 423.589 171.432L421.152 167.845C423.041 166.546 424.869 165.148 426.563 163.602Z" fill="#FF6600"/>
<path fill-rule="evenodd" clip-rule="evenodd" d="M368.084 172.331L366.852 176.491C364.536 175.801 362.242 175.053 359.969 174.254L361.413 170.163C363.624 170.94 365.847 171.666 368.084 172.331Z" fill="#FF6600"/>
<path fill-rule="evenodd" clip-rule="evenodd" d="M380.279 175.188L379.568 179.465C377.164 179.062 374.781 178.562 372.42 177.994L373.445 173.778C375.708 174.327 377.986 174.802 380.279 175.188Z" fill="#FF6600"/>
<path fill-rule="evenodd" clip-rule="evenodd" d="M392.647 176.242L392.649 180.577C390.186 180.59 387.732 180.444 385.296 180.215L385.714 175.898C388.02 176.119 390.335 176.257 392.647 176.242Z" fill="#FF6600"/>
<path d="M331.125 161.896L324.701 158.888L326.541 154.96L332.964 157.968L331.125 161.896Z" fill="#FF6600"/>
<path fill-rule="evenodd" clip-rule="evenodd" d="M344.489 163.288L342.716 167.246C340.54 166.274 338.382 165.278 336.228 164.282L338.055 160.349C340.197 161.341 342.339 162.327 344.489 163.288Z" fill="#FF6600"/>
<path fill-rule="evenodd" clip-rule="evenodd" d="M356.099 168.186L354.522 172.226C352.287 171.355 350.072 170.447 347.877 169.506L349.58 165.517C351.741 166.443 353.914 167.333 356.099 168.186Z" fill="#FF6600"/>
<path d="M296.517 145.689L290.094 142.681L291.933 138.753L298.357 141.761L296.517 145.689Z" fill="#FF6600"/>
<path d="M308.035 151.084L301.612 148.076L303.451 144.148L309.874 147.156L308.035 151.084Z" fill="#FF6600"/>
<path d="M319.523 156.464L313.1 153.456L314.939 149.528L321.362 152.536L319.523 156.464Z" fill="#FF6600"/>
<path d="M261.908 129.481L255.485 126.473L257.324 122.545L263.747 125.553L261.908 129.481Z" fill="#FF6600"/>
<path d="M273.431 134.878L267.008 131.87L268.847 127.942L275.271 130.95L273.431 134.878Z" fill="#FF6600"/>
<path d="M284.914 140.255L278.49 137.247L280.33 133.319L286.753 136.327L284.914 140.255Z" fill="#FF6600"/>
<path d="M227.3 113.273L220.877 110.265L222.717 106.337L229.14 109.345L227.3 113.273Z" fill="#FF6600"/>
<path d="M238.822 118.671L232.399 115.663L234.238 111.735L240.661 114.743L238.822 118.671Z" fill="#FF6600"/>
<path d="M250.306 124.049L243.883 121.041L245.722 117.113L252.146 120.121L250.306 124.049Z" fill="#FF6600"/>
<path d="M192.695 97.0661L186.272 94.0581L188.111 90.1304L194.534 93.1384L192.695 97.0661Z" fill="#FF6600"/>
<path d="M204.214 102.462L197.791 99.4536L199.631 95.5259L206.054 98.5339L204.214 102.462Z" fill="#FF6600"/>
<path d="M215.697 107.84L209.274 104.832L211.113 100.904L217.536 103.912L215.697 107.84Z" fill="#FF6600"/>
<path fill-rule="evenodd" clip-rule="evenodd" d="M159.728 77.2166L158.053 81.2168C156.971 80.7678 155.893 80.3104 154.807 79.8814C153.721 79.4437 152.638 79.0063 151.548 78.5915L153.113 74.548C154.226 74.9704 155.328 75.418 156.431 75.8599C157.534 76.2989 158.629 76.7634 159.728 77.2166Z" fill="#FF6600"/>
<path fill-rule="evenodd" clip-rule="evenodd" d="M171.412 82.3588L169.611 86.3028C168.541 85.8113 167.471 85.3284 166.397 84.8481C165.327 84.3624 164.253 83.8908 163.176 83.419L164.918 79.4472C166.006 79.9228 167.092 80.401 168.171 80.8903C169.255 81.3743 170.337 81.8639 171.412 82.3588Z" fill="#FF6600"/>
<path fill-rule="evenodd" clip-rule="evenodd" d="M182.93 87.7067L181.089 91.6361L174.671 88.6348L176.5 84.7016L182.93 87.7067Z" fill="#FF6600"/>
<path fill-rule="evenodd" clip-rule="evenodd" d="M122.939 65.9155L122.229 70.1932C119.953 69.8115 117.668 69.5131 115.378 69.2753L115.81 64.9587C118.197 65.2099 120.578 65.5184 122.939 65.9155Z" fill="#FF6600"/>
<path fill-rule="evenodd" clip-rule="evenodd" d="M135.512 68.6824L134.371 72.866L131.007 71.9942L127.628 71.217L128.541 66.9781L132.04 67.7821L135.512 68.6824Z" fill="#FF6600"/>
<path fill-rule="evenodd" clip-rule="evenodd" d="M147.709 72.5359L146.254 76.6226C144.057 75.8469 141.853 75.0995 139.633 74.4118L140.924 70.2717C143.204 70.9757 145.462 71.7417 147.709 72.5359Z" fill="#FF6600"/>
<path fill-rule="evenodd" clip-rule="evenodd" d="M84.3879 67.1796L85.5233 71.365C83.3368 71.9646 81.1708 72.6731 79.0645 73.4731L77.4947 69.4311C79.7596 68.5679 82.0561 67.8202 84.3879 67.1796Z" fill="#FF6600"/>
<path fill-rule="evenodd" clip-rule="evenodd" d="M97.14 64.8707L97.5634 69.1867L95.859 69.3653C95.2895 69.417 94.7304 69.5217 94.1649 69.5969L92.4726 69.8432C91.9115 69.9362 91.3544 70.0526 90.7953 70.1573L89.9848 65.8955C90.5792 65.7849 91.1686 65.6622 91.7621 65.563L93.5513 65.3011C94.1492 65.2197 94.7433 65.1119 95.3421 65.0566L97.14 64.8707Z" fill="#FF6600"/>
<path fill-rule="evenodd" clip-rule="evenodd" d="M110.021 64.5495L109.832 68.882C109.259 68.8609 108.685 68.8195 108.112 68.8129L106.39 68.7959C105.241 68.7651 104.098 68.8102 102.953 68.8378L102.813 64.503C104.016 64.4713 105.217 64.4278 106.418 64.4568L108.22 64.4771C108.823 64.4859 109.42 64.5263 110.021 64.5495Z" fill="#FF6600"/>
<path fill-rule="evenodd" clip-rule="evenodd" d="M51.9452 87.9665L55.3319 90.6757C53.9351 92.4267 52.6563 94.2651 51.5163 96.1838L47.787 93.9672C49.0335 91.8711 50.4266 89.8675 51.9452 87.9665Z" fill="#FF6600"/>
<path fill-rule="evenodd" clip-rule="evenodd" d="M61.1928 78.7807L63.8913 82.1763C62.1272 83.577 60.4478 85.0829 58.8713 86.6837L55.7798 83.6435C57.4855 81.9105 59.2958 80.2872 61.1928 78.7807Z" fill="#FF6600"/>
<path fill-rule="evenodd" clip-rule="evenodd" d="M72.1346 71.8016L74.0767 75.681C72.0585 76.6909 70.1009 77.8186 68.2131 79.056L65.8371 75.4273C67.8624 74.099 69.9686 72.8871 72.1346 71.8016Z" fill="#FF6600"/>
<path fill-rule="evenodd" clip-rule="evenodd" d="M42.0377 124.942L46.2993 124.134C46.7115 126.306 47.3033 128.443 48.0653 130.517L43.9939 132.015C43.1509 129.714 42.4957 127.346 42.0377 124.942Z" fill="#FF6600"/>
<path fill-rule="evenodd" clip-rule="evenodd" d="M41.5538 111.811L45.8615 112.32C45.6031 114.502 45.5368 116.712 45.6594 118.917L41.3286 119.156C41.1928 116.71 41.2639 114.25 41.5538 111.811Z" fill="#FF6600"/>
<path fill-rule="evenodd" clip-rule="evenodd" d="M45.0742 99.2031L49.0393 100.957C48.1372 102.986 47.4038 105.084 46.8383 107.224L42.6465 106.115C43.27 103.75 44.0811 101.435 45.0742 99.2031Z" fill="#FF6600"/>
<path fill-rule="evenodd" clip-rule="evenodd" d="M65.7078 154.755L67.1519 150.665C69.1534 151.37 71.256 151.82 73.395 152.023L72.986 156.341C70.5159 156.107 68.0621 155.587 65.7078 154.755Z" fill="#FF6600"/>
<path fill-rule="evenodd" clip-rule="evenodd" d="M54.4034 147.844L57.3383 144.651C58.9358 146.12 60.6797 147.421 62.5415 148.51L60.3526 152.256C58.2164 151.003 56.2204 149.512 54.4034 147.844Z" fill="#FF6600"/>
<path fill-rule="evenodd" clip-rule="evenodd" d="M46.4086 137.421L50.2346 135.382C51.2678 137.324 52.4674 139.177 53.8318 140.886L50.4362 143.585C48.9 141.659 47.5609 139.587 46.4086 137.421Z" fill="#FF6600"/>
<path fill-rule="evenodd" clip-rule="evenodd" d="M102.179 144.766L98.8718 141.962C100.244 140.339 101.4 138.555 102.275 136.654L106.218 138.463C105.166 140.743 103.79 142.861 102.179 144.766Z" fill="#FF6600"/>
<path fill-rule="evenodd" clip-rule="evenodd" d="M91.6618 152.839L89.7528 148.945C91.6999 147.99 93.5407 146.836 95.2218 145.496L97.9297 148.883C95.9891 150.43 93.8804 151.749 91.6618 152.839Z" fill="#FF6600"/>
<path fill-rule="evenodd" clip-rule="evenodd" d="M78.9733 156.371L78.6052 152.05C80.7621 151.872 82.906 151.449 84.9845 150.821L86.2385 154.972C83.875 155.685 81.4395 156.167 78.9733 156.371Z" fill="#FF6600"/>
<path fill-rule="evenodd" clip-rule="evenodd" d="M102.318 107.425L98.6689 109.767C97.4683 107.891 96.1194 106.093 94.6597 104.379L97.9651 101.572C99.5389 103.422 101.004 105.371 102.318 107.425Z" fill="#FF6600"/>
<path fill-rule="evenodd" clip-rule="evenodd" d="M107.666 119.449L103.458 120.505C102.929 118.411 102.186 116.352 101.232 114.367L105.151 112.507C106.216 114.721 107.062 117.048 107.666 119.449Z" fill="#FF6600"/>
<path fill-rule="evenodd" clip-rule="evenodd" d="M108.08 132.688L103.823 131.849C104.231 129.764 104.369 127.634 104.244 125.504L108.574 125.242C108.721 127.727 108.559 130.24 108.08 132.688Z" fill="#FF6600"/>
<path fill-rule="evenodd" clip-rule="evenodd" d="M73.0779 82.3172L70.8695 86.0528L64.7559 82.4544L66.9641 78.7216L73.0779 82.3172Z" fill="#FF6600"/>
<path fill-rule="evenodd" clip-rule="evenodd" d="M83.9413 89.1272L81.4899 92.7049L80.057 91.7329C79.5803 91.409 79.085 91.101 78.599 90.7851L77.1346 89.8455L75.6483 88.9273L77.9258 85.2347L79.4454 86.1728L80.9511 87.1417C81.4508 87.4674 81.9601 87.7822 82.4532 88.119L83.9413 89.1272Z" fill="#FF6600"/>
<path fill-rule="evenodd" clip-rule="evenodd" d="M93.9675 97.294L90.9326 100.392C89.315 98.8079 87.613 97.3019 85.8314 95.8882L88.5325 92.4951C90.426 93.9986 92.2395 95.6003 93.9675 97.294Z" fill="#FF6600"/>
<path fill-rule="evenodd" clip-rule="evenodd" d="M42.7693 60.2323L39.4347 63.0052C37.814 61.0472 36.3837 58.9531 35.1379 56.7602L38.9081 54.6183C40.0337 56.6019 41.3238 58.485 42.7693 60.2323Z" fill="#FF6600"/>
<path fill-rule="evenodd" clip-rule="evenodd" d="M51.7801 68.7151L49.109 72.1337C48.6279 71.7543 48.1433 71.3834 47.6684 70.9987L46.2644 69.8028C45.3153 69.0247 44.4279 68.1616 43.5242 67.3204L46.5268 64.1912C47.3738 64.9759 48.1961 65.7818 49.0935 66.5152L50.4131 67.6409C50.8636 68.0034 51.3236 68.355 51.7801 68.7151Z" fill="#FF6600"/>
<path fill-rule="evenodd" clip-rule="evenodd" d="M62.0934 75.7848L59.8103 79.4741L58.2798 78.5265L56.7606 77.545C56.2556 77.213 55.7463 76.8982 55.245 76.555L53.7436 75.5313L56.2061 71.9602C57.1674 72.6174 58.1285 73.2774 59.1182 73.9049L60.5933 74.8569L62.0934 75.7848Z" fill="#FF6600"/>
<path fill-rule="evenodd" clip-rule="evenodd" d="M35.7551 26.0944L31.7795 24.3634C32.8456 21.9372 34.2769 19.6263 36.1022 17.659L39.3072 20.5804C37.8112 22.1903 36.6443 24.0809 35.7551 26.0944Z" fill="#FF6600"/>
<path fill-rule="evenodd" clip-rule="evenodd" d="M33.826 37.8416L29.4959 38.0726C29.3656 35.5163 29.5024 32.9198 29.9705 30.3518L34.2364 31.1395C33.8352 33.3299 33.7101 35.588 33.826 37.8416Z" fill="#FF6600"/>
<path fill-rule="evenodd" clip-rule="evenodd" d="M36.515 49.6601L32.4898 51.2748C31.5543 48.9318 30.8133 46.5111 30.2917 44.029L34.5364 43.1389C35.0029 45.3586 35.6722 47.5447 36.515 49.6601Z" fill="#FF6600"/>
</svg>
