<svg width="958" height="122" viewBox="0 0 958 122" fill="none" xmlns="http://www.w3.org/2000/svg">
<path d="M0.217329 95.0002V0.454787H20.2067V39.464H60.7855V0.454787H80.7287V95.0002H60.7855V55.9448H20.2067V95.0002H0.217329ZM141.11 96.339C136.586 96.339 132.555 95.5542 129.015 93.9846C125.476 92.3842 122.675 90.0298 120.613 86.9214C118.582 83.7822 117.566 79.8736 117.566 75.1956C117.566 71.2562 118.29 67.9477 119.736 65.2701C121.183 62.5926 123.152 60.4382 125.645 58.8071C128.138 57.1759 130.97 55.9448 134.139 55.1139C137.34 54.2829 140.695 53.6982 144.203 53.3596C148.327 52.9287 151.651 52.5287 154.175 52.1593C156.699 51.7592 158.53 51.1745 159.669 50.4051C160.807 49.6357 161.377 48.4969 161.377 46.9889V46.7119C161.377 43.7881 160.453 41.526 158.607 39.9257C156.791 38.3253 154.206 37.5251 150.851 37.5251C147.312 37.5251 144.496 38.3099 142.403 39.8795C140.31 41.4183 138.925 43.3573 138.248 45.6963L120.059 44.219C120.983 39.9103 122.798 36.1863 125.507 33.0471C128.215 29.8771 131.708 27.4458 135.986 25.7531C140.295 24.0296 145.281 23.1679 150.943 23.1679C154.883 23.1679 158.653 23.6295 162.254 24.5528C165.885 25.4761 169.102 26.9072 171.902 28.8461C174.734 30.785 176.965 33.2779 178.596 36.3248C180.227 39.3409 181.043 42.9572 181.043 47.1735V95.0002H162.392V85.1671H161.838C160.7 87.3831 159.176 89.3374 157.268 91.0301C155.36 92.692 153.067 94 150.389 94.9541C147.712 95.8774 144.619 96.339 141.11 96.339ZM146.742 82.7666C149.635 82.7666 152.19 82.1972 154.406 81.0585C156.622 79.889 158.361 78.3194 159.622 76.3497C160.884 74.38 161.515 72.1487 161.515 69.6558V62.1309C160.9 62.531 160.053 62.9003 158.976 63.2389C157.93 63.5466 156.745 63.839 155.421 64.116C154.098 64.3622 152.775 64.593 151.451 64.8085C150.128 64.9931 148.928 65.1624 147.85 65.3163C145.542 65.6548 143.526 66.1934 141.803 66.9321C140.079 67.6707 138.741 68.6709 137.787 69.9328C136.832 71.1638 136.355 72.7027 136.355 74.5492C136.355 77.2268 137.325 79.2734 139.264 80.6892C141.233 82.0741 143.726 82.7666 146.742 82.7666ZM267.208 121.591V83.6437H266.607C265.684 85.6134 264.376 87.5677 262.683 89.5066C261.022 91.4148 258.852 92.9998 256.174 94.2616C253.527 95.5234 250.296 96.1544 246.48 96.1544C241.094 96.1544 236.216 94.7694 231.845 91.9995C227.506 89.1989 224.059 85.0902 221.504 79.6735C218.981 74.2261 217.719 67.5476 217.719 59.638C217.719 51.513 219.027 44.7576 221.643 39.3717C224.259 33.955 227.737 29.9079 232.076 27.2304C236.446 24.522 241.232 23.1679 246.433 23.1679C250.404 23.1679 253.712 23.8449 256.359 25.1991C259.036 26.5225 261.191 28.1844 262.822 30.1849C264.484 32.1546 265.746 34.0935 266.607 36.0017H267.438V24.0912H286.828V121.591H267.208ZM252.712 80.5045C255.882 80.5045 258.559 79.6428 260.745 77.9193C262.96 76.165 264.653 73.7183 265.823 70.5791C267.023 67.4399 267.623 63.7621 267.623 59.5457C267.623 55.3293 267.038 51.6669 265.869 48.5585C264.699 45.4501 263.007 43.0495 260.791 41.3568C258.575 39.6641 255.882 38.8177 252.712 38.8177C249.48 38.8177 246.757 39.6948 244.541 41.4491C242.325 43.2034 240.647 45.6347 239.509 48.7431C238.37 51.8516 237.801 55.4524 237.801 59.5457C237.801 63.6698 238.37 67.3168 239.509 70.4867C240.678 73.626 242.356 76.0881 244.541 77.8731C246.757 79.6274 249.48 80.5045 252.712 80.5045ZM373.523 121.591V83.6437H372.923C372 85.6134 370.692 87.5677 368.999 89.5066C367.337 91.4148 365.167 92.9998 362.49 94.2616C359.843 95.5234 356.612 96.1544 352.795 96.1544C347.409 96.1544 342.531 94.7694 338.161 91.9995C333.822 89.1989 330.375 85.0902 327.82 79.6735C325.296 74.2261 324.035 67.5476 324.035 59.638C324.035 51.513 325.343 44.7576 327.959 39.3717C330.575 33.955 334.052 29.9079 338.392 27.2304C342.762 24.522 347.548 23.1679 352.749 23.1679C356.719 23.1679 360.028 23.8449 362.674 25.1991C365.352 26.5225 367.506 28.1844 369.138 30.1849C370.799 32.1546 372.061 34.0935 372.923 36.0017H373.754V24.0912H393.143V121.591H373.523ZM359.027 80.5045C362.197 80.5045 364.875 79.6428 367.06 77.9193C369.276 76.165 370.969 73.7183 372.138 70.5791C373.339 67.4399 373.939 63.7621 373.939 59.5457C373.939 55.3293 373.354 51.6669 372.184 48.5585C371.015 45.4501 369.322 43.0495 367.106 41.3568C364.89 39.6641 362.197 38.8177 359.027 38.8177C355.796 38.8177 353.072 39.6948 350.856 41.4491C348.64 43.2034 346.963 45.6347 345.824 48.7431C344.686 51.8516 344.116 55.4524 344.116 59.5457C344.116 63.6698 344.686 67.3168 345.824 70.4867C346.994 73.626 348.671 76.0881 350.856 77.8731C353.072 79.6274 355.796 80.5045 359.027 80.5045ZM432.982 95.0002V24.0912H452.648V95.0002H432.982ZM492.452 95.0002V24.0912H511.194V36.6018H512.025C513.503 32.447 515.965 29.1693 519.412 26.7687C522.859 24.3681 526.983 23.1679 531.784 23.1679C536.647 23.1679 540.786 24.3835 544.202 26.8149C547.618 29.2154 549.896 32.4778 551.035 36.6018H551.773C553.22 32.5393 555.836 29.2924 559.621 26.861C563.438 24.3989 567.946 23.1679 573.148 23.1679C579.765 23.1679 585.135 25.276 589.259 29.4924C593.414 33.678 595.491 39.6179 595.491 47.312V95.0002H575.871V51.1899C575.871 47.2505 574.825 44.2959 572.732 42.3262C570.639 40.3565 568.023 39.3717 564.884 39.3717C561.314 39.3717 558.529 40.5104 556.528 42.7879C554.528 45.0346 553.528 48.0045 553.528 51.6977V95.0002H534.461V50.7744C534.461 47.2966 533.461 44.5268 531.461 42.4647C529.491 40.4027 526.89 39.3717 523.659 39.3717C521.474 39.3717 519.504 39.9257 517.75 41.0336C516.026 42.1108 514.657 43.6342 513.641 45.6039C512.626 47.5429 512.118 49.8203 512.118 52.4363V95.0002H492.452ZM635.076 95.0002V24.0912H654.742V95.0002H635.076ZM694.176 95.0002V83.2744L728.892 40.295V39.7872H695.377V24.0912H752.575V36.8788L719.982 78.7964V79.3042H753.775V95.0002H694.176ZM816.961 96.1544C811.575 96.1544 806.697 94.7694 802.327 91.9995C797.988 89.1989 794.541 85.0902 791.986 79.6735C789.462 74.2261 788.201 67.5476 788.201 59.638C788.201 51.513 789.509 44.7576 792.125 39.3717C794.741 33.955 798.218 29.9079 802.558 27.2304C806.928 24.522 811.714 23.1679 816.915 23.1679C820.885 23.1679 824.194 23.8449 826.841 25.1991C829.518 26.5225 831.672 28.1844 833.304 30.1849C834.966 32.1546 836.227 34.0935 837.089 36.0017H837.689V0.454787H857.309V95.0002H837.92V83.6437H837.089C836.166 85.6134 834.858 87.5677 833.165 89.5066C831.503 91.4148 829.333 92.9998 826.656 94.2616C824.009 95.5234 820.778 96.1544 816.961 96.1544ZM823.194 80.5045C826.364 80.5045 829.041 79.6428 831.226 77.9193C833.442 76.165 835.135 73.7183 836.304 70.5791C837.505 67.4399 838.105 63.7621 838.105 59.5457C838.105 55.3293 837.52 51.6669 836.35 48.5585C835.181 45.4501 833.488 43.0495 831.272 41.3568C829.056 39.6641 826.364 38.8177 823.194 38.8177C819.962 38.8177 817.238 39.6948 815.022 41.4491C812.806 43.2034 811.129 45.6347 809.99 48.7431C808.852 51.8516 808.282 55.4524 808.282 59.5457C808.282 63.6698 808.852 67.3168 809.99 70.4867C811.16 73.626 812.837 76.0881 815.022 77.8731C817.238 79.6274 819.962 80.5045 823.194 80.5045ZM917.749 96.339C913.225 96.339 909.193 95.5542 905.653 93.9846C902.114 92.3842 899.314 90.0298 897.252 86.9214C895.22 83.7822 894.205 79.8736 894.205 75.1956C894.205 71.2562 894.928 67.9477 896.374 65.2701C897.821 62.5926 899.791 60.4382 902.283 58.8071C904.776 57.1759 907.608 55.9448 910.778 55.1139C913.979 54.2829 917.333 53.6982 920.842 53.3596C924.966 52.9287 928.29 52.5287 930.813 52.1593C933.337 51.7592 935.168 51.1745 936.307 50.4051C937.446 49.6357 938.015 48.4969 938.015 46.9889V46.7119C938.015 43.7881 937.092 41.526 935.245 39.9257C933.429 38.3253 930.844 37.5251 927.489 37.5251C923.95 37.5251 921.134 38.3099 919.041 39.8795C916.948 41.4183 915.564 43.3573 914.886 45.6963L896.698 44.219C897.621 39.9103 899.437 36.1863 902.145 33.0471C904.853 29.8771 908.346 27.4458 912.624 25.7531C916.933 24.0296 921.919 23.1679 927.582 23.1679C931.521 23.1679 935.291 23.6295 938.892 24.5528C942.524 25.4761 945.74 26.9072 948.541 28.8461C951.372 30.785 953.603 33.2779 955.234 36.3248C956.866 39.3409 957.681 42.9572 957.681 47.1735V95.0002H939.031V85.1671H938.477C937.338 87.3831 935.814 89.3374 933.906 91.0301C931.998 92.692 929.705 94 927.028 94.9541C924.35 95.8774 921.257 96.339 917.749 96.339ZM923.381 82.7666C926.274 82.7666 928.828 82.1972 931.044 81.0585C933.26 79.889 934.999 78.3194 936.261 76.3497C937.523 74.38 938.153 72.1487 938.153 69.6558V62.1309C937.538 62.531 936.692 62.9003 935.614 63.2389C934.568 63.5466 933.383 63.839 932.06 64.116C930.736 64.3622 929.413 64.593 928.09 64.8085C926.766 64.9931 925.566 65.1624 924.489 65.3163C922.18 65.6548 920.165 66.1934 918.441 66.9321C916.718 67.6707 915.379 68.6709 914.425 69.9328C913.471 71.1638 912.994 72.7027 912.994 74.5492C912.994 77.2268 913.963 79.2734 915.902 80.6892C917.872 82.0741 920.365 82.7666 923.381 82.7666Z" fill="#F8F8F8" fill-opacity="0.69"/>
</svg>
