<svg width="76" height="48" viewBox="0 0 76 48" fill="none" xmlns="http://www.w3.org/2000/svg">
<path d="M0 0.00120957V41.9992L9.52366 41.9986C10.4993 45.4504 13.6326 48.0002 17.3137 48.0002C20.9948 48.0002 24.1281 45.4504 25.1037 41.9986H52.8313C53.8107 45.4504 56.954 48.0002 60.6344 48.0002C64.3149 48.0002 67.4489 45.4504 68.4245 41.9986H76V24.4036L66.0623 8.10649H48.8664V0.000244141L0 0.00120957ZM4.47142 4.55372H44.3949V24.9257H4.47142V4.55372ZM11.0083 8.22779V21.2521H15.4798V8.22779H11.0083ZM22.6759 8.22779V21.2521H27.1473V8.22779H22.6759ZM34.3434 8.22779V21.2521H38.8148V8.22779H34.3434ZM48.8668 12.6777L63.591 12.6771L64.6783 14.4607H52.7968V29.2062H71.5256V37.4328H68.421C67.441 33.9843 64.3108 31.4318 60.6353 31.4318C56.9598 31.4318 53.8202 33.9848 52.8365 37.4335L48.8673 37.4328L48.8668 12.6777ZM57.2681 19.0317H67.4597L70.8876 24.6588L57.2681 24.6581V19.0317ZM4.47175 29.4967H44.3952V37.4335L25.0994 37.4328C24.1194 33.9843 20.9892 31.4311 17.3137 31.4311C13.6382 31.4311 10.508 33.9841 9.52797 37.4328H4.47142L4.47175 29.4967ZM17.314 36.0022C19.3495 36.0022 20.9427 37.6469 20.9427 39.7254C20.9427 41.8038 19.3495 43.4308 17.314 43.4308C15.2785 43.4308 13.681 41.8039 13.681 39.7254C13.681 37.6469 15.2785 36.0022 17.314 36.0022ZM60.6357 36.0022C62.6712 36.0022 64.2644 37.6469 64.2644 39.7254C64.2644 41.8038 62.6712 43.4308 60.6357 43.4308C58.6003 43.4308 56.9896 41.8039 56.9896 39.7254C56.9896 37.6469 58.6003 36.0022 60.6357 36.0022Z" fill="#FF6600"/>
</svg>
