<svg width="380" height="338" viewBox="0 0 380 338" fill="none" xmlns="http://www.w3.org/2000/svg">
<path fill-rule="evenodd" clip-rule="evenodd" d="M36.5256 169.322C46.7005 122.448 71.8336 82.5304 112.012 49.5704C152.19 16.5235 195.673 0 242.547 0C288.639 0 324.73 16.4365 350.993 49.3965C377.17 82.3564 385.171 122.187 374.996 169.061C364.995 215.153 339.688 254.635 299.162 287.682C258.636 320.729 215.327 337.166 169.235 337.166H122.1L143.319 239.764C154.886 249.07 169.583 253.766 187.411 253.766C210.457 253.766 232.111 245.417 252.374 228.72C272.724 212.022 285.334 192.194 290.378 169.148C295.596 145.32 291.596 125.317 278.464 108.968C265.332 92.7053 247.243 84.6175 224.197 84.6175C200.369 84.6175 178.54 92.7923 158.712 109.055C138.884 125.404 126.361 145.493 121.23 169.235C120.795 171.235 120.447 173.149 120.186 175.062L84.7045 337.253H0L36.5256 169.322Z" fill="white" fill-opacity="0.45"/>
</svg>
